<svg width="281" height="682" viewBox="0 0 281 682" fill="none" xmlns="http://www.w3.org/2000/svg">
<rect width="281" height="682" rx="10" fill="#EFECE2"/>
<path d="M108.632 6.83848C111.461 6.08445 113.339 6.0551 116.043 6.05396C114.539 11.6456 113.544 14.3414 111.764 16.4529C110.857 17.5293 109.738 18.462 108.222 19.5485C107.274 20.2277 106.18 20.9613 104.891 21.8253C104.113 22.3469 103.264 22.9159 102.334 23.5492C97.4214 26.8931 92.5416 29.2669 88.6287 30.4058C86.6708 30.9756 84.969 31.2321 83.6327 31.1548C82.2919 31.0771 81.3671 30.6678 80.8847 29.9592C80.4022 29.2505 80.3606 28.24 80.78 26.9641C81.198 25.6925 82.0607 24.2033 83.3088 22.5908C85.8001 19.3719 89.7912 15.7075 94.6952 12.3668C101.697 9.20058 105.682 7.62485 108.632 6.83848Z" fill="#3F7F30" stroke="#23461B" stroke-width="0.5"/>
<path d="M100.538 83.5228C100.538 111.2 84.524 133.636 64.7692 133.636C45.0144 133.636 29 111.2 29 83.5228C29 55.8458 45.0144 33.4092 64.7692 33.4092C84.524 33.4092 100.538 55.8458 100.538 83.5228Z" fill="#D73D3D"/>
<path d="M134 83.5228C134 111.2 117.986 133.636 98.2308 133.636C78.476 133.636 62.4615 111.2 62.4615 83.5228C62.4615 55.8458 78.476 33.4092 98.2308 33.4092C117.986 33.4092 134 55.8458 134 83.5228Z" fill="#D73D3D"/>
<rect x="59.8784" y="81.8098" width="8.24663" height="2.36643" transform="rotate(-4.68414 59.8784 81.8098)" fill="white"/>
<rect x="55.2686" y="79.5454" width="9.86611" height="1.7203" transform="rotate(28.26 55.2686 79.5454)" fill="white"/>
<rect x="54.9814" y="79.5205" width="16.2186" height="2.58049" transform="rotate(0.535849 54.9814 79.5205)" fill="white"/>
<rect width="11.4995" height="2.24434" transform="matrix(-0.880808 0.473473 0.473473 0.880808 70.9478 79.5454)" fill="white"/>
<rect x="54.6128" y="81.1675" width="15.44" height="3.18182" transform="rotate(-90 54.6128 81.1675)" fill="white"/>
<rect x="61.4849" y="81.1755" width="15.3116" height="2.96542" transform="rotate(-90 61.4849 81.1755)" fill="white"/>
<rect x="68.9282" y="81.167" width="15.0389" height="3.15745" transform="rotate(-90 68.9282 81.167)" fill="white"/>
<rect x="64" y="83.9399" width="49.6543" height="3.18182" transform="rotate(89.9856 64 83.9399)" fill="white"/>
<rect x="99.522" y="85.9092" width="47.685" height="2.88396" transform="rotate(89.9856 99.522 85.9092)" fill="white"/>
<ellipse cx="98.2045" cy="77.1591" rx="7.15909" ry="11.9318" fill="white"/>
<ellipse cx="204.5" cy="80" rx="63.5" ry="60" fill="#2F2F2F"/>
<path d="M167.816 68.144L167.96 68C168.024 68.032 168.104 68.128 168.2 68.288C168.312 68.448 168.376 68.592 168.392 68.72C168.424 68.848 168.44 68.968 168.44 69.08C168.44 69.512 168.344 69.952 168.152 70.4L163.544 80H163.304L158.84 68H160.52L164.192 77.936L167.912 70.4C168.104 70.064 168.2 69.664 168.2 69.2C168.2 68.736 168.072 68.384 167.816 68.144ZM172.213 80C171.557 80 171.053 79.856 170.701 79.568C170.365 79.28 170.189 78.992 170.173 78.704L170.149 78.296V68H171.829V78.296C171.829 78.76 171.917 79.12 172.093 79.376C172.285 79.616 172.469 79.744 172.645 79.76L172.933 79.808H173.677V80H172.213ZM170.293 65.312C170.101 65.12 170.005 64.88 170.005 64.592C170.005 64.304 170.101 64.064 170.293 63.872C170.485 63.664 170.725 63.56 171.013 63.56C171.301 63.56 171.541 63.664 171.733 63.872C171.941 64.064 172.045 64.304 172.045 64.592C172.045 64.88 171.941 65.12 171.733 65.312C171.541 65.504 171.301 65.6 171.013 65.6C170.725 65.6 170.485 65.504 170.293 65.312ZM178.649 80C177.241 80 176.353 79.632 175.985 78.896C175.905 78.736 175.865 78.592 175.865 78.464V62.024H177.545V78.296C177.545 78.76 177.633 79.12 177.809 79.376C178.001 79.616 178.193 79.744 178.385 79.76L178.649 79.808H179.393V80H178.649ZM180.733 74.432C180.733 72.352 181.237 70.744 182.245 69.608C183.253 68.472 184.765 67.904 186.781 67.904C187.725 67.904 188.677 68.144 189.637 68.624V62.024H191.317V78.296C191.317 78.76 191.405 79.12 191.581 79.376C191.773 79.616 191.965 79.744 192.157 79.76L192.421 79.808H193.165V80H191.701C191.045 80 190.541 79.856 190.189 79.568C189.853 79.28 189.677 78.992 189.661 78.704L189.637 78.296V77.912C189.333 78.472 188.829 78.968 188.125 79.4C187.421 79.832 186.589 80.048 185.629 80.048C182.365 79.968 180.733 78.096 180.733 74.432ZM185.653 79.856C186.725 79.856 187.645 79.568 188.413 78.992C189.181 78.416 189.589 77.848 189.637 77.288V68.84C188.501 68.344 187.525 68.096 186.709 68.096C185.285 68.096 184.213 68.656 183.493 69.776C182.773 70.88 182.413 72.432 182.413 74.432C182.413 78.048 183.493 79.856 185.653 79.856ZM216.721 70.76C216.721 69.784 216.593 69.096 216.337 68.696C216.081 68.296 215.593 68.096 214.873 68.096C213.913 68.096 213.057 68.496 212.305 69.296C211.569 70.096 211.201 70.816 211.201 71.456V80H209.521V70.76C209.521 69.784 209.393 69.096 209.137 68.696C208.881 68.296 208.337 68.096 207.505 68.096C206.673 68.096 205.881 68.48 205.129 69.248C204.393 70.016 203.993 70.728 203.929 71.384V80H202.249V68H203.929V70.712C204.185 70.024 204.657 69.384 205.345 68.792C206.033 68.2 206.801 67.904 207.649 67.904C208.497 67.904 209.169 67.984 209.665 68.144C210.177 68.288 210.537 68.52 210.745 68.84C210.953 69.16 211.081 69.44 211.129 69.68C211.177 69.92 211.201 70.256 211.201 70.688C211.457 70 211.921 69.368 212.593 68.792C213.265 68.2 213.985 67.904 214.753 67.904C215.521 67.904 216.137 67.968 216.601 68.096C217.065 68.224 217.409 68.368 217.633 68.528C217.873 68.688 218.049 68.92 218.161 69.224C218.289 69.528 218.361 69.776 218.377 69.968C218.393 70.16 218.401 70.432 218.401 70.784V78.296C218.401 78.76 218.489 79.12 218.665 79.376C218.857 79.616 219.049 79.744 219.241 79.76L219.505 79.808H220.249V80H218.785C218.129 80 217.625 79.856 217.273 79.568C216.937 79.28 216.761 78.992 216.745 78.704L216.721 78.296V70.76ZM230.888 80C229.8 80 229.056 79.792 228.656 79.376C228.288 79.024 228.104 78.72 228.104 78.464V77.96C227.32 79.384 226.064 80.096 224.336 80.096C222.32 80.096 221.176 79.184 220.904 77.36C220.872 77.168 220.856 76.976 220.856 76.784C220.856 76.576 220.888 76.352 220.952 76.112C221.016 75.872 221.2 75.608 221.504 75.32C222.112 74.744 223.448 74.392 225.512 74.264C226.024 74.216 226.496 74.192 226.928 74.192C227.36 74.192 227.752 74.208 228.104 74.24V70.256C228.072 70.24 228.072 70.168 228.104 70.04C228.136 69.896 228.104 69.72 228.008 69.512C227.928 69.288 227.816 69.072 227.672 68.864C227.528 68.656 227.272 68.48 226.904 68.336C226.536 68.176 226.056 68.096 225.464 68.096C224.872 68.096 224.176 68.208 223.376 68.432C222.592 68.64 222.016 68.848 221.648 69.056L221.552 68.888C222.976 68.232 224.424 67.904 225.896 67.904C227.544 67.904 228.632 68.2 229.16 68.792C229.576 69.256 229.784 69.744 229.784 70.256V78.296C229.784 78.76 229.872 79.12 230.048 79.376C230.24 79.616 230.432 79.744 230.624 79.76L230.888 79.808H231.632V80H230.888ZM224.72 79.904C225.568 79.904 226.328 79.616 227 79.04C227.688 78.448 228.056 77.88 228.104 77.336V74.432C227.672 74.4 227.232 74.384 226.784 74.384C226.352 74.384 225.92 74.408 225.488 74.456C224.272 74.6 223.48 74.872 223.112 75.272C222.744 75.672 222.56 76.224 222.56 76.928C222.56 77.056 222.568 77.2 222.584 77.36C222.728 79.056 223.44 79.904 224.72 79.904ZM232.952 74.432C232.952 72.352 233.456 70.744 234.464 69.608C235.472 68.472 236.984 67.904 239 67.904C239.944 67.904 240.896 68.144 241.856 68.624V62.024H243.536V78.296C243.536 78.76 243.624 79.12 243.8 79.376C243.992 79.616 244.184 79.744 244.376 79.76L244.64 79.808H245.384V80H243.92C243.264 80 242.76 79.856 242.408 79.568C242.072 79.28 241.896 78.992 241.88 78.704L241.856 78.296V77.912C241.552 78.472 241.048 78.968 240.344 79.4C239.64 79.832 238.808 80.048 237.848 80.048C234.584 79.968 232.952 78.096 232.952 74.432ZM237.872 79.856C238.944 79.856 239.864 79.568 240.632 78.992C241.4 78.416 241.808 77.848 241.856 77.288V68.84C240.72 68.344 239.744 68.096 238.928 68.096C237.504 68.096 236.432 68.656 235.712 69.776C234.992 70.88 234.632 72.432 234.632 74.432C234.632 78.048 235.712 79.856 237.872 79.856Z" fill="white"/>
<path d="M180.551 91.7269C180.355 92.4449 178.449 92.9157 177.837 93.2735C177.273 93.6036 175.641 94.7099 177.303 93.9766C177.487 93.8953 180.537 92.3288 179.511 92.2612C178.317 92.1825 175.96 92.5535 175.996 94.1734C176.007 94.7174 182.019 93.2774 182.674 93.0486C183.427 92.786 183.211 92.7123 182.597 93.0345C182.074 93.309 180.565 94.2241 181.113 94.0047C182.365 93.504 183.537 92.6293 184.727 92.0011C185.93 91.3657 187.17 90.8208 188.397 90.2365C190.416 89.2748 184.476 92.3979 182.449 93.3438C181.133 93.9581 184.222 90.9789 185.416 90.1521C185.686 89.9654 185.083 90.8725 185.022 90.9887C184.831 91.3582 185.427 91.1981 185.599 91.1645C186.359 91.0157 187.195 90.8716 187.912 90.5739C188.431 90.3583 188.766 89.9285 189.184 89.5757C189.5 89.309 189.979 89.142 190.246 88.8305C190.412 88.6363 189.485 88.6881 189.409 88.6899C188.307 88.7149 187.033 89.2239 186.049 89.7022C185.002 90.2108 183.929 90.5818 182.815 90.9395C181.6 91.3295 180.023 91.552 178.934 92.2612C178.108 92.7993 178.511 94.9032 178.583 95.6497C178.702 96.8959 179.293 98.8777 180.326 99.7132C181.076 100.319 182.799 99.4742 183.124 98.743C183.676 97.5008 182.422 97.2336 181.493 97.2948C180.55 97.357 179.792 98.4013 179.792 99.2914C179.792 99.9219 181.793 98.7509 181.985 98.3353C182.741 96.6987 179.455 96.6387 178.723 96.7183C178.571 96.7349 177.036 97.2705 177.851 97.4495C178.525 97.5973 179.26 97.6744 179.946 97.6744C182.031 97.6744 184.35 96.267 186.189 97.6463C187.099 98.3288 188.596 99.4724 188.523 100.711C188.493 101.228 184.828 100.335 184.741 100.332C184.013 100.309 184.067 100.269 183.996 99.5163C183.958 99.118 183.727 97.7015 184.122 97.4214C184.577 97.0991 184.268 100.022 185.289 100.079C185.69 100.101 187.008 99.1386 187.103 99.2492C187.444 99.6473 186.347 99.5075 186.26 99.4601C184.599 98.5642 183.024 96.8446 181.845 95.3967C181.373 94.8172 180.916 94.297 180.326 93.836C180.101 93.6602 179.785 93.5038 180.242 93.4985C181.935 93.4788 183.691 93.3762 185.374 93.5969C186.017 93.6813 186.647 93.625 187.272 93.4704C190.093 92.7723 193.011 92.6142 195.736 91.5301C197.32 90.8999 198.565 89.7871 200.039 88.9711C201.486 88.1699 202.791 87.1393 204.173 86.2574C204.907 85.7883 205.543 85.2996 206.169 84.6967C206.567 84.3129 207.088 83.81 207.603 83.6C208.279 83.3245 208.862 83.0124 209.628 82.9954C210.005 82.987 211.664 82.2932 211.681 82.8689C211.697 83.4444 211.893 84.5307 211.554 85.0482C211.218 85.5628 210.954 86.2367 210.514 86.6933C209.903 87.3262 209.425 87.8651 208.616 88.2118C206.812 88.9848 204.645 89.5325 202.696 89.7795C201.821 89.8905 200.956 90.0738 200.081 90.1803C199.618 90.2366 200.035 89.9909 200.207 89.8709C201.971 88.646 204.142 87.9545 206.028 86.9253C207.253 86.2571 208.244 85.5009 209.326 84.6545C209.472 84.5399 210.023 83.8944 209.881 84.0359C209.3 84.6164 209.081 85.3829 208.897 86.166C208.707 86.9744 208.295 87.7041 207.772 88.3454C207.594 88.5643 206.613 89.0764 206.654 88.8305C206.723 88.4202 206.007 89.3664 205.761 89.7022C205.423 90.1649 205.168 90.6737 205.108 91.2488C204.993 92.3403 208.08 91.7031 208.623 91.6707C209.033 91.6461 210.209 91.5363 209.853 91.741C208.552 92.4887 207.22 93.1891 205.895 93.8922C205.842 93.9203 203.814 95.0306 205.016 94.539C206.577 93.9008 208.186 93.4828 209.86 93.2735C210.851 93.1496 208.914 94.7637 209.67 94.539C210.742 94.2204 211.767 93.9811 212.89 93.9063C213.037 93.8965 214.079 93.6769 213.79 94.1101C213.702 94.2422 212.895 95.137 213.059 95.2842C213.232 95.4403 214.473 94.8368 214.725 94.7921C215.427 94.6673 215.469 95.4019 215.343 95.9661C215.215 96.5442 213.491 96.2825 213.073 96.2825C211.417 96.2825 209.538 96.2006 207.92 95.8466C206.891 95.6216 206.016 95.0554 205.023 94.7147C203.448 94.1742 201.304 93.8653 201.304 95.9731C201.304 97.0294 202.418 97.2316 203.237 97.6041C203.941 97.9239 204.353 98.371 204.911 98.8696C205.522 99.4169 205.367 100.464 204.531 100.641C203.057 100.954 201.341 100.431 200.046 99.7624C198.891 99.1657 197.595 98.7436 196.481 98.1033C195.814 97.7196 195.128 97.4923 194.415 97.2104C193.351 96.7903 192.347 96.2457 191.223 95.9942C191.072 95.9604 189.55 95.9266 189.676 95.5794C189.816 95.195 190.581 95.1198 190.9 95.0733C192.265 94.8739 193.634 94.7498 194.998 94.5179C196.022 94.3439 197.093 94.249 198.098 93.9766C198.985 93.7362 199.833 93.374 200.721 93.1329C201.897 92.8136 203.169 92.5748 203.955 91.5441C204.072 91.3899 204.492 91.2594 204.355 91.1223C204.085 90.8524 202.286 92.1315 202.092 92.2612C200.257 93.4879 198.459 94.7593 196.496 95.7763C195.94 96.0642 195.421 96.3639 194.942 96.7675C194.666 97 195.648 96.6098 195.989 96.4934C198.923 95.4936 201.928 94.7221 204.925 93.9414C206.138 93.6255 207.454 93.3911 208.573 92.7955C209.238 92.4421 208.647 92.5623 208.313 92.683C207.839 92.8544 207.42 92.9861 206.914 92.9923C204.723 93.0194 202.529 93.0085 200.348 92.7674C200.302 92.7622 199.005 92.7239 198.991 92.5143C198.952 91.9299 200.06 91.4373 200.447 91.2488C200.915 91.0205 202.437 90.7146 201.916 90.7146C201.022 90.7146 200.122 90.7893 199.251 90.9958C199.195 91.0091 197.836 91.459 197.958 91.5371C198.405 91.8247 199.22 91.835 199.729 91.9519C201.195 92.2881 201.272 92.9821 200.573 94.2578C200.512 94.3686 199.835 95.3711 200.376 95.0733C201.415 94.502 202.313 93.624 203.16 92.8095C203.655 92.3342 205.926 90.1923 204.341 89.6038C203.597 89.3273 202.16 89.2349 201.838 90.1662C201.617 90.8071 201.409 92.4352 201.937 92.9923C202.034 93.0948 202.137 93.0623 202.232 93.1259C202.454 93.2738 201.799 93.4374 201.585 93.5969C200.253 94.5915 198.972 96.1485 198.07 97.5479C197.546 98.3613 197.697 99.0689 198.745 98.504C199.574 98.0572 200.677 96.7776 200.65 95.7833C200.609 94.2443 196.995 94.8816 196.228 95.0311C196.176 95.0413 192.593 96.3869 192.784 96.5637C193.214 96.9617 194.235 96.7886 194.738 96.7886C195.661 96.7886 196.601 96.7386 197.522 96.8168C198.522 96.9017 199.5 97.3095 200.432 97.6463C200.896 97.8139 201.722 97.9462 202.092 98.279C202.293 98.4601 202.535 98.7339 202.752 98.8696C203.104 99.0896 203.037 99.2975 203.455 99.3195C203.752 99.3351 203.945 99.7082 204.06 99.9522C204.182 100.212 202.94 99.8665 202.795 99.7694C202.117 99.3177 201.391 98.6645 200.77 98.1244C199.824 97.3011 199.418 96.6549 199.561 95.3264C199.761 93.4649 202.116 93.1066 203.61 92.8517C205.499 92.5294 207.136 92.782 208.869 93.4423C210.793 94.1752 205.936 94.1344 205.867 94.4476C205.71 95.1537 210.195 95.017 210.711 95.017C211.601 95.017 212.378 94.8877 213.136 95.3264C213.393 95.4749 213.871 95.7358 214.155 95.7693C214.463 95.8054 214.723 95.754 214.978 95.9661C215.151 96.1104 215.465 95.9985 215.674 96.0364C215.999 96.0955 216.118 96.2825 216.489 96.2825C217.024 96.2825 216.869 95.8809 216.869 95.4177C216.869 94.6727 216.428 94.2964 215.822 93.8922C215.33 93.5644 215.069 92.9923 214.408 92.9923C213.624 92.9923 212.748 92.7256 211.969 92.6127C210.596 92.4137 209.174 92.2331 207.786 92.2331C206.609 92.2331 207.544 91.4504 208.131 91.1153C208.771 90.7493 209.487 90.7366 210.204 90.6864C210.243 90.6837 211.409 90.5534 211.378 90.5177C210.955 90.024 208.72 90.3455 208.194 90.363C206.764 90.4109 205.386 90.6515 204.004 91.0098C202.546 91.3877 204.467 90.6943 204.883 90.581C206.467 90.1489 208.251 90.042 209.874 89.8287C212.112 89.5347 214.221 89.2581 216.286 88.3173C217.547 87.7422 218.788 87.1177 220.047 86.5456C221.094 86.0694 222.22 85.5912 223.309 85.2169C223.858 85.028 224.341 84.6819 224.905 84.521C226.608 84.0341 228.329 84.1865 230.072 84.0078C231.191 83.893 232.551 84.0092 233.566 83.4383C233.73 83.3461 233.846 83.2522 234.037 83.2204C234.505 83.1424 233.609 83.6652 233.559 83.6984C232.591 84.336 231.856 84.9255 230.775 85.3365C230.011 85.6267 229.251 85.8798 228.497 86.173C227.424 86.5905 226.326 86.7882 225.235 87.1643C224.572 87.3928 223.934 87.6436 223.295 87.9306C222.319 88.3683 222.968 87.9917 223.513 87.7127C225.154 86.8715 226.716 86.0289 228.23 84.9779C228.64 84.6933 228.754 84.5853 228.103 84.6967C226.172 85.0275 224.394 86.0569 222.655 86.9042C220.835 87.7909 218.965 88.6428 217.305 89.8147C216.892 90.1062 216.176 90.5942 216.011 91.1293C215.979 91.2345 216.056 91.1979 216.138 91.1715C216.858 90.9392 217.58 90.5451 218.261 90.2365C219.829 89.526 219.515 89.6671 221.059 88.9711C221.51 88.7678 222.411 88.4951 222.838 88.1485C223.805 87.3625 220.441 88.8603 219.301 89.3648C218.277 89.8181 217.241 90.4531 216.138 90.7075C215.411 90.8752 215.604 90.4524 215.604 89.7866C215.604 89.1731 214.437 89.3917 213.973 89.4632C213.323 89.5631 213.324 89.9553 214.001 89.9553C214.809 89.9553 215.685 89.9493 214.908 90.8903C214.358 91.5558 214.883 91.5624 215.583 91.7269C216.152 91.861 216.513 92.0983 216.862 92.5565C217.215 93.0198 217.612 93.5539 217.755 94.1242C217.883 94.6364 218.109 94.4754 218.324 94.0609C218.75 93.2417 219.393 92.4786 220.426 92.7603C220.91 92.8922 221.069 93.3834 221.164 93.8149C221.276 94.3156 221.68 94.3441 222.057 94.6374C222.499 94.9807 222.829 95.2282 223.203 95.6497C223.651 96.1536 224.216 96.8235 224.841 97.0839C226.105 97.6105 227.53 97.5479 228.87 97.5479C229.916 97.5479 231.338 97.7807 232.118 96.9433C232.933 96.067 233.114 94.8115 233.06 93.6672C233.013 92.6901 232.813 94.6526 232.813 94.9397C232.813 95.804 233.179 96.6559 233.517 97.4284C233.937 98.3901 233.45 98.3536 232.617 98.6868C231.999 98.934 231.202 98.8133 230.55 98.8133C229.801 98.8133 229.387 98.3769 228.884 97.8572C227.147 96.0631 226.135 93.7897 224.673 91.7831C224.132 91.0415 224.171 89.6497 225.066 89.2242C225.663 88.9405 226.234 88.7651 226.739 88.3102C227.092 87.9928 227.213 87.8887 226.486 87.8322C225.083 87.7231 223.709 88.4768 222.437 88.9711C221.368 89.3863 220.071 90.2493 219.428 91.2207C219.248 91.4929 218.279 92.5565 218.43 92.5002C218.917 92.3184 222.477 90.8636 222.381 90.2365C222.297 89.6922 217.731 91.0539 217.164 91.516C216.647 91.9372 217.644 91.7087 217.762 91.6847C219.52 91.3252 221.216 90.7307 222.901 90.124C223.293 89.9828 224.4 89.3258 224.012 90.2365C223.591 91.2247 222.898 92.2021 222.085 92.908C221.037 93.8189 220.068 93.172 218.922 93.6251C218.463 93.8064 218.3 94.0358 217.755 94.0047C217.46 93.9878 217.465 93.7073 217.544 93.4704C217.764 92.8104 218.441 92.4114 219.02 92.1065C220.266 91.4507 221.608 90.7328 223.013 90.4896C223.644 90.3805 223.59 90.907 223.576 91.4035C223.515 93.5218 220.126 93.3059 218.641 93.9484C218.443 94.0339 217.838 94.2694 217.628 94.2578C216.928 94.2189 218.241 93.0021 218.345 92.9361C218.668 92.7315 220.753 91.7979 219.597 92.6689C219.155 93.0017 218.704 93.3363 218.219 93.604C218.002 93.7233 217.711 93.7646 217.558 93.9766C217.262 94.3875 218.574 94.3124 218.767 94.2296C219.645 93.8534 220.478 93.4168 221.382 93.0908C222.228 92.7857 223.11 92.5851 223.998 92.444C224.5 92.364 224.329 92.8523 224.391 93.2314C224.483 93.7886 224.79 94.6834 225.474 94.7639C225.704 94.791 225.93 95.201 225.896 95.1858C225.422 94.9753 224.98 94.3845 224.581 94.0609C224.047 93.6279 223.559 93.1391 222.999 92.7392C222.954 92.7068 222.363 92.247 222.346 92.3456C222.279 92.7117 222.816 93.3724 223.013 93.6391C223.75 94.6348 224.835 95.6897 226.114 95.9028C226.381 95.9474 226.623 96.0063 226.866 96.1278C226.952 96.171 225.881 96.1559 225.875 96.1559C225.376 96.1559 224.139 96.3823 223.759 95.9169C223.629 95.7579 223.419 95.2014 223.815 95.3334C226.199 96.128 228.451 97.5733 231.077 97.0909C232.53 96.8241 232.643 94.9398 232.49 93.7586C232.448 93.4325 231.984 92.4512 232.209 92.1136C232.432 91.7786 233.679 91.9773 234.009 92.0433C235.195 92.2805 236.271 92.9041 237.489 92.9853C237.76 93.0034 238.496 93.1092 238.684 92.8588C238.948 92.506 238.933 91.8251 238.874 91.4246C238.744 90.5522 237.435 90.6999 236.821 90.581C235.331 90.2927 233.827 90.2293 232.328 90.0186C231.248 89.8666 230.33 89.4855 229.291 89.2523C228.294 89.0284 225.259 88.584 226.275 88.6969C228.695 88.9658 231.016 89.4794 233.327 90.2013C234.276 90.498 235.144 90.8568 235.977 91.4035C236.399 91.6801 236.928 92.0682 237.418 92.219C237.586 92.2705 238.09 92.3146 238.121 92.0925C238.295 90.8776 235.161 91.0004 234.515 90.9817C232.456 90.922 230.416 91.0815 228.37 91.291C227.272 91.4035 226.016 91.3968 224.989 91.8675C224.81 91.9497 223.846 92.5787 224.462 92.7814C225.358 93.0766 226.562 92.5657 227.33 92.1557C228.142 91.7221 228.923 91.1782 227.625 90.7849C227.013 90.5994 226.108 90.4432 225.488 90.3771C225.049 90.3303 223.694 90.1103 223.238 90.4052C223.037 90.5352 223.697 90.5519 223.934 90.581C224.759 90.6819 225.587 90.7073 226.416 90.7146C226.702 90.7171 228.72 90.4432 228.167 91.052C227.928 91.3143 225.369 94.0215 226.957 93.5899C227.573 93.4225 228.487 93.0775 229.045 92.8728C229.43 92.7316 229.813 92.5835 230.198 92.444C230.459 92.3496 231.117 91.9676 231 92.219C230.874 92.4877 230.543 92.5977 230.311 92.7814C229.673 93.2846 229.042 93.7932 228.413 94.307C227.173 95.3197 228.593 93.6349 228.848 93.386C230.163 92.1069 229.845 93.3153 229.39 94.307C229.375 94.3387 228.299 96.1678 228.778 95.6638C228.887 95.5488 229.772 94.6384 229.861 95.1717C229.948 95.6925 229.627 95.5441 229.762 94.8061C229.794 94.6324 230.404 92.4338 230.374 93.2314C230.344 94.0386 229.958 94.8884 230.03 95.6919C230.035 95.7547 231.137 94.4161 231.253 94.2578C232.477 92.5809 230.915 96.4741 230.915 96.2754C230.915 95.5535 230.857 95.2886 230.789 95.017" stroke="#59AD44" stroke-width="2"/>
<path d="M173.33 95.2141C173.488 94.3451 174.693 93.7595 175.341 93.3033C177.229 91.973 179.271 90.9178 181.387 89.9956C183.033 89.2779 184.747 88.8901 186.471 88.4199C187.797 88.0583 189.308 87.9329 190.583 87.4813C190.72 87.4327 191.361 86.9182 191.421 87.3136C191.576 88.3189 191.397 89.4705 190.796 90.2973C189.196 92.4973 185.919 93.2354 183.621 94.499C183.513 94.5588 182.92 95.013 183.387 95.013C184.916 95.013 186.674 94.0492 188.035 93.4709C191.314 92.0784 194.843 90.9873 198.003 89.3586C200.6 88.0205 203.061 86.2685 205.334 84.4417C206.682 83.3583 208.017 82.7995 209.636 82.2403C210.275 82.0196 211.718 81.2958 212.441 81.5587C213.142 81.8136 212.955 83.4116 212.955 83.9277C212.955 85.6013 211.881 86.3885 210.631 87.3695C209.675 88.1191 208.738 89.0832 207.725 89.7385C207.525 89.8679 208.169 89.5653 208.396 89.4927C209.404 89.1696 210.428 88.968 211.458 88.7328C216.515 87.5779 221.284 85.6642 226.208 84.0841C227.689 83.609 229.258 83.5283 230.779 83.2349C232.386 82.9247 233.992 82.4884 235.628 82.3521C236.516 82.2781 235.867 83.522 235.55 83.8383C234.861 84.5276 233.751 85.1982 232.812 85.4698C231.322 85.9013 229.963 86.5352 228.533 87.1237C227.874 87.3943 227.209 87.5949 226.521 87.7718C226.508 87.7751 225.74 87.9849 225.806 88.0176C227.622 88.9255 230.674 88.3752 232.622 88.3752C233.862 88.3752 234.964 88.2458 236.087 88.7775C237.487 89.4407 239.383 89.3007 239.808 91.0013C240.335 93.1118 239.058 94.6107 236.88 94.6107C235.902 94.6107 235.388 94.5366 234.522 94.052C234.212 93.8781 232.213 92.4923 232.913 93.6944C233.497 94.6977 236.27 97.9005 234.377 98.9465C230.575 101.047 227.403 99.6827 224.331 97.1362C221.231 94.5664 217.716 92.9675 214.14 91.1912C214.088 91.1656 211.633 89.8233 212.039 90.4761C213.257 92.4359 216.876 92.5072 217.682 94.7448C219.496 99.7847 208.648 96.6922 206.921 96.3316C205.441 96.0226 203.87 95.716 202.428 95.2588C202.097 95.1537 200.023 94.1324 201.02 94.7001C202.834 95.7325 206.449 97.1281 206.518 99.6393C206.528 99.9724 206.58 100.397 206.507 100.723C206.383 101.28 201.949 100.683 201.501 100.6C197.629 99.8891 193.815 98.2285 190.203 96.7115C189.845 96.5611 186.959 95.1529 187.253 96.1081C187.788 97.8461 189.971 98.6939 189.823 100.69C189.709 102.236 185.833 101.651 184.907 101.651C183.566 101.651 182.695 101.112 181.476 100.645C180.433 100.246 179.04 99.864 178.258 99.0359C177.413 98.1416 176.181 97.663 175.341 96.8233C174.847 96.3296 174.132 96.2169 173.732 95.6164" stroke="#59AD44" stroke-width="2"/>
<path d="M166 92.2689C167.702 93.4903 170.531 93.9954 172.692 94.5077C175.099 95.0785 177.341 94.9958 179.849 94.9958C182.7 94.9958 185.479 94.9478 188.202 94.2384C191.215 93.4537 194.328 92.8095 197.42 92.2353C201.968 91.3908 206.442 90.0764 211.125 89.702C214.411 89.4392 217.783 89.1201 221.085 89.0876C223.998 89.0588 227.335 88.7368 230.103 89.542C231.575 89.9704 233.896 90.5211 235 91.36" stroke="white"/>
<ellipse cx="170" cy="63.4998" rx="1" ry="2.5" transform="rotate(-23.2806 170 63.4998)" fill="#59AD44"/>
<ellipse cx="1" cy="2.5" rx="1" ry="2.5" transform="matrix(-0.91858 -0.395235 -0.395235 0.91858 173.813 61.7905)" fill="#59AD44"/>
<ellipse cx="78.5" cy="227" rx="63.5" ry="60" fill="#2F2F2F"/>
<path d="M41.816 215.144L41.96 215C42.024 215.032 42.104 215.128 42.2 215.288C42.312 215.448 42.376 215.592 42.392 215.72C42.424 215.848 42.44 215.968 42.44 216.08C42.44 216.512 42.344 216.952 42.152 217.4L37.544 227H37.304L32.84 215H34.52L38.192 224.936L41.912 217.4C42.104 217.064 42.2 216.664 42.2 216.2C42.2 215.736 42.072 215.384 41.816 215.144ZM46.2127 227C45.5567 227 45.0527 226.856 44.7007 226.568C44.3647 226.28 44.1887 225.992 44.1727 225.704L44.1487 225.296V215H45.8287V225.296C45.8287 225.76 45.9167 226.12 46.0927 226.376C46.2847 226.616 46.4687 226.744 46.6447 226.76L46.9327 226.808H47.6767V227H46.2127ZM44.2927 212.312C44.1007 212.12 44.0047 211.88 44.0047 211.592C44.0047 211.304 44.1007 211.064 44.2927 210.872C44.4847 210.664 44.7247 210.56 45.0127 210.56C45.3007 210.56 45.5407 210.664 45.7327 210.872C45.9407 211.064 46.0447 211.304 46.0447 211.592C46.0447 211.88 45.9407 212.12 45.7327 212.312C45.5407 212.504 45.3007 212.6 45.0127 212.6C44.7247 212.6 44.4847 212.504 44.2927 212.312ZM52.6486 227C51.2406 227 50.3526 226.632 49.9846 225.896C49.9046 225.736 49.8646 225.592 49.8646 225.464V209.024H51.5446V225.296C51.5446 225.76 51.6326 226.12 51.8086 226.376C52.0006 226.616 52.1926 226.744 52.3846 226.76L52.6486 226.808H53.3926V227H52.6486ZM54.7334 221.432C54.7334 219.352 55.2374 217.744 56.2454 216.608C57.2534 215.472 58.7654 214.904 60.7814 214.904C61.7254 214.904 62.6774 215.144 63.6374 215.624V209.024H65.3174V225.296C65.3174 225.76 65.4054 226.12 65.5814 226.376C65.7734 226.616 65.9654 226.744 66.1574 226.76L66.4214 226.808H67.1654V227H65.7014C65.0454 227 64.5414 226.856 64.1894 226.568C63.8534 226.28 63.6774 225.992 63.6614 225.704L63.6374 225.296V224.912C63.3334 225.472 62.8294 225.968 62.1254 226.4C61.4214 226.832 60.5894 227.048 59.6294 227.048C56.3654 226.968 54.7334 225.096 54.7334 221.432ZM59.6534 226.856C60.7254 226.856 61.6454 226.568 62.4134 225.992C63.1814 225.416 63.5894 224.848 63.6374 224.288V215.84C62.5014 215.344 61.5254 215.096 60.7094 215.096C59.2854 215.096 58.2134 215.656 57.4934 216.776C56.7734 217.88 56.4134 219.432 56.4134 221.432C56.4134 225.048 57.4934 226.856 59.6534 226.856ZM90.7211 217.76C90.7211 216.784 90.5931 216.096 90.3371 215.696C90.0811 215.296 89.5931 215.096 88.8731 215.096C87.9131 215.096 87.0571 215.496 86.3051 216.296C85.5691 217.096 85.2011 217.816 85.2011 218.456V227H83.5211V217.76C83.5211 216.784 83.3931 216.096 83.1371 215.696C82.8811 215.296 82.3371 215.096 81.5051 215.096C80.6731 215.096 79.8811 215.48 79.1291 216.248C78.3931 217.016 77.9931 217.728 77.9291 218.384V227H76.2491V215H77.9291V217.712C78.1851 217.024 78.6571 216.384 79.3451 215.792C80.0331 215.2 80.8011 214.904 81.6491 214.904C82.4971 214.904 83.1691 214.984 83.6651 215.144C84.1771 215.288 84.5371 215.52 84.7451 215.84C84.9531 216.16 85.0811 216.44 85.1291 216.68C85.1771 216.92 85.2011 217.256 85.2011 217.688C85.4571 217 85.9211 216.368 86.5931 215.792C87.2651 215.2 87.9851 214.904 88.7531 214.904C89.5211 214.904 90.1371 214.968 90.6011 215.096C91.0651 215.224 91.4091 215.368 91.6331 215.528C91.8731 215.688 92.0491 215.92 92.1611 216.224C92.2891 216.528 92.3611 216.776 92.3771 216.968C92.3931 217.16 92.4011 217.432 92.4011 217.784V225.296C92.4011 225.76 92.4891 226.12 92.6651 226.376C92.8571 226.616 93.0491 226.744 93.2411 226.76L93.5051 226.808H94.2491V227H92.7851C92.1291 227 91.6251 226.856 91.2731 226.568C90.9371 226.28 90.7611 225.992 90.7451 225.704L90.7211 225.296V217.76ZM104.888 227C103.8 227 103.056 226.792 102.656 226.376C102.288 226.024 102.104 225.72 102.104 225.464V224.96C101.32 226.384 100.064 227.096 98.3356 227.096C96.3196 227.096 95.1756 226.184 94.9036 224.36C94.8716 224.168 94.8556 223.976 94.8556 223.784C94.8556 223.576 94.8876 223.352 94.9516 223.112C95.0156 222.872 95.1996 222.608 95.5036 222.32C96.1116 221.744 97.4476 221.392 99.5116 221.264C100.024 221.216 100.496 221.192 100.928 221.192C101.36 221.192 101.752 221.208 102.104 221.24V217.256C102.072 217.24 102.072 217.168 102.104 217.04C102.136 216.896 102.104 216.72 102.008 216.512C101.928 216.288 101.816 216.072 101.672 215.864C101.528 215.656 101.272 215.48 100.904 215.336C100.536 215.176 100.056 215.096 99.4636 215.096C98.8716 215.096 98.1756 215.208 97.3756 215.432C96.5916 215.64 96.0156 215.848 95.6476 216.056L95.5516 215.888C96.9756 215.232 98.4236 214.904 99.8956 214.904C101.544 214.904 102.632 215.2 103.16 215.792C103.576 216.256 103.784 216.744 103.784 217.256V225.296C103.784 225.76 103.872 226.12 104.048 226.376C104.24 226.616 104.432 226.744 104.624 226.76L104.888 226.808H105.632V227H104.888ZM98.7196 226.904C99.5676 226.904 100.328 226.616 101 226.04C101.688 225.448 102.056 224.88 102.104 224.336V221.432C101.672 221.4 101.232 221.384 100.784 221.384C100.352 221.384 99.9196 221.408 99.4876 221.456C98.2716 221.6 97.4796 221.872 97.1116 222.272C96.7436 222.672 96.5596 223.224 96.5596 223.928C96.5596 224.056 96.5676 224.2 96.5836 224.36C96.7276 226.056 97.4396 226.904 98.7196 226.904ZM106.952 221.432C106.952 219.352 107.456 217.744 108.464 216.608C109.472 215.472 110.984 214.904 113 214.904C113.944 214.904 114.896 215.144 115.856 215.624V209.024H117.536V225.296C117.536 225.76 117.624 226.12 117.8 226.376C117.992 226.616 118.184 226.744 118.376 226.76L118.64 226.808H119.384V227H117.92C117.264 227 116.76 226.856 116.408 226.568C116.072 226.28 115.896 225.992 115.88 225.704L115.856 225.296V224.912C115.552 225.472 115.048 225.968 114.344 226.4C113.64 226.832 112.808 227.048 111.848 227.048C108.584 226.968 106.952 225.096 106.952 221.432ZM111.872 226.856C112.944 226.856 113.864 226.568 114.632 225.992C115.4 225.416 115.808 224.848 115.856 224.288V215.84C114.72 215.344 113.744 215.096 112.928 215.096C111.504 215.096 110.432 215.656 109.712 216.776C108.992 217.88 108.632 219.432 108.632 221.432C108.632 225.048 109.712 226.856 111.872 226.856Z" fill="white"/>
<ellipse cx="45.5" cy="211" rx="2.5" ry="2" fill="#C21C3A"/>
<path d="M54.5511 238.727C54.3553 239.445 52.4492 239.916 51.8374 240.274C51.2731 240.604 49.6408 241.71 51.3031 240.977C51.4873 240.895 54.5366 239.329 53.5106 239.261C52.3168 239.182 49.9603 239.553 49.9955 241.173C50.0073 241.717 56.0185 240.277 56.6742 240.049C57.4265 239.786 57.2111 239.712 56.5969 240.035C56.0737 240.309 54.5649 241.224 55.1135 241.005C56.3651 240.504 57.5374 239.629 58.727 239.001C59.9302 238.366 61.1698 237.821 62.3968 237.236C64.4163 236.275 58.4762 239.398 56.4492 240.344C55.133 240.958 58.2217 237.979 59.416 237.152C59.6856 236.965 59.0826 237.872 59.0223 237.989C58.8307 238.358 59.4268 238.198 59.5987 238.164C60.3591 238.016 61.1946 237.872 61.9117 237.574C62.4311 237.358 62.7659 236.929 63.1841 236.576C63.5002 236.309 63.9787 236.142 64.2457 235.83C64.4121 235.636 63.4852 235.688 63.4091 235.69C62.3072 235.715 61.0326 236.224 60.0487 236.702C59.0025 237.211 57.9289 237.582 56.8148 237.94C55.6001 238.329 54.0233 238.552 52.9341 239.261C52.1077 239.799 52.5111 241.903 52.5826 242.65C52.7019 243.896 53.2928 245.878 54.3261 246.713C55.0756 247.319 56.7991 246.474 57.1241 245.743C57.6762 244.501 56.422 244.234 55.4931 244.295C54.5504 244.357 53.7918 245.401 53.7918 246.291C53.7918 246.922 55.7934 245.751 55.9852 245.335C56.7406 243.699 53.4547 243.639 52.7232 243.718C52.5711 243.735 51.0361 244.27 51.8515 244.449C52.5247 244.597 53.2604 244.674 53.9465 244.674C56.0307 244.674 58.3502 243.267 60.1893 244.646C61.0993 245.329 62.5962 246.472 62.5233 247.711C62.4929 248.228 58.8284 247.335 58.7411 247.332C58.013 247.309 58.0667 247.269 57.9959 246.516C57.9584 246.118 57.7269 244.702 58.1224 244.421C58.5773 244.099 58.2677 247.022 59.2894 247.079C59.6905 247.101 61.0084 246.139 61.1032 246.249C61.4444 246.647 60.3474 246.507 60.2596 246.46C58.5988 245.564 57.024 243.845 55.8446 242.397C55.3726 241.817 54.9162 241.297 54.3261 240.836C54.1011 240.66 53.785 240.504 54.2417 240.499C55.9349 240.479 57.6909 240.376 59.3738 240.597C60.0174 240.681 60.6469 240.625 61.2719 240.47C64.0933 239.772 67.0112 239.614 69.7363 238.53C71.3201 237.9 72.5646 236.787 74.0388 235.971C75.486 235.17 76.7909 234.139 78.1725 233.257C78.9075 232.788 79.5434 232.3 80.1691 231.697C80.5673 231.313 81.0877 230.81 81.6032 230.6C82.2795 230.325 82.862 230.012 83.6279 229.995C84.0052 229.987 85.6643 229.293 85.6807 229.869C85.6972 230.444 85.8926 231.531 85.5542 232.048C85.2178 232.563 84.9541 233.237 84.5137 233.693C83.9034 234.326 83.4246 234.865 82.6156 235.212C80.8119 235.985 78.6453 236.532 76.6962 236.78C75.8211 236.89 74.9563 237.074 74.0809 237.18C73.6177 237.237 74.0347 236.991 74.2075 236.871C75.9713 235.646 78.1416 234.955 80.0285 233.925C81.2534 233.257 82.2442 232.501 83.3256 231.655C83.4721 231.54 84.0225 230.894 83.881 231.036C83.3005 231.616 83.0811 232.383 82.8968 233.166C82.7066 233.974 82.2945 234.704 81.772 235.345C81.5936 235.564 80.6132 236.076 80.6542 235.83C80.7225 235.42 80.0067 236.366 79.7613 236.702C79.4232 237.165 79.1681 237.674 79.1075 238.249C78.9926 239.34 82.0805 238.703 82.6226 238.671C83.0326 238.646 84.209 238.536 83.8529 238.741C82.5518 239.489 81.2204 240.189 79.8949 240.892C79.8419 240.92 77.8135 242.031 79.0161 241.539C80.5771 240.901 82.1859 240.483 83.8599 240.274C84.8513 240.15 82.9143 241.764 83.6701 241.539C84.7415 241.22 85.7673 240.981 86.8899 240.906C87.0371 240.896 88.0786 240.677 87.7898 241.11C87.7018 241.242 86.8952 242.137 87.0587 242.284C87.2322 242.44 88.4731 241.837 88.7248 241.792C89.4269 241.667 89.4689 242.402 89.3435 242.966C89.215 243.544 87.4905 243.282 87.0727 243.282C85.4168 243.282 83.5378 243.201 81.9196 242.847C80.8912 242.622 80.0157 242.055 79.0232 241.715C77.4485 241.174 75.3042 240.865 75.3042 242.973C75.3042 244.029 76.4179 244.232 77.2375 244.604C77.941 244.924 78.3534 245.371 78.9107 245.87C79.5224 246.417 79.3668 247.464 78.531 247.641C77.0573 247.954 75.3408 247.431 74.0458 246.762C72.8909 246.166 71.595 245.744 70.4815 245.103C69.8143 244.72 69.1281 244.492 68.4146 244.21C67.3511 243.79 66.3472 243.246 65.2229 242.994C65.0718 242.96 63.55 242.927 63.6763 242.579C63.816 242.195 64.5806 242.12 64.8995 242.073C66.2655 241.874 67.6337 241.75 68.9981 241.518C70.0221 241.344 71.0932 241.249 72.0984 240.977C72.9853 240.736 73.8332 240.374 74.7207 240.133C75.8965 239.814 77.1693 239.575 77.9546 238.544C78.0721 238.39 78.4924 238.259 78.3553 238.122C78.0854 237.852 76.2855 239.132 76.0916 239.261C74.2569 240.488 72.459 241.759 70.4955 242.776C69.9397 243.064 69.4212 243.364 68.9419 243.768C68.6658 244 69.6477 243.61 69.9894 243.493C72.9227 242.494 75.9276 241.722 78.9247 240.941C80.1375 240.626 81.4536 240.391 82.5734 239.795C83.2378 239.442 82.647 239.562 82.3133 239.683C81.8394 239.854 81.4203 239.986 80.9143 239.992C78.7228 240.019 76.5285 240.009 74.3481 239.767C74.3018 239.762 73.0052 239.724 72.9913 239.514C72.9523 238.93 74.0597 238.437 74.4465 238.249C74.915 238.021 76.437 237.715 75.9158 237.715C75.0224 237.715 74.1224 237.789 73.2514 237.996C73.195 238.009 71.8364 238.459 71.9578 238.537C72.4052 238.825 73.22 238.835 73.7294 238.952C75.1946 239.288 75.2722 239.982 74.573 241.258C74.5123 241.369 73.8348 242.371 74.3762 242.073C75.415 241.502 76.3129 240.624 77.1602 239.81C77.6546 239.334 79.9258 237.192 78.3412 236.604C77.5969 236.327 76.1604 236.235 75.8385 237.166C75.6169 237.807 75.4091 239.435 75.9369 239.992C76.034 240.095 76.1367 240.062 76.2322 240.126C76.4541 240.274 75.7991 240.437 75.5854 240.597C74.2527 241.591 72.9716 243.149 72.0703 244.548C71.5464 245.361 71.6973 246.069 72.7452 245.504C73.5739 245.057 74.6769 243.778 74.6504 242.783C74.6093 241.244 70.9951 241.882 70.2284 242.031C70.1762 242.041 66.5927 243.387 66.7836 243.564C67.2135 243.962 68.2347 243.789 68.738 243.789C69.6606 243.789 70.6013 243.739 71.5219 243.817C72.5222 243.902 73.5002 244.309 74.4324 244.646C74.8962 244.814 75.7218 244.946 76.0916 245.279C76.2928 245.46 76.5354 245.734 76.7524 245.87C77.1045 246.09 77.0369 246.297 77.4554 246.32C77.7516 246.335 77.9452 246.708 78.06 246.952C78.1822 247.212 76.9401 246.866 76.7946 246.769C76.117 246.318 75.3907 245.665 74.7699 245.124C73.8237 244.301 73.4178 243.655 73.5607 242.326C73.7609 240.465 76.1162 240.107 77.6101 239.852C79.4994 239.529 81.1355 239.782 82.8687 240.442C84.7927 241.175 79.9364 241.134 79.8668 241.448C79.7099 242.154 84.1951 242.017 84.7106 242.017C85.6011 242.017 86.3783 241.888 87.136 242.326C87.3926 242.475 87.871 242.736 88.1554 242.769C88.4626 242.805 88.7234 242.754 88.9779 242.966C89.151 243.11 89.4654 242.998 89.6739 243.036C89.9989 243.096 90.1185 243.282 90.4894 243.282C91.024 243.282 90.869 242.881 90.869 242.418C90.869 241.673 90.4278 241.296 89.8215 240.892C89.3299 240.564 89.069 239.992 88.4085 239.992C87.6237 239.992 86.7479 239.726 85.969 239.613C84.596 239.414 83.1741 239.233 81.786 239.233C80.6092 239.233 81.5439 238.45 82.1305 238.115C82.7709 237.749 83.4868 237.737 84.2044 237.686C84.2434 237.684 85.409 237.553 85.3784 237.518C84.9552 237.024 82.7197 237.345 82.1938 237.363C80.7641 237.411 79.3859 237.651 78.0038 238.01C76.5463 238.388 78.4669 237.694 78.8826 237.581C80.467 237.149 82.251 237.042 83.874 236.829C86.1118 236.535 88.221 236.258 90.2855 235.317C91.5474 234.742 92.7881 234.118 94.0467 233.546C95.0944 233.069 96.2198 232.591 97.3087 232.217C97.8583 232.028 98.3414 231.682 98.9045 231.521C100.608 231.034 102.329 231.187 104.072 231.008C105.191 230.893 106.551 231.009 107.566 230.438C107.73 230.346 107.846 230.252 108.037 230.22C108.505 230.142 107.609 230.665 107.559 230.698C106.591 231.336 105.856 231.926 104.775 232.336C104.011 232.627 103.251 232.88 102.497 233.173C101.424 233.59 100.326 233.788 99.235 234.164C98.5723 234.393 97.9343 234.644 97.2946 234.931C96.3189 235.368 96.9681 234.992 97.5126 234.713C99.1538 233.872 100.716 233.029 102.23 231.978C102.64 231.693 102.754 231.585 102.103 231.697C100.172 232.027 98.3936 233.057 96.6549 233.904C94.8352 234.791 92.9651 235.643 91.3049 236.815C90.8919 237.106 90.176 237.594 90.0113 238.129C89.979 238.234 90.0561 238.198 90.1379 238.172C90.858 237.939 91.5798 237.545 92.261 237.236C93.8293 236.526 93.5149 236.667 95.059 235.971C95.5099 235.768 96.4111 235.495 96.8377 235.149C97.8051 234.363 94.4413 235.86 93.3015 236.365C92.2771 236.818 91.2405 237.453 90.1379 237.708C89.4114 237.875 89.6036 237.452 89.6036 236.787C89.6036 236.173 88.4374 236.392 87.9726 236.463C87.3229 236.563 87.3242 236.955 88.0007 236.955C88.8087 236.955 89.685 236.949 88.9076 237.89C88.3578 238.556 88.8832 238.562 89.5825 238.727C90.1524 238.861 90.5129 239.098 90.862 239.556C91.215 240.02 91.6123 240.554 91.7548 241.124C91.8829 241.636 92.1088 241.475 92.3243 241.061C92.7503 240.242 93.3931 239.479 94.4263 239.76C94.9097 239.892 95.0686 240.383 95.1645 240.815C95.2757 241.316 95.6802 241.344 96.0573 241.637C96.4987 241.981 96.8285 242.228 97.2032 242.65C97.6511 243.154 98.2162 243.823 98.8413 244.084C100.105 244.61 101.53 244.548 102.87 244.548C103.916 244.548 105.338 244.781 106.118 243.943C106.933 243.067 107.114 241.812 107.06 240.667C107.013 239.69 106.813 241.653 106.813 241.94C106.813 242.804 107.179 243.656 107.517 244.428C107.937 245.39 107.45 245.354 106.617 245.687C105.999 245.934 105.202 245.813 104.55 245.813C103.801 245.813 103.387 245.377 102.884 244.857C101.147 243.063 100.135 240.79 98.6725 238.783C98.132 238.042 98.1711 236.65 99.0662 236.224C99.6629 235.941 100.234 235.765 100.739 235.31C101.092 234.993 101.213 234.889 100.486 234.832C99.0834 234.723 97.7094 235.477 96.4369 235.971C95.3681 236.386 94.0709 237.249 93.428 238.221C93.2479 238.493 92.2787 239.557 92.4297 239.5C92.9174 239.318 96.4772 237.864 96.3807 237.236C96.297 236.692 91.7314 238.054 91.1643 238.516C90.6473 238.937 91.6444 238.709 91.7619 238.685C93.5197 238.325 95.2164 237.731 96.9009 237.124C97.293 236.983 98.3999 236.326 98.0117 237.236C97.5905 238.225 96.898 239.202 96.0854 239.908C95.0369 240.819 94.0678 240.172 92.9218 240.625C92.4631 240.806 92.3002 241.036 91.7548 241.005C91.4599 240.988 91.465 240.707 91.5439 240.47C91.7639 239.81 92.4411 239.411 93.0203 239.107C94.2663 238.451 95.6082 237.733 97.0134 237.49C97.6436 237.381 97.59 237.907 97.5758 238.404C97.5153 240.522 94.1265 240.306 92.6406 240.948C92.4429 241.034 91.8378 241.269 91.6283 241.258C90.928 241.219 92.2412 240.002 92.3454 239.936C92.6681 239.731 94.7526 238.798 93.5967 239.669C93.1552 240.002 92.7039 240.336 92.2188 240.604C92.0024 240.723 91.7106 240.765 91.558 240.977C91.2621 241.388 92.5741 241.312 92.7672 241.23C93.645 240.853 94.4783 240.417 95.3824 240.091C96.2282 239.786 97.1103 239.585 97.9976 239.444C98.5005 239.364 98.3287 239.852 98.3913 240.231C98.4834 240.789 98.7898 241.683 99.474 241.764C99.7044 241.791 99.93 242.201 99.8958 242.186C99.4223 241.975 98.9804 241.384 98.5811 241.061C98.0468 240.628 97.5592 240.139 96.9994 239.739C96.9539 239.707 96.3635 239.247 96.3455 239.346C96.279 239.712 96.8161 240.372 97.0134 240.639C97.75 241.635 98.8349 242.69 100.114 242.903C100.381 242.947 100.623 243.006 100.866 243.128C100.952 243.171 99.8808 243.156 99.8747 243.156C99.3763 243.156 98.1385 243.382 97.7586 242.917C97.6288 242.758 97.419 242.201 97.8149 242.333C100.199 243.128 102.451 244.573 105.077 244.091C106.53 243.824 106.643 241.94 106.49 240.759C106.448 240.433 105.984 239.451 106.209 239.114C106.432 238.779 107.679 238.977 108.009 239.043C109.195 239.281 110.271 239.904 111.489 239.985C111.76 240.003 112.496 240.109 112.684 239.859C112.948 239.506 112.933 238.825 112.874 238.425C112.744 237.552 111.435 237.7 110.821 237.581C109.331 237.293 107.827 237.229 106.328 237.019C105.248 236.867 104.33 236.486 103.291 236.252C102.294 236.028 99.2594 235.584 100.275 235.697C102.695 235.966 105.016 236.479 107.327 237.201C108.276 237.498 109.144 237.857 109.977 238.404C110.399 238.68 110.928 239.068 111.418 239.219C111.586 239.271 112.09 239.315 112.121 239.092C112.295 237.878 109.161 238 108.515 237.982C106.456 237.922 104.416 238.082 102.37 238.291C101.272 238.404 100.016 238.397 98.9889 238.868C98.8095 238.95 97.8455 239.579 98.4616 239.781C99.3585 240.077 100.562 239.566 101.33 239.156C102.142 238.722 102.923 238.178 101.625 237.785C101.013 237.599 100.108 237.443 99.488 237.377C99.0489 237.33 97.6941 237.11 97.2384 237.405C97.0375 237.535 97.6969 237.552 97.9344 237.581C98.7585 237.682 99.5866 237.707 100.416 237.715C100.702 237.717 102.72 237.443 102.167 238.052C101.928 238.314 99.369 241.022 100.957 240.59C101.573 240.423 102.487 240.078 103.045 239.873C103.43 239.732 103.813 239.584 104.198 239.444C104.459 239.35 105.117 238.968 105 239.219C104.874 239.488 104.543 239.598 104.311 239.781C103.673 240.285 103.042 240.793 102.413 241.307C101.173 242.32 102.593 240.635 102.848 240.386C104.163 239.107 103.845 240.315 103.39 241.307C103.375 241.339 102.299 243.168 102.778 242.664C102.887 242.549 103.772 241.638 103.861 242.172C103.948 242.692 103.627 242.544 103.762 241.806C103.794 241.632 104.404 239.434 104.374 240.231C104.344 241.039 103.958 241.888 104.03 242.692C104.035 242.755 105.137 241.416 105.253 241.258C106.477 239.581 104.915 243.474 104.915 243.275C104.915 242.553 104.857 242.289 104.789 242.017" stroke="#59AD44" stroke-width="2"/>
<path d="M47.3296 242.214C47.4876 241.345 48.6934 240.76 49.341 240.303C51.2292 238.973 53.2709 237.918 55.3865 236.996C57.0328 236.278 58.7472 235.89 60.471 235.42C61.7971 235.058 63.3079 234.933 64.5833 234.481C64.7203 234.433 65.3606 233.918 65.4214 234.314C65.5761 235.319 65.3969 236.471 64.7956 237.297C63.1956 239.497 59.9188 240.235 57.6215 241.499C57.5126 241.559 56.9195 242.013 57.3868 242.013C58.9156 242.013 60.674 241.049 62.0355 240.471C65.3141 239.078 68.8426 237.987 72.0033 236.359C74.5999 235.021 77.0606 233.268 79.3339 231.442C80.6821 230.358 82.0175 229.799 83.6361 229.24C84.2751 229.02 85.7181 228.296 86.441 228.559C87.1419 228.814 86.955 230.412 86.955 230.928C86.955 232.601 85.8814 233.389 84.6307 234.37C83.6749 235.119 82.738 236.083 81.7253 236.739C81.5254 236.868 82.169 236.565 82.3957 236.493C83.4041 236.17 84.4276 235.968 85.4576 235.733C90.5151 234.578 95.2844 232.664 100.208 231.084C101.689 230.609 103.258 230.528 104.779 230.235C106.386 229.925 107.992 229.488 109.628 229.352C110.516 229.278 109.867 230.522 109.55 230.838C108.861 231.528 107.751 232.198 106.812 232.47C105.322 232.901 103.963 233.535 102.533 234.124C101.874 234.394 101.209 234.595 100.521 234.772C100.508 234.775 99.7405 234.985 99.8059 235.018C101.622 235.926 104.674 235.375 106.622 235.375C107.862 235.375 108.964 235.246 110.087 235.778C111.487 236.441 113.383 236.301 113.808 238.001C114.335 240.112 113.058 241.611 110.88 241.611C109.902 241.611 109.388 241.537 108.522 241.052C108.212 240.878 106.213 239.492 106.913 240.694C107.497 241.698 110.27 244.901 108.377 245.946C104.575 248.047 101.403 246.683 98.3308 244.136C95.2308 241.566 91.716 239.967 88.1395 238.191C88.088 238.166 85.6329 236.823 86.0387 237.476C87.257 239.436 90.8764 239.507 91.6819 241.745C93.4963 246.785 82.6479 243.692 80.9207 243.332C79.441 243.023 77.8702 242.716 76.4285 242.259C76.0968 242.154 74.0231 241.132 75.0204 241.7C76.8342 242.733 80.4486 244.128 80.5184 246.639C80.5276 246.972 80.5797 247.397 80.5072 247.723C80.3835 248.28 75.949 247.683 75.501 247.6C71.629 246.889 67.8152 245.228 64.2034 243.712C63.8451 243.561 60.9593 242.153 61.2532 243.108C61.788 244.846 63.9713 245.694 63.8234 247.69C63.7089 249.236 59.8335 248.651 58.9066 248.651C57.5662 248.651 56.6953 248.112 55.4759 247.645C54.4332 247.246 53.0397 246.864 52.2576 246.036C51.4131 245.142 50.1807 244.663 49.341 243.823C48.8474 243.33 48.1322 243.217 47.7319 242.616" stroke="#59AD44" stroke-width="2"/>
<path d="M40 239.269C41.7023 240.49 44.5305 240.995 46.6917 241.508C49.0994 242.078 51.3413 241.996 53.8487 241.996C56.6995 241.996 59.4787 241.948 62.2023 241.238C65.2149 240.454 68.3279 239.809 71.42 239.235C75.9676 238.391 80.442 237.076 85.1248 236.702C88.411 236.439 91.7825 236.12 95.0848 236.088C97.9977 236.059 101.335 235.737 104.103 236.542C105.575 236.97 107.896 237.521 109 238.36" stroke="white"/>
<rect x="19" y="338" width="137" height="71" rx="9" fill="white" stroke="#812199" stroke-width="4"/>
<path d="M55.8977 351.545L59.4773 363.852H59.6136L63.1932 351.545H68.5455L62.7841 369H56.3068L50.5455 351.545H55.8977ZM79.7464 351.545V369H75.0078V351.545H79.7464ZM86.7734 369V351.545H91.5121V365.182H98.5689V369H86.7734ZM111.982 369H105.266V351.545H111.913C113.709 351.545 115.26 351.895 116.567 352.594C117.879 353.287 118.891 354.287 119.601 355.594C120.317 356.895 120.675 358.455 120.675 360.273C120.675 362.091 120.32 363.653 119.609 364.96C118.899 366.261 117.893 367.261 116.592 367.96C115.291 368.653 113.754 369 111.982 369ZM110.004 364.977H111.811C112.675 364.977 113.411 364.838 114.018 364.56C114.632 364.281 115.098 363.801 115.416 363.119C115.74 362.437 115.902 361.489 115.902 360.273C115.902 359.057 115.737 358.108 115.408 357.426C115.084 356.744 114.607 356.264 113.976 355.986C113.351 355.707 112.584 355.568 111.675 355.568H110.004V364.977Z" fill="#2D5C21"/>
<path d="M54.125 379.545H60.0227L64.0795 389.432H64.2841L68.3409 379.545H74.2386V397H69.6023V386.909H69.4659L65.5795 396.864H62.7841L58.8977 386.841H58.7614V397H54.125V379.545ZM85.7997 397H80.6861L86.4474 379.545H92.9247L98.6861 397H93.5724L89.7543 384.352H89.6179L85.7997 397ZM84.8452 390.114H94.4588V393.659H84.8452V390.114ZM111.864 397H105.148V379.545H111.796C113.592 379.545 115.143 379.895 116.45 380.594C117.762 381.287 118.773 382.287 119.484 383.594C120.2 384.895 120.558 386.455 120.558 388.273C120.558 390.091 120.202 391.653 119.492 392.96C118.782 394.261 117.776 395.261 116.475 395.96C115.174 396.653 113.637 397 111.864 397ZM109.887 392.977H111.694C112.558 392.977 113.293 392.838 113.901 392.56C114.515 392.281 114.981 391.801 115.299 391.119C115.623 390.437 115.785 389.489 115.785 388.273C115.785 387.057 115.62 386.108 115.29 385.426C114.967 384.744 114.489 384.264 113.859 383.986C113.234 383.707 112.467 383.568 111.558 383.568H109.887V392.977Z" fill="#649A57"/>
<rect x="74" y="326" width="28" height="20" fill="white"/>
<path d="M107.635 316.99C107.39 324.534 106.764 324.449 101.686 329.96C96.6079 335.472 91.0383 338.601 89.2457 336.95C87.4532 335.298 90.1165 329.491 95.1945 323.98C102.878 318.097 104.103 317.812 107.635 316.99Z" fill="#649A57"/>
<path d="M66.257 316.99C66.5017 324.534 67.1278 324.449 72.2057 329.96C77.2837 335.472 82.8533 338.601 84.6459 336.95C86.4384 335.298 83.7751 329.491 78.6971 323.98C71.0133 318.097 69.7881 317.812 66.257 316.99Z" fill="#649A57"/>
<line x1="37" y1="373.5" x2="137" y2="373.5" stroke="#FF9C42"/>
<path d="M243.181 141.299C246.217 140.489 248.232 140.46 251.136 140.459C249.524 146.455 248.459 149.347 246.549 151.612C245.577 152.765 244.379 153.763 242.757 154.926C241.743 155.653 240.572 156.438 239.193 157.362C238.361 157.92 237.453 158.529 236.458 159.206C231.202 162.784 225.98 165.324 221.792 166.543C219.697 167.153 217.874 167.428 216.442 167.345C215.005 167.262 214.009 166.823 213.489 166.058C212.968 165.294 212.925 164.206 213.375 162.839C213.823 161.476 214.747 159.881 216.083 158.156C218.749 154.71 223.021 150.789 228.268 147.214C235.759 143.827 240.024 142.14 243.181 141.299Z" fill="#2D5C21" stroke="#23461B" stroke-width="0.5"/>
<path d="M234.527 223.347C234.527 252.954 217.396 276.956 196.264 276.956C175.131 276.956 158 252.954 158 223.347C158 193.74 175.131 169.739 196.264 169.739C217.396 169.739 234.527 193.74 234.527 223.347Z" fill="#2D5C21"/>
<path d="M270.322 223.347C270.322 252.954 253.191 276.956 232.059 276.956C210.926 276.956 193.795 252.954 193.795 223.347C193.795 193.74 210.926 169.739 232.059 169.739C253.191 169.739 270.322 193.74 270.322 223.347Z" fill="#2D5C21"/>
<rect x="191.032" y="221.515" width="8.82172" height="2.53145" transform="rotate(-4.68414 191.032 221.515)" fill="white"/>
<rect x="186.101" y="219.093" width="10.5541" height="1.84026" transform="rotate(28.26 186.101 219.093)" fill="white"/>
<rect x="185.793" y="219.066" width="17.3496" height="2.76045" transform="rotate(0.535849 185.793 219.066)" fill="white"/>
<rect width="12.3015" height="2.40086" transform="matrix(-0.880808 0.473473 0.473473 0.880808 202.873 219.093)" fill="white"/>
<rect x="185.399" y="220.828" width="16.5167" height="3.40371" transform="rotate(-90 185.399 220.828)" fill="white"/>
<rect x="192.75" y="220.836" width="16.3794" height="3.17222" transform="rotate(-90 192.75 220.836)" fill="white"/>
<rect x="200.712" y="220.827" width="16.0877" height="3.37764" transform="rotate(-90 200.712 220.827)" fill="white"/>
<rect x="195.441" y="223.793" width="53.117" height="3.40371" transform="rotate(89.9856 195.441 223.793)" fill="white"/>
<rect x="233.44" y="225.9" width="51.0104" height="3.08508" transform="rotate(89.9856 233.44 225.9)" fill="white"/>
<ellipse cx="232.03" cy="216.54" rx="7.65834" ry="12.7639" fill="white"/>
<path d="M266.794 523.914C267.059 524.84 266.582 525.948 265.454 527.009C264.337 528.059 262.631 529.007 260.6 529.588C258.568 530.17 256.619 530.268 255.115 529.968C253.597 529.666 252.606 528.977 252.341 528.052C252.076 527.126 252.553 526.018 253.681 524.957C254.798 523.907 256.504 522.959 258.535 522.378C260.567 521.796 262.516 521.698 264.02 521.998C265.538 522.3 266.529 522.989 266.794 523.914Z" fill="#2D5C21" stroke="#23461B" stroke-width="0.5"/>
<path d="M166.324 551.689C166.746 552.555 166.47 553.729 165.543 554.969C164.625 556.198 163.11 557.428 161.211 558.354C159.311 559.28 157.409 559.716 155.876 559.682C154.328 559.648 153.233 559.142 152.811 558.276C152.389 557.411 152.665 556.236 153.592 554.996C154.51 553.768 156.025 552.538 157.924 551.612C159.824 550.686 161.726 550.25 163.259 550.284C164.807 550.318 165.902 550.824 166.324 551.689Z" fill="#2D5C21" stroke="#23461B" stroke-width="0.5"/>
<path d="M236.781 553.372C236.494 554.291 235.487 554.956 233.962 555.222C232.452 555.486 230.506 555.342 228.489 554.712C226.471 554.082 224.788 553.094 223.696 552.018C222.594 550.931 222.144 549.812 222.431 548.893C222.717 547.974 223.724 547.309 225.249 547.042C226.76 546.778 228.706 546.923 230.723 547.553C232.74 548.182 234.423 549.17 235.515 550.247C236.618 551.333 237.068 552.453 236.781 553.372Z" fill="#2D5C21" stroke="#23461B" stroke-width="0.5"/>
<path d="M110.551 535.736C110.955 536.609 110.654 537.778 109.703 538.999C108.76 540.208 107.22 541.407 105.302 542.294C103.384 543.181 101.474 543.578 99.9416 543.513C98.3949 543.448 97.3101 542.92 96.906 542.046C96.5018 541.172 96.802 540.003 97.7536 538.782C98.6963 537.573 100.236 536.374 102.154 535.487C104.072 534.6 105.983 534.203 107.515 534.268C109.062 534.334 110.146 534.862 110.551 535.736Z" fill="#2D5C21" stroke="#23461B" stroke-width="0.5"/>
<path d="M140.386 519.909L135.989 533H130.534L126.136 519.909H131.08L133.193 528.568H133.33L135.443 519.909H140.386ZM141.724 533V519.909H146.429V533H141.724ZM144.077 518.545C143.44 518.545 142.895 518.335 142.44 517.915C141.986 517.494 141.759 516.989 141.759 516.398C141.759 515.807 141.986 515.301 142.44 514.881C142.895 514.46 143.44 514.25 144.077 514.25C144.719 514.25 145.264 514.46 145.713 514.881C146.168 515.301 146.395 515.807 146.395 516.398C146.395 516.989 146.168 517.494 145.713 517.915C145.264 518.335 144.719 518.545 144.077 518.545ZM153.531 515.545V533H148.826V515.545H153.531ZM160.666 533.17C159.734 533.17 158.876 532.926 158.092 532.438C157.314 531.949 156.689 531.207 156.217 530.213C155.751 529.219 155.518 527.966 155.518 526.455C155.518 524.875 155.763 523.591 156.251 522.602C156.746 521.614 157.382 520.889 158.161 520.429C158.945 519.969 159.768 519.739 160.632 519.739C161.28 519.739 161.848 519.852 162.337 520.08C162.825 520.301 163.234 520.599 163.564 520.974C163.893 521.344 164.143 521.75 164.314 522.193H164.382V515.545H169.087V533H164.416V530.852H164.314C164.132 531.295 163.871 531.693 163.53 532.045C163.195 532.392 162.786 532.668 162.303 532.872C161.825 533.071 161.28 533.17 160.666 533.17ZM162.405 529.557C162.837 529.557 163.206 529.432 163.513 529.182C163.825 528.926 164.064 528.568 164.229 528.108C164.399 527.642 164.484 527.091 164.484 526.455C164.484 525.807 164.399 525.253 164.229 524.793C164.064 524.327 163.825 523.972 163.513 523.727C163.206 523.477 162.837 523.352 162.405 523.352C161.973 523.352 161.604 523.477 161.297 523.727C160.996 523.972 160.763 524.327 160.598 524.793C160.439 525.253 160.359 525.807 160.359 526.455C160.359 527.102 160.439 527.659 160.598 528.125C160.763 528.585 160.996 528.94 161.297 529.19C161.604 529.435 161.973 529.557 162.405 529.557ZM176.178 533V519.909H180.643V522.398H180.78C181.053 521.58 181.518 520.932 182.178 520.455C182.837 519.977 183.621 519.739 184.53 519.739C185.45 519.739 186.243 519.983 186.908 520.472C187.572 520.955 187.973 521.597 188.109 522.398H188.246C188.467 521.597 188.939 520.955 189.661 520.472C190.382 519.983 191.229 519.739 192.2 519.739C193.456 519.739 194.473 520.142 195.251 520.949C196.036 521.756 196.428 522.83 196.428 524.17V533H191.723V525.364C191.723 524.79 191.578 524.341 191.288 524.017C190.999 523.687 190.609 523.523 190.121 523.523C189.638 523.523 189.254 523.687 188.97 524.017C188.692 524.341 188.553 524.79 188.553 525.364V533H184.053V525.364C184.053 524.79 183.908 524.341 183.618 524.017C183.328 523.687 182.939 523.523 182.45 523.523C182.126 523.523 181.848 523.597 181.615 523.744C181.382 523.892 181.2 524.105 181.07 524.384C180.945 524.656 180.882 524.983 180.882 525.364V533H176.178ZM202.396 533.205C201.56 533.205 200.822 533.068 200.18 532.795C199.543 532.517 199.043 532.097 198.68 531.534C198.316 530.972 198.134 530.256 198.134 529.386C198.134 528.67 198.256 528.06 198.501 527.554C198.745 527.043 199.086 526.625 199.523 526.301C199.961 525.977 200.469 525.73 201.049 525.56C201.634 525.389 202.265 525.278 202.941 525.227C203.674 525.17 204.262 525.102 204.705 525.023C205.154 524.937 205.478 524.821 205.677 524.673C205.876 524.52 205.975 524.318 205.975 524.068V524.034C205.975 523.693 205.844 523.432 205.583 523.25C205.322 523.068 204.987 522.977 204.577 522.977C204.129 522.977 203.762 523.077 203.478 523.276C203.2 523.469 203.032 523.767 202.975 524.17H198.646C198.702 523.375 198.955 522.642 199.404 521.972C199.859 521.295 200.521 520.756 201.39 520.352C202.259 519.943 203.344 519.739 204.646 519.739C205.583 519.739 206.424 519.849 207.168 520.071C207.913 520.287 208.546 520.591 209.069 520.983C209.592 521.369 209.989 521.824 210.262 522.347C210.54 522.864 210.68 523.426 210.68 524.034V533H206.282V531.159H206.18C205.918 531.648 205.6 532.043 205.225 532.344C204.856 532.645 204.433 532.864 203.955 533C203.484 533.136 202.964 533.205 202.396 533.205ZM203.93 530.239C204.288 530.239 204.623 530.165 204.935 530.017C205.254 529.869 205.512 529.656 205.711 529.378C205.91 529.099 206.009 528.761 206.009 528.364V527.273C205.884 527.324 205.751 527.372 205.609 527.418C205.472 527.463 205.325 527.506 205.165 527.545C205.012 527.585 204.847 527.622 204.671 527.656C204.501 527.69 204.322 527.722 204.134 527.75C203.771 527.807 203.472 527.901 203.239 528.031C203.012 528.156 202.842 528.312 202.728 528.5C202.62 528.682 202.566 528.886 202.566 529.114C202.566 529.477 202.694 529.756 202.95 529.949C203.205 530.142 203.532 530.239 203.93 530.239ZM217.666 533.17C216.734 533.17 215.876 532.926 215.092 532.438C214.314 531.949 213.689 531.207 213.217 530.213C212.751 529.219 212.518 527.966 212.518 526.455C212.518 524.875 212.763 523.591 213.251 522.602C213.746 521.614 214.382 520.889 215.161 520.429C215.945 519.969 216.768 519.739 217.632 519.739C218.28 519.739 218.848 519.852 219.337 520.08C219.825 520.301 220.234 520.599 220.564 520.974C220.893 521.344 221.143 521.75 221.314 522.193H221.382V515.545H226.087V533H221.416V530.852H221.314C221.132 531.295 220.871 531.693 220.53 532.045C220.195 532.392 219.786 532.668 219.303 532.872C218.825 533.071 218.28 533.17 217.666 533.17ZM219.405 529.557C219.837 529.557 220.206 529.432 220.513 529.182C220.825 528.926 221.064 528.568 221.229 528.108C221.399 527.642 221.484 527.091 221.484 526.455C221.484 525.807 221.399 525.253 221.229 524.793C221.064 524.327 220.825 523.972 220.513 523.727C220.206 523.477 219.837 523.352 219.405 523.352C218.973 523.352 218.604 523.477 218.297 523.727C217.996 523.972 217.763 524.327 217.598 524.793C217.439 525.253 217.359 525.807 217.359 526.455C217.359 527.102 217.439 527.659 217.598 528.125C217.763 528.585 217.996 528.94 218.297 529.19C218.604 529.435 218.973 529.557 219.405 529.557Z" fill="black"/>
<path d="M98 528.518C98.1767 522.808 106.097 519.731 109.617 524.865C111.323 527.353 111.096 530.235 112.569 532.652C116.209 538.624 120.548 545.491 127.804 547.362C133.649 548.869 137.519 544.713 142.564 542.747C146.824 541.087 151.678 538.901 156.276 538.901C162.964 538.901 168.988 546.607 172.368 551.88C175.41 556.628 184.951 544.886 186.746 542.555C188.354 540.468 193.487 539.767 196.078 539.767C201.474 539.767 207.667 544.938 212.456 547.17C216.027 548.834 220.771 547.523 222.74 544.285C223.901 542.377 224.074 537.587 225.216 536.306C229.063 531.99 236.211 532.844 241.308 532.844C242.551 532.844 246.345 533.588 247.307 532.268C249.749 528.915 248.831 522.917 248.831 519" stroke="#723F38" stroke-width="3" stroke-linecap="round"/>
<line x1="252.708" y1="528.683" x2="266.708" y2="523.683" stroke="#23461B" stroke-width="0.5"/>
<line x1="152.516" y1="559.052" x2="165.433" y2="551.695" stroke="#23461B" stroke-width="0.5"/>
<line x1="222.076" y1="548.762" x2="236.243" y2="553.266" stroke="#23461B" stroke-width="0.5"/>
<line x1="97.3651" y1="542.614" x2="110.43" y2="535.521" stroke="#23461B" stroke-width="0.5"/>
<path d="M43.28 456.72L36.08 477H31.88L24.68 456.72H29.32L32.8 466.84L34.12 471.04L35.4 466.84L38.72 456.72H43.28ZM51.8409 452.88H47.0009V448.12H51.8409V452.88ZM51.7209 477H47.1209V456.72H51.7209V477ZM57.9384 471.28V447.4H62.5384V471.28C62.5384 471.68 62.6318 472.067 62.8184 472.44C63.0318 472.787 63.4318 472.96 64.0184 472.96H64.6584V477.2H63.5384C62.0184 477.2 60.8584 476.907 60.0584 476.32C59.2584 475.733 58.6984 474.987 58.3784 474.08C58.0851 473.173 57.9384 472.24 57.9384 471.28ZM80.9931 477V474.24C79.7665 475.467 78.6998 476.307 77.7931 476.76C76.9131 477.187 75.9931 477.4 75.0331 477.4C72.8465 477.4 71.1398 476.573 69.9131 474.92C68.7131 473.267 68.1131 470.947 68.1131 467.96V465.8C68.1131 462.893 68.8465 460.587 70.3131 458.88C71.7798 457.173 73.8998 456.32 76.6731 456.32C77.3665 456.32 78.0465 456.387 78.7131 456.52C79.4065 456.653 80.0865 456.84 80.7531 457.08V447.4H85.3531V477H80.9931ZM72.8331 467.96C72.8331 469.747 73.1265 471.053 73.7131 471.88C74.3265 472.707 75.1798 473.12 76.2731 473.12C76.8865 473.12 77.5398 472.947 78.2331 472.6C78.9265 472.227 79.7665 471.533 80.7531 470.52V461.24C79.4465 460.707 78.2465 460.44 77.1531 460.44C75.6065 460.44 74.4998 460.92 73.8331 461.88C73.1665 462.84 72.8331 464.147 72.8331 465.8V467.96Z" fill="#2D5C21"/>
<path d="M104.299 462.96V477H99.6991V456.72H104.059V459.4C105.312 458.307 106.472 457.52 107.539 457.04C108.606 456.56 109.699 456.32 110.819 456.32C113.299 456.32 114.992 457.413 115.899 459.6C117.232 458.427 118.472 457.587 119.619 457.08C120.766 456.573 121.926 456.32 123.099 456.32C124.966 456.32 126.392 456.947 127.379 458.2C128.366 459.427 128.859 461.16 128.859 463.4V477H124.259V463.96C124.259 461.72 123.406 460.6 121.699 460.6C121.032 460.6 120.299 460.76 119.499 461.08C118.699 461.4 117.726 462.027 116.579 462.96V477H111.979V463.96C111.979 461.72 111.126 460.6 109.419 460.6C108.752 460.6 108.019 460.76 107.219 461.08C106.419 461.4 105.446 462.027 104.299 462.96ZM150.293 477.2C148.933 477.2 147.84 476.92 147.013 476.36C146.213 475.8 145.627 475.107 145.253 474.28C144.107 475.347 143 476.133 141.933 476.64C140.867 477.147 139.72 477.4 138.493 477.4C136.707 477.4 135.387 476.827 134.533 475.68C133.707 474.533 133.293 473.08 133.293 471.32C133.293 470.147 133.507 469.12 133.933 468.24C134.387 467.333 135.12 466.627 136.133 466.12C137.147 465.613 138.533 465.36 140.293 465.36C140.987 465.36 141.707 465.413 142.453 465.52C143.2 465.6 143.947 465.707 144.693 465.84V463.48C144.693 462.36 144.387 461.6 143.773 461.2C143.16 460.773 142.333 460.56 141.293 460.56C140.493 460.56 139.613 460.667 138.653 460.88C137.72 461.093 136.707 461.427 135.613 461.88L134.293 457.96C136.987 456.867 139.427 456.32 141.613 456.32C143.587 456.32 145.107 456.653 146.173 457.32C147.267 457.987 148.027 458.867 148.453 459.96C148.88 461.053 149.093 462.227 149.093 463.48V471.28C149.093 471.68 149.2 472.067 149.413 472.44C149.653 472.787 150.107 472.96 150.773 472.96H151.213V477.2H150.293ZM137.733 471.24C137.733 471.96 137.893 472.533 138.213 472.96C138.533 473.36 139 473.56 139.613 473.56C140.227 473.56 140.92 473.4 141.693 473.08C142.467 472.76 143.467 472.013 144.693 470.84V469.12C143.307 468.88 141.947 468.76 140.613 468.76C139.573 468.76 138.827 468.973 138.373 469.4C137.947 469.827 137.733 470.44 137.733 471.24ZM167.087 477V474.24C165.86 475.467 164.794 476.307 163.887 476.76C163.007 477.187 162.087 477.4 161.127 477.4C158.94 477.4 157.234 476.573 156.007 474.92C154.807 473.267 154.207 470.947 154.207 467.96V465.8C154.207 462.893 154.94 460.587 156.407 458.88C157.874 457.173 159.994 456.32 162.767 456.32C163.46 456.32 164.14 456.387 164.807 456.52C165.5 456.653 166.18 456.84 166.847 457.08V447.4H171.447V477H167.087ZM158.927 467.96C158.927 469.747 159.22 471.053 159.807 471.88C160.42 472.707 161.274 473.12 162.367 473.12C162.98 473.12 163.634 472.947 164.327 472.6C165.02 472.227 165.86 471.533 166.847 470.52V461.24C165.54 460.707 164.34 460.44 163.247 460.44C161.7 460.44 160.594 460.92 159.927 461.88C159.26 462.84 158.927 464.147 158.927 465.8V467.96Z" fill="black"/>
</svg>
