<svg width="857" height="351" viewBox="0 0 857 351" fill="none" xmlns="http://www.w3.org/2000/svg">
<rect width="857" height="349" rx="10" fill="#EFECE2"/>
<ellipse cx="417.5" cy="105" rx="63.5" ry="60" fill="#2F2F2F"/>
<path d="M380.816 93.144L380.96 93C381.024 93.032 381.104 93.128 381.2 93.288C381.312 93.448 381.376 93.592 381.392 93.72C381.424 93.848 381.44 93.968 381.44 94.08C381.44 94.512 381.344 94.952 381.152 95.4L376.544 105H376.304L371.84 93H373.52L377.192 102.936L380.912 95.4C381.104 95.064 381.2 94.664 381.2 94.2C381.2 93.736 381.072 93.384 380.816 93.144ZM385.213 105C384.557 105 384.053 104.856 383.701 104.568C383.365 104.28 383.189 103.992 383.173 103.704L383.149 103.296V93H384.829V103.296C384.829 103.76 384.917 104.12 385.093 104.376C385.285 104.616 385.469 104.744 385.645 104.76L385.933 104.808H386.677V105H385.213ZM383.293 90.312C383.101 90.12 383.005 89.88 383.005 89.592C383.005 89.304 383.101 89.064 383.293 88.872C383.485 88.664 383.725 88.56 384.013 88.56C384.301 88.56 384.541 88.664 384.733 88.872C384.941 89.064 385.045 89.304 385.045 89.592C385.045 89.88 384.941 90.12 384.733 90.312C384.541 90.504 384.301 90.6 384.013 90.6C383.725 90.6 383.485 90.504 383.293 90.312ZM391.649 105C390.241 105 389.353 104.632 388.985 103.896C388.905 103.736 388.865 103.592 388.865 103.464V87.024H390.545V103.296C390.545 103.76 390.633 104.12 390.809 104.376C391.001 104.616 391.193 104.744 391.385 104.76L391.649 104.808H392.393V105H391.649ZM393.733 99.432C393.733 97.352 394.237 95.744 395.245 94.608C396.253 93.472 397.765 92.904 399.781 92.904C400.725 92.904 401.677 93.144 402.637 93.624V87.024H404.317V103.296C404.317 103.76 404.405 104.12 404.581 104.376C404.773 104.616 404.965 104.744 405.157 104.76L405.421 104.808H406.165V105H404.701C404.045 105 403.541 104.856 403.189 104.568C402.853 104.28 402.677 103.992 402.661 103.704L402.637 103.296V102.912C402.333 103.472 401.829 103.968 401.125 104.4C400.421 104.832 399.589 105.048 398.629 105.048C395.365 104.968 393.733 103.096 393.733 99.432ZM398.653 104.856C399.725 104.856 400.645 104.568 401.413 103.992C402.181 103.416 402.589 102.848 402.637 102.288V93.84C401.501 93.344 400.525 93.096 399.709 93.096C398.285 93.096 397.213 93.656 396.493 94.776C395.773 95.88 395.413 97.432 395.413 99.432C395.413 103.048 396.493 104.856 398.653 104.856ZM429.721 95.76C429.721 94.784 429.593 94.096 429.337 93.696C429.081 93.296 428.593 93.096 427.873 93.096C426.913 93.096 426.057 93.496 425.305 94.296C424.569 95.096 424.201 95.816 424.201 96.456V105H422.521V95.76C422.521 94.784 422.393 94.096 422.137 93.696C421.881 93.296 421.337 93.096 420.505 93.096C419.673 93.096 418.881 93.48 418.129 94.248C417.393 95.016 416.993 95.728 416.929 96.384V105H415.249V93H416.929V95.712C417.185 95.024 417.657 94.384 418.345 93.792C419.033 93.2 419.801 92.904 420.649 92.904C421.497 92.904 422.169 92.984 422.665 93.144C423.177 93.288 423.537 93.52 423.745 93.84C423.953 94.16 424.081 94.44 424.129 94.68C424.177 94.92 424.201 95.256 424.201 95.688C424.457 95 424.921 94.368 425.593 93.792C426.265 93.2 426.985 92.904 427.753 92.904C428.521 92.904 429.137 92.968 429.601 93.096C430.065 93.224 430.409 93.368 430.633 93.528C430.873 93.688 431.049 93.92 431.161 94.224C431.289 94.528 431.361 94.776 431.377 94.968C431.393 95.16 431.401 95.432 431.401 95.784V103.296C431.401 103.76 431.489 104.12 431.665 104.376C431.857 104.616 432.049 104.744 432.241 104.76L432.505 104.808H433.249V105H431.785C431.129 105 430.625 104.856 430.273 104.568C429.937 104.28 429.761 103.992 429.745 103.704L429.721 103.296V95.76ZM443.888 105C442.8 105 442.056 104.792 441.656 104.376C441.288 104.024 441.104 103.72 441.104 103.464V102.96C440.32 104.384 439.064 105.096 437.336 105.096C435.32 105.096 434.176 104.184 433.904 102.36C433.872 102.168 433.856 101.976 433.856 101.784C433.856 101.576 433.888 101.352 433.952 101.112C434.016 100.872 434.2 100.608 434.504 100.32C435.112 99.744 436.448 99.392 438.512 99.264C439.024 99.216 439.496 99.192 439.928 99.192C440.36 99.192 440.752 99.208 441.104 99.24V95.256C441.072 95.24 441.072 95.168 441.104 95.04C441.136 94.896 441.104 94.72 441.008 94.512C440.928 94.288 440.816 94.072 440.672 93.864C440.528 93.656 440.272 93.48 439.904 93.336C439.536 93.176 439.056 93.096 438.464 93.096C437.872 93.096 437.176 93.208 436.376 93.432C435.592 93.64 435.016 93.848 434.648 94.056L434.552 93.888C435.976 93.232 437.424 92.904 438.896 92.904C440.544 92.904 441.632 93.2 442.16 93.792C442.576 94.256 442.784 94.744 442.784 95.256V103.296C442.784 103.76 442.872 104.12 443.048 104.376C443.24 104.616 443.432 104.744 443.624 104.76L443.888 104.808H444.632V105H443.888ZM437.72 104.904C438.568 104.904 439.328 104.616 440 104.04C440.688 103.448 441.056 102.88 441.104 102.336V99.432C440.672 99.4 440.232 99.384 439.784 99.384C439.352 99.384 438.92 99.408 438.488 99.456C437.272 99.6 436.48 99.872 436.112 100.272C435.744 100.672 435.56 101.224 435.56 101.928C435.56 102.056 435.568 102.2 435.584 102.36C435.728 104.056 436.44 104.904 437.72 104.904ZM445.952 99.432C445.952 97.352 446.456 95.744 447.464 94.608C448.472 93.472 449.984 92.904 452 92.904C452.944 92.904 453.896 93.144 454.856 93.624V87.024H456.536V103.296C456.536 103.76 456.624 104.12 456.8 104.376C456.992 104.616 457.184 104.744 457.376 104.76L457.64 104.808H458.384V105H456.92C456.264 105 455.76 104.856 455.408 104.568C455.072 104.28 454.896 103.992 454.88 103.704L454.856 103.296V102.912C454.552 103.472 454.048 103.968 453.344 104.4C452.64 104.832 451.808 105.048 450.848 105.048C447.584 104.968 445.952 103.096 445.952 99.432ZM450.872 104.856C451.944 104.856 452.864 104.568 453.632 103.992C454.4 103.416 454.808 102.848 454.856 102.288V93.84C453.72 93.344 452.744 93.096 451.928 93.096C450.504 93.096 449.432 93.656 448.712 94.776C447.992 95.88 447.632 97.432 447.632 99.432C447.632 103.048 448.712 104.856 450.872 104.856Z" fill="white"/>
<ellipse cx="384.5" cy="89" rx="2.5" ry="2" fill="#C21C3A"/>
<path d="M393.551 116.727C393.355 117.445 391.449 117.916 390.837 118.274C390.273 118.604 388.641 119.71 390.303 118.977C390.487 118.895 393.537 117.329 392.511 117.261C391.317 117.182 388.96 117.553 388.996 119.173C389.007 119.717 395.019 118.277 395.674 118.049C396.427 117.786 396.211 117.712 395.597 118.035C395.074 118.309 393.565 119.224 394.113 119.005C395.365 118.504 396.537 117.629 397.727 117.001C398.93 116.366 400.17 115.821 401.397 115.236C403.416 114.275 397.476 117.398 395.449 118.344C394.133 118.958 397.222 115.979 398.416 115.152C398.686 114.965 398.083 115.872 398.022 115.989C397.831 116.358 398.427 116.198 398.599 116.164C399.359 116.016 400.195 115.872 400.912 115.574C401.431 115.358 401.766 114.929 402.184 114.576C402.5 114.309 402.979 114.142 403.246 113.83C403.412 113.636 402.485 113.688 402.409 113.69C401.307 113.715 400.033 114.224 399.049 114.702C398.002 115.211 396.929 115.582 395.815 115.94C394.6 116.329 393.023 116.552 391.934 117.261C391.108 117.799 391.511 119.903 391.583 120.65C391.702 121.896 392.293 123.878 393.326 124.713C394.076 125.319 395.799 124.474 396.124 123.743C396.676 122.501 395.422 122.234 394.493 122.295C393.55 122.357 392.792 123.401 392.792 124.291C392.792 124.922 394.793 123.751 394.985 123.335C395.741 121.699 392.455 121.639 391.723 121.718C391.571 121.735 390.036 122.27 390.851 122.449C391.525 122.597 392.26 122.674 392.946 122.674C395.031 122.674 397.35 121.267 399.189 122.646C400.099 123.329 401.596 124.472 401.523 125.711C401.493 126.228 397.828 125.335 397.741 125.332C397.013 125.309 397.067 125.269 396.996 124.516C396.958 124.118 396.727 122.702 397.122 122.421C397.577 122.099 397.268 125.022 398.289 125.079C398.69 125.101 400.008 124.139 400.103 124.249C400.444 124.647 399.347 124.507 399.26 124.46C397.599 123.564 396.024 121.845 394.845 120.397C394.373 119.817 393.916 119.297 393.326 118.836C393.101 118.66 392.785 118.504 393.242 118.499C394.935 118.479 396.691 118.376 398.374 118.597C399.017 118.681 399.647 118.625 400.272 118.47C403.093 117.772 406.011 117.614 408.736 116.53C410.32 115.9 411.565 114.787 413.039 113.971C414.486 113.17 415.791 112.139 417.173 111.257C417.907 110.788 418.543 110.3 419.169 109.697C419.567 109.313 420.088 108.81 420.603 108.6C421.279 108.325 421.862 108.012 422.628 107.995C423.005 107.987 424.664 107.293 424.681 107.869C424.697 108.444 424.893 109.531 424.554 110.048C424.218 110.563 423.954 111.237 423.514 111.693C422.903 112.326 422.425 112.865 421.616 113.212C419.812 113.985 417.645 114.532 415.696 114.78C414.821 114.89 413.956 115.074 413.081 115.18C412.618 115.237 413.035 114.991 413.207 114.871C414.971 113.646 417.142 112.955 419.028 111.925C420.253 111.257 421.244 110.501 422.326 109.655C422.472 109.54 423.023 108.894 422.881 109.036C422.3 109.616 422.081 110.383 421.897 111.166C421.707 111.974 421.295 112.704 420.772 113.345C420.594 113.564 419.613 114.076 419.654 113.83C419.723 113.42 419.007 114.366 418.761 114.702C418.423 115.165 418.168 115.674 418.108 116.249C417.993 117.34 421.08 116.703 421.623 116.671C422.033 116.646 423.209 116.536 422.853 116.741C421.552 117.489 420.22 118.189 418.895 118.892C418.842 118.92 416.814 120.031 418.016 119.539C419.577 118.901 421.186 118.483 422.86 118.274C423.851 118.15 421.914 119.764 422.67 119.539C423.742 119.22 424.767 118.981 425.89 118.906C426.037 118.896 427.079 118.677 426.79 119.11C426.702 119.242 425.895 120.137 426.059 120.284C426.232 120.44 427.473 119.837 427.725 119.792C428.427 119.667 428.469 120.402 428.343 120.966C428.215 121.544 426.491 121.282 426.073 121.282C424.417 121.282 422.538 121.201 420.92 120.847C419.891 120.622 419.016 120.055 418.023 119.715C416.448 119.174 414.304 118.865 414.304 120.973C414.304 122.029 415.418 122.232 416.237 122.604C416.941 122.924 417.353 123.371 417.911 123.87C418.522 124.417 418.367 125.464 417.531 125.641C416.057 125.954 414.341 125.431 413.046 124.762C411.891 124.166 410.595 123.744 409.481 123.103C408.814 122.72 408.128 122.492 407.415 122.21C406.351 121.79 405.347 121.246 404.223 120.994C404.072 120.96 402.55 120.927 402.676 120.579C402.816 120.195 403.581 120.12 403.9 120.073C405.265 119.874 406.634 119.75 407.998 119.518C409.022 119.344 410.093 119.249 411.098 118.977C411.985 118.736 412.833 118.374 413.721 118.133C414.897 117.814 416.169 117.575 416.955 116.544C417.072 116.39 417.492 116.259 417.355 116.122C417.085 115.852 415.286 117.132 415.092 117.261C413.257 118.488 411.459 119.759 409.496 120.776C408.94 121.064 408.421 121.364 407.942 121.768C407.666 122 408.648 121.61 408.989 121.493C411.923 120.494 414.928 119.722 417.925 118.941C419.138 118.626 420.454 118.391 421.573 117.795C422.238 117.442 421.647 117.562 421.313 117.683C420.839 117.854 420.42 117.986 419.914 117.992C417.723 118.019 415.529 118.009 413.348 117.767C413.302 117.762 412.005 117.724 411.991 117.514C411.952 116.93 413.06 116.437 413.447 116.249C413.915 116.021 415.437 115.715 414.916 115.715C414.022 115.715 413.122 115.789 412.251 115.996C412.195 116.009 410.836 116.459 410.958 116.537C411.405 116.825 412.22 116.835 412.729 116.952C414.195 117.288 414.272 117.982 413.573 119.258C413.512 119.369 412.835 120.371 413.376 120.073C414.415 119.502 415.313 118.624 416.16 117.81C416.655 117.334 418.926 115.192 417.341 114.604C416.597 114.327 415.16 114.235 414.838 115.166C414.617 115.807 414.409 117.435 414.937 117.992C415.034 118.095 415.137 118.062 415.232 118.126C415.454 118.274 414.799 118.437 414.585 118.597C413.253 119.591 411.972 121.149 411.07 122.548C410.546 123.361 410.697 124.069 411.745 123.504C412.574 123.057 413.677 121.778 413.65 120.783C413.609 119.244 409.995 119.882 409.228 120.031C409.176 120.041 405.593 121.387 405.784 121.564C406.214 121.962 407.235 121.789 407.738 121.789C408.661 121.789 409.601 121.739 410.522 121.817C411.522 121.902 412.5 122.309 413.432 122.646C413.896 122.814 414.722 122.946 415.092 123.279C415.293 123.46 415.535 123.734 415.752 123.87C416.104 124.09 416.037 124.297 416.455 124.32C416.752 124.335 416.945 124.708 417.06 124.952C417.182 125.212 415.94 124.866 415.795 124.769C415.117 124.318 414.391 123.665 413.77 123.124C412.824 122.301 412.418 121.655 412.561 120.326C412.761 118.465 415.116 118.107 416.61 117.852C418.499 117.529 420.136 117.782 421.869 118.442C423.793 119.175 418.936 119.134 418.867 119.448C418.71 120.154 423.195 120.017 423.711 120.017C424.601 120.017 425.378 119.888 426.136 120.326C426.393 120.475 426.871 120.736 427.155 120.769C427.463 120.805 427.723 120.754 427.978 120.966C428.151 121.11 428.465 120.998 428.674 121.036C428.999 121.096 429.118 121.282 429.489 121.282C430.024 121.282 429.869 120.881 429.869 120.418C429.869 119.673 429.428 119.296 428.822 118.892C428.33 118.564 428.069 117.992 427.408 117.992C426.624 117.992 425.748 117.726 424.969 117.613C423.596 117.414 422.174 117.233 420.786 117.233C419.609 117.233 420.544 116.45 421.131 116.115C421.771 115.749 422.487 115.737 423.204 115.686C423.243 115.684 424.409 115.553 424.378 115.518C423.955 115.024 421.72 115.345 421.194 115.363C419.764 115.411 418.386 115.651 417.004 116.01C415.546 116.388 417.467 115.694 417.883 115.581C419.467 115.149 421.251 115.042 422.874 114.829C425.112 114.535 427.221 114.258 429.286 113.317C430.547 112.742 431.788 112.118 433.047 111.546C434.094 111.069 435.22 110.591 436.309 110.217C436.858 110.028 437.341 109.682 437.905 109.521C439.608 109.034 441.329 109.187 443.072 109.008C444.191 108.893 445.551 109.009 446.566 108.438C446.73 108.346 446.846 108.252 447.037 108.22C447.505 108.142 446.609 108.665 446.559 108.698C445.591 109.336 444.856 109.926 443.775 110.336C443.011 110.627 442.251 110.88 441.497 111.173C440.424 111.59 439.326 111.788 438.235 112.164C437.572 112.393 436.934 112.644 436.295 112.931C435.319 113.368 435.968 112.992 436.513 112.713C438.154 111.872 439.716 111.029 441.23 109.978C441.64 109.693 441.754 109.585 441.103 109.697C439.172 110.027 437.394 111.057 435.655 111.904C433.835 112.791 431.965 113.643 430.305 114.815C429.892 115.106 429.176 115.594 429.011 116.129C428.979 116.234 429.056 116.198 429.138 116.172C429.858 115.939 430.58 115.545 431.261 115.236C432.829 114.526 432.515 114.667 434.059 113.971C434.51 113.768 435.411 113.495 435.838 113.149C436.805 112.363 433.441 113.86 432.301 114.365C431.277 114.818 430.241 115.453 429.138 115.708C428.411 115.875 428.604 115.452 428.604 114.787C428.604 114.173 427.437 114.392 426.973 114.463C426.323 114.563 426.324 114.955 427.001 114.955C427.809 114.955 428.685 114.949 427.908 115.89C427.358 116.556 427.883 116.562 428.583 116.727C429.152 116.861 429.513 117.098 429.862 117.556C430.215 118.02 430.612 118.554 430.755 119.124C430.883 119.636 431.109 119.475 431.324 119.061C431.75 118.242 432.393 117.479 433.426 117.76C433.91 117.892 434.069 118.383 434.164 118.815C434.276 119.316 434.68 119.344 435.057 119.637C435.499 119.981 435.829 120.228 436.203 120.65C436.651 121.154 437.216 121.823 437.841 122.084C439.105 122.61 440.53 122.548 441.87 122.548C442.916 122.548 444.338 122.781 445.118 121.943C445.933 121.067 446.114 119.812 446.06 118.667C446.013 117.69 445.813 119.653 445.813 119.94C445.813 120.804 446.179 121.656 446.517 122.428C446.937 123.39 446.45 123.354 445.617 123.687C444.999 123.934 444.202 123.813 443.55 123.813C442.801 123.813 442.387 123.377 441.884 122.857C440.147 121.063 439.135 118.79 437.673 116.783C437.132 116.042 437.171 114.65 438.066 114.224C438.663 113.941 439.234 113.765 439.739 113.31C440.092 112.993 440.213 112.889 439.486 112.832C438.083 112.723 436.709 113.477 435.437 113.971C434.368 114.386 433.071 115.249 432.428 116.221C432.248 116.493 431.279 117.557 431.43 117.5C431.917 117.318 435.477 115.864 435.381 115.236C435.297 114.692 430.731 116.054 430.164 116.516C429.647 116.937 430.644 116.709 430.762 116.685C432.52 116.325 434.216 115.731 435.901 115.124C436.293 114.983 437.4 114.326 437.012 115.236C436.591 116.225 435.898 117.202 435.085 117.908C434.037 118.819 433.068 118.172 431.922 118.625C431.463 118.806 431.3 119.036 430.755 119.005C430.46 118.988 430.465 118.707 430.544 118.47C430.764 117.81 431.441 117.411 432.02 117.107C433.266 116.451 434.608 115.733 436.013 115.49C436.644 115.381 436.59 115.907 436.576 116.404C436.515 118.522 433.126 118.306 431.641 118.948C431.443 119.034 430.838 119.269 430.628 119.258C429.928 119.219 431.241 118.002 431.345 117.936C431.668 117.731 433.753 116.798 432.597 117.669C432.155 118.002 431.704 118.336 431.219 118.604C431.002 118.723 430.711 118.765 430.558 118.977C430.262 119.388 431.574 119.312 431.767 119.23C432.645 118.853 433.478 118.417 434.382 118.091C435.228 117.786 436.11 117.585 436.998 117.444C437.5 117.364 437.329 117.852 437.391 118.231C437.483 118.789 437.79 119.683 438.474 119.764C438.704 119.791 438.93 120.201 438.896 120.186C438.422 119.975 437.98 119.384 437.581 119.061C437.047 118.628 436.559 118.139 435.999 117.739C435.954 117.707 435.363 117.247 435.346 117.346C435.279 117.712 435.816 118.372 436.013 118.639C436.75 119.635 437.835 120.69 439.114 120.903C439.381 120.947 439.623 121.006 439.866 121.128C439.952 121.171 438.881 121.156 438.875 121.156C438.376 121.156 437.139 121.382 436.759 120.917C436.629 120.758 436.419 120.201 436.815 120.333C439.199 121.128 441.451 122.573 444.077 122.091C445.53 121.824 445.643 119.94 445.49 118.759C445.448 118.433 444.984 117.451 445.209 117.114C445.432 116.779 446.679 116.977 447.009 117.043C448.195 117.281 449.271 117.904 450.489 117.985C450.76 118.003 451.496 118.109 451.684 117.859C451.948 117.506 451.933 116.825 451.874 116.425C451.744 115.552 450.435 115.7 449.821 115.581C448.331 115.293 446.827 115.229 445.328 115.019C444.248 114.867 443.33 114.486 442.291 114.252C441.294 114.028 438.259 113.584 439.275 113.697C441.695 113.966 444.016 114.479 446.327 115.201C447.276 115.498 448.144 115.857 448.977 116.404C449.399 116.68 449.928 117.068 450.418 117.219C450.586 117.271 451.09 117.315 451.121 117.092C451.295 115.878 448.161 116 447.515 115.982C445.456 115.922 443.416 116.082 441.37 116.291C440.272 116.404 439.016 116.397 437.989 116.868C437.81 116.95 436.846 117.579 437.462 117.781C438.358 118.077 439.562 117.566 440.33 117.156C441.142 116.722 441.923 116.178 440.625 115.785C440.013 115.599 439.108 115.443 438.488 115.377C438.049 115.33 436.694 115.11 436.238 115.405C436.037 115.535 436.697 115.552 436.934 115.581C437.759 115.682 438.587 115.707 439.416 115.715C439.702 115.717 441.72 115.443 441.167 116.052C440.928 116.314 438.369 119.022 439.957 118.59C440.573 118.423 441.487 118.078 442.045 117.873C442.43 117.732 442.813 117.584 443.198 117.444C443.459 117.35 444.117 116.968 444 117.219C443.874 117.488 443.543 117.598 443.311 117.781C442.673 118.285 442.042 118.793 441.413 119.307C440.173 120.32 441.593 118.635 441.848 118.386C443.163 117.107 442.845 118.315 442.39 119.307C442.375 119.339 441.299 121.168 441.778 120.664C441.887 120.549 442.772 119.638 442.861 120.172C442.948 120.692 442.627 120.544 442.762 119.806C442.794 119.632 443.404 117.434 443.374 118.231C443.344 119.039 442.958 119.888 443.03 120.692C443.035 120.755 444.137 119.416 444.253 119.258C445.477 117.581 443.915 121.474 443.915 121.275C443.915 120.553 443.857 120.289 443.789 120.017" stroke="#59AD44" stroke-width="2"/>
<path d="M386.33 120.214C386.488 119.345 387.694 118.76 388.342 118.303C390.23 116.973 392.271 115.918 394.387 114.996C396.033 114.278 397.748 113.89 399.472 113.42C400.798 113.058 402.308 112.933 403.584 112.481C403.721 112.433 404.361 111.918 404.422 112.314C404.577 113.319 404.397 114.471 403.796 115.297C402.196 117.497 398.919 118.235 396.622 119.499C396.513 119.559 395.92 120.013 396.387 120.013C397.916 120.013 399.674 119.049 401.036 118.471C404.315 117.078 407.843 115.987 411.004 114.359C413.6 113.021 416.061 111.268 418.334 109.442C419.683 108.358 421.018 107.799 422.637 107.24C423.276 107.02 424.719 106.296 425.441 106.559C426.142 106.814 425.955 108.412 425.955 108.928C425.955 110.601 424.882 111.389 423.631 112.37C422.675 113.119 421.739 114.083 420.726 114.739C420.526 114.868 421.17 114.565 421.396 114.493C422.405 114.17 423.428 113.968 424.458 113.733C429.516 112.578 434.285 110.664 439.209 109.084C440.689 108.609 442.259 108.528 443.779 108.235C445.387 107.925 446.993 107.488 448.629 107.352C449.517 107.278 448.867 108.522 448.551 108.838C447.861 109.528 446.751 110.198 445.813 110.47C444.322 110.901 442.964 111.535 441.533 112.124C440.875 112.394 440.21 112.595 439.522 112.772C439.509 112.775 438.741 112.985 438.806 113.018C440.622 113.926 443.675 113.375 445.623 113.375C446.863 113.375 447.965 113.246 449.087 113.778C450.487 114.441 452.383 114.301 452.808 116.001C453.336 118.112 452.059 119.611 449.88 119.611C448.903 119.611 448.388 119.537 447.523 119.052C447.212 118.878 445.214 117.492 445.913 118.694C446.497 119.698 449.27 122.901 447.377 123.946C443.576 126.047 440.403 124.683 437.331 122.136C434.231 119.566 430.716 117.967 427.14 116.191C427.088 116.166 424.633 114.823 425.039 115.476C426.257 117.436 429.877 117.507 430.682 119.745C432.497 124.785 421.648 121.692 419.921 121.332C418.441 121.023 416.871 120.716 415.429 120.259C415.097 120.154 413.024 119.132 414.021 119.7C415.835 120.733 419.449 122.128 419.519 124.639C419.528 124.972 419.58 125.397 419.508 125.723C419.384 126.28 414.95 125.683 414.501 125.6C410.629 124.889 406.816 123.228 403.204 121.712C402.846 121.561 399.96 120.153 400.254 121.108C400.789 122.846 402.972 123.694 402.824 125.69C402.709 127.236 398.834 126.651 397.907 126.651C396.567 126.651 395.696 126.112 394.476 125.645C393.434 125.246 392.04 124.864 391.258 124.036C390.414 123.142 389.181 122.663 388.342 121.823C387.848 121.33 387.133 121.217 386.732 120.616" stroke="#59AD44" stroke-width="2"/>
<path d="M379 117.269C380.702 118.49 383.531 118.995 385.692 119.508C388.099 120.078 390.341 119.996 392.849 119.996C395.7 119.996 398.479 119.948 401.202 119.238C404.215 118.454 407.328 117.809 410.42 117.235C414.968 116.391 419.442 115.076 424.125 114.702C427.411 114.439 430.783 114.12 434.085 114.088C436.998 114.059 440.335 113.737 443.103 114.542C444.575 114.97 446.896 115.521 448 116.36" stroke="white"/>
<ellipse cx="245.5" cy="98" rx="63.5" ry="60" fill="#2F2F2F"/>
<path d="M208.816 86.144L208.96 86C209.024 86.032 209.104 86.128 209.2 86.288C209.312 86.448 209.376 86.592 209.392 86.72C209.424 86.848 209.44 86.968 209.44 87.08C209.44 87.512 209.344 87.952 209.152 88.4L204.544 98H204.304L199.84 86H201.52L205.192 95.936L208.912 88.4C209.104 88.064 209.2 87.664 209.2 87.2C209.2 86.736 209.072 86.384 208.816 86.144ZM213.213 98C212.557 98 212.053 97.856 211.701 97.568C211.365 97.28 211.189 96.992 211.173 96.704L211.149 96.296V86H212.829V96.296C212.829 96.76 212.917 97.12 213.093 97.376C213.285 97.616 213.469 97.744 213.645 97.76L213.933 97.808H214.677V98H213.213ZM211.293 83.312C211.101 83.12 211.005 82.88 211.005 82.592C211.005 82.304 211.101 82.064 211.293 81.872C211.485 81.664 211.725 81.56 212.013 81.56C212.301 81.56 212.541 81.664 212.733 81.872C212.941 82.064 213.045 82.304 213.045 82.592C213.045 82.88 212.941 83.12 212.733 83.312C212.541 83.504 212.301 83.6 212.013 83.6C211.725 83.6 211.485 83.504 211.293 83.312ZM219.649 98C218.241 98 217.353 97.632 216.985 96.896C216.905 96.736 216.865 96.592 216.865 96.464V80.024H218.545V96.296C218.545 96.76 218.633 97.12 218.809 97.376C219.001 97.616 219.193 97.744 219.385 97.76L219.649 97.808H220.393V98H219.649ZM221.733 92.432C221.733 90.352 222.237 88.744 223.245 87.608C224.253 86.472 225.765 85.904 227.781 85.904C228.725 85.904 229.677 86.144 230.637 86.624V80.024H232.317V96.296C232.317 96.76 232.405 97.12 232.581 97.376C232.773 97.616 232.965 97.744 233.157 97.76L233.421 97.808H234.165V98H232.701C232.045 98 231.541 97.856 231.189 97.568C230.853 97.28 230.677 96.992 230.661 96.704L230.637 96.296V95.912C230.333 96.472 229.829 96.968 229.125 97.4C228.421 97.832 227.589 98.048 226.629 98.048C223.365 97.968 221.733 96.096 221.733 92.432ZM226.653 97.856C227.725 97.856 228.645 97.568 229.413 96.992C230.181 96.416 230.589 95.848 230.637 95.288V86.84C229.501 86.344 228.525 86.096 227.709 86.096C226.285 86.096 225.213 86.656 224.493 87.776C223.773 88.88 223.413 90.432 223.413 92.432C223.413 96.048 224.493 97.856 226.653 97.856ZM257.721 88.76C257.721 87.784 257.593 87.096 257.337 86.696C257.081 86.296 256.593 86.096 255.873 86.096C254.913 86.096 254.057 86.496 253.305 87.296C252.569 88.096 252.201 88.816 252.201 89.456V98H250.521V88.76C250.521 87.784 250.393 87.096 250.137 86.696C249.881 86.296 249.337 86.096 248.505 86.096C247.673 86.096 246.881 86.48 246.129 87.248C245.393 88.016 244.993 88.728 244.929 89.384V98H243.249V86H244.929V88.712C245.185 88.024 245.657 87.384 246.345 86.792C247.033 86.2 247.801 85.904 248.649 85.904C249.497 85.904 250.169 85.984 250.665 86.144C251.177 86.288 251.537 86.52 251.745 86.84C251.953 87.16 252.081 87.44 252.129 87.68C252.177 87.92 252.201 88.256 252.201 88.688C252.457 88 252.921 87.368 253.593 86.792C254.265 86.2 254.985 85.904 255.753 85.904C256.521 85.904 257.137 85.968 257.601 86.096C258.065 86.224 258.409 86.368 258.633 86.528C258.873 86.688 259.049 86.92 259.161 87.224C259.289 87.528 259.361 87.776 259.377 87.968C259.393 88.16 259.401 88.432 259.401 88.784V96.296C259.401 96.76 259.489 97.12 259.665 97.376C259.857 97.616 260.049 97.744 260.241 97.76L260.505 97.808H261.249V98H259.785C259.129 98 258.625 97.856 258.273 97.568C257.937 97.28 257.761 96.992 257.745 96.704L257.721 96.296V88.76ZM271.888 98C270.8 98 270.056 97.792 269.656 97.376C269.288 97.024 269.104 96.72 269.104 96.464V95.96C268.32 97.384 267.064 98.096 265.336 98.096C263.32 98.096 262.176 97.184 261.904 95.36C261.872 95.168 261.856 94.976 261.856 94.784C261.856 94.576 261.888 94.352 261.952 94.112C262.016 93.872 262.2 93.608 262.504 93.32C263.112 92.744 264.448 92.392 266.512 92.264C267.024 92.216 267.496 92.192 267.928 92.192C268.36 92.192 268.752 92.208 269.104 92.24V88.256C269.072 88.24 269.072 88.168 269.104 88.04C269.136 87.896 269.104 87.72 269.008 87.512C268.928 87.288 268.816 87.072 268.672 86.864C268.528 86.656 268.272 86.48 267.904 86.336C267.536 86.176 267.056 86.096 266.464 86.096C265.872 86.096 265.176 86.208 264.376 86.432C263.592 86.64 263.016 86.848 262.648 87.056L262.552 86.888C263.976 86.232 265.424 85.904 266.896 85.904C268.544 85.904 269.632 86.2 270.16 86.792C270.576 87.256 270.784 87.744 270.784 88.256V96.296C270.784 96.76 270.872 97.12 271.048 97.376C271.24 97.616 271.432 97.744 271.624 97.76L271.888 97.808H272.632V98H271.888ZM265.72 97.904C266.568 97.904 267.328 97.616 268 97.04C268.688 96.448 269.056 95.88 269.104 95.336V92.432C268.672 92.4 268.232 92.384 267.784 92.384C267.352 92.384 266.92 92.408 266.488 92.456C265.272 92.6 264.48 92.872 264.112 93.272C263.744 93.672 263.56 94.224 263.56 94.928C263.56 95.056 263.568 95.2 263.584 95.36C263.728 97.056 264.44 97.904 265.72 97.904ZM273.952 92.432C273.952 90.352 274.456 88.744 275.464 87.608C276.472 86.472 277.984 85.904 280 85.904C280.944 85.904 281.896 86.144 282.856 86.624V80.024H284.536V96.296C284.536 96.76 284.624 97.12 284.8 97.376C284.992 97.616 285.184 97.744 285.376 97.76L285.64 97.808H286.384V98H284.92C284.264 98 283.76 97.856 283.408 97.568C283.072 97.28 282.896 96.992 282.88 96.704L282.856 96.296V95.912C282.552 96.472 282.048 96.968 281.344 97.4C280.64 97.832 279.808 98.048 278.848 98.048C275.584 97.968 273.952 96.096 273.952 92.432ZM278.872 97.856C279.944 97.856 280.864 97.568 281.632 96.992C282.4 96.416 282.808 95.848 282.856 95.288V86.84C281.72 86.344 280.744 86.096 279.928 86.096C278.504 86.096 277.432 86.656 276.712 87.776C275.992 88.88 275.632 90.432 275.632 92.432C275.632 96.048 276.712 97.856 278.872 97.856Z" fill="white"/>
<path d="M221.551 109.727C221.355 110.445 219.449 110.916 218.837 111.274C218.273 111.604 216.641 112.71 218.303 111.977C218.487 111.895 221.537 110.329 220.511 110.261C219.317 110.182 216.96 110.553 216.996 112.173C217.007 112.717 223.019 111.277 223.674 111.049C224.427 110.786 224.211 110.712 223.597 111.035C223.074 111.309 221.565 112.224 222.113 112.005C223.365 111.504 224.537 110.629 225.727 110.001C226.93 109.366 228.17 108.821 229.397 108.236C231.416 107.275 225.476 110.398 223.449 111.344C222.133 111.958 225.222 108.979 226.416 108.152C226.686 107.965 226.083 108.872 226.022 108.989C225.831 109.358 226.427 109.198 226.599 109.164C227.359 109.016 228.195 108.872 228.912 108.574C229.431 108.358 229.766 107.929 230.184 107.576C230.5 107.309 230.979 107.142 231.246 106.83C231.412 106.636 230.485 106.688 230.409 106.69C229.307 106.715 228.033 107.224 227.049 107.702C226.002 108.211 224.929 108.582 223.815 108.94C222.6 109.329 221.023 109.552 219.934 110.261C219.108 110.799 219.511 112.903 219.583 113.65C219.702 114.896 220.293 116.878 221.326 117.713C222.076 118.319 223.799 117.474 224.124 116.743C224.676 115.501 223.422 115.234 222.493 115.295C221.55 115.357 220.792 116.401 220.792 117.291C220.792 117.922 222.793 116.751 222.985 116.335C223.741 114.699 220.455 114.639 219.723 114.718C219.571 114.735 218.036 115.27 218.851 115.449C219.525 115.597 220.26 115.674 220.946 115.674C223.031 115.674 225.35 114.267 227.189 115.646C228.099 116.329 229.596 117.472 229.523 118.711C229.493 119.228 225.828 118.335 225.741 118.332C225.013 118.309 225.067 118.269 224.996 117.516C224.958 117.118 224.727 115.702 225.122 115.421C225.577 115.099 225.268 118.022 226.289 118.079C226.69 118.101 228.008 117.139 228.103 117.249C228.444 117.647 227.347 117.507 227.26 117.46C225.599 116.564 224.024 114.845 222.845 113.397C222.373 112.817 221.916 112.297 221.326 111.836C221.101 111.66 220.785 111.504 221.242 111.499C222.935 111.479 224.691 111.376 226.374 111.597C227.017 111.681 227.647 111.625 228.272 111.47C231.093 110.772 234.011 110.614 236.736 109.53C238.32 108.9 239.565 107.787 241.039 106.971C242.486 106.17 243.791 105.139 245.173 104.257C245.907 103.788 246.543 103.3 247.169 102.697C247.567 102.313 248.088 101.81 248.603 101.6C249.279 101.325 249.862 101.012 250.628 100.995C251.005 100.987 252.664 100.293 252.681 100.869C252.697 101.444 252.893 102.531 252.554 103.048C252.218 103.563 251.954 104.237 251.514 104.693C250.903 105.326 250.425 105.865 249.616 106.212C247.812 106.985 245.645 107.532 243.696 107.78C242.821 107.89 241.956 108.074 241.081 108.18C240.618 108.237 241.035 107.991 241.207 107.871C242.971 106.646 245.142 105.955 247.028 104.925C248.253 104.257 249.244 103.501 250.326 102.655C250.472 102.54 251.023 101.894 250.881 102.036C250.3 102.616 250.081 103.383 249.897 104.166C249.707 104.974 249.295 105.704 248.772 106.345C248.594 106.564 247.613 107.076 247.654 106.83C247.723 106.42 247.007 107.366 246.761 107.702C246.423 108.165 246.168 108.674 246.108 109.249C245.993 110.34 249.08 109.703 249.623 109.671C250.033 109.646 251.209 109.536 250.853 109.741C249.552 110.489 248.22 111.189 246.895 111.892C246.842 111.92 244.814 113.031 246.016 112.539C247.577 111.901 249.186 111.483 250.86 111.274C251.851 111.15 249.914 112.764 250.67 112.539C251.742 112.22 252.767 111.981 253.89 111.906C254.037 111.896 255.079 111.677 254.79 112.11C254.702 112.242 253.895 113.137 254.059 113.284C254.232 113.44 255.473 112.837 255.725 112.792C256.427 112.667 256.469 113.402 256.343 113.966C256.215 114.544 254.491 114.282 254.073 114.282C252.417 114.282 250.538 114.201 248.92 113.847C247.891 113.622 247.016 113.055 246.023 112.715C244.448 112.174 242.304 111.865 242.304 113.973C242.304 115.029 243.418 115.232 244.237 115.604C244.941 115.924 245.353 116.371 245.911 116.87C246.522 117.417 246.367 118.464 245.531 118.641C244.057 118.954 242.341 118.431 241.046 117.762C239.891 117.166 238.595 116.744 237.481 116.103C236.814 115.72 236.128 115.492 235.415 115.21C234.351 114.79 233.347 114.246 232.223 113.994C232.072 113.96 230.55 113.927 230.676 113.579C230.816 113.195 231.581 113.12 231.9 113.073C233.265 112.874 234.634 112.75 235.998 112.518C237.022 112.344 238.093 112.249 239.098 111.977C239.985 111.736 240.833 111.374 241.721 111.133C242.897 110.814 244.169 110.575 244.955 109.544C245.072 109.39 245.492 109.259 245.355 109.122C245.085 108.852 243.286 110.132 243.092 110.261C241.257 111.488 239.459 112.759 237.496 113.776C236.94 114.064 236.421 114.364 235.942 114.768C235.666 115 236.648 114.61 236.989 114.493C239.923 113.494 242.928 112.722 245.925 111.941C247.138 111.626 248.454 111.391 249.573 110.795C250.238 110.442 249.647 110.562 249.313 110.683C248.839 110.854 248.42 110.986 247.914 110.992C245.723 111.019 243.529 111.009 241.348 110.767C241.302 110.762 240.005 110.724 239.991 110.514C239.952 109.93 241.06 109.437 241.447 109.249C241.915 109.021 243.437 108.715 242.916 108.715C242.022 108.715 241.122 108.789 240.251 108.996C240.195 109.009 238.836 109.459 238.958 109.537C239.405 109.825 240.22 109.835 240.729 109.952C242.195 110.288 242.272 110.982 241.573 112.258C241.512 112.369 240.835 113.371 241.376 113.073C242.415 112.502 243.313 111.624 244.16 110.81C244.655 110.334 246.926 108.192 245.341 107.604C244.597 107.327 243.16 107.235 242.838 108.166C242.617 108.807 242.409 110.435 242.937 110.992C243.034 111.095 243.137 111.062 243.232 111.126C243.454 111.274 242.799 111.437 242.585 111.597C241.253 112.591 239.972 114.149 239.07 115.548C238.546 116.361 238.697 117.069 239.745 116.504C240.574 116.057 241.677 114.778 241.65 113.783C241.609 112.244 237.995 112.882 237.228 113.031C237.176 113.041 233.593 114.387 233.784 114.564C234.214 114.962 235.235 114.789 235.738 114.789C236.661 114.789 237.601 114.739 238.522 114.817C239.522 114.902 240.5 115.309 241.432 115.646C241.896 115.814 242.722 115.946 243.092 116.279C243.293 116.46 243.535 116.734 243.752 116.87C244.104 117.09 244.037 117.297 244.455 117.32C244.752 117.335 244.945 117.708 245.06 117.952C245.182 118.212 243.94 117.866 243.795 117.769C243.117 117.318 242.391 116.665 241.77 116.124C240.824 115.301 240.418 114.655 240.561 113.326C240.761 111.465 243.116 111.107 244.61 110.852C246.499 110.529 248.136 110.782 249.869 111.442C251.793 112.175 246.936 112.134 246.867 112.448C246.71 113.154 251.195 113.017 251.711 113.017C252.601 113.017 253.378 112.888 254.136 113.326C254.393 113.475 254.871 113.736 255.155 113.769C255.463 113.805 255.723 113.754 255.978 113.966C256.151 114.11 256.465 113.998 256.674 114.036C256.999 114.096 257.118 114.282 257.489 114.282C258.024 114.282 257.869 113.881 257.869 113.418C257.869 112.673 257.428 112.296 256.822 111.892C256.33 111.564 256.069 110.992 255.408 110.992C254.624 110.992 253.748 110.726 252.969 110.613C251.596 110.414 250.174 110.233 248.786 110.233C247.609 110.233 248.544 109.45 249.131 109.115C249.771 108.749 250.487 108.737 251.204 108.686C251.243 108.684 252.409 108.553 252.378 108.518C251.955 108.024 249.72 108.345 249.194 108.363C247.764 108.411 246.386 108.651 245.004 109.01C243.546 109.388 245.467 108.694 245.883 108.581C247.467 108.149 249.251 108.042 250.874 107.829C253.112 107.535 255.221 107.258 257.286 106.317C258.547 105.742 259.788 105.118 261.047 104.546C262.094 104.069 263.22 103.591 264.309 103.217C264.858 103.028 265.341 102.682 265.905 102.521C267.608 102.034 269.329 102.187 271.072 102.008C272.191 101.893 273.551 102.009 274.566 101.438C274.73 101.346 274.846 101.252 275.037 101.22C275.505 101.142 274.609 101.665 274.559 101.698C273.591 102.336 272.856 102.926 271.775 103.336C271.011 103.627 270.251 103.88 269.497 104.173C268.424 104.59 267.326 104.788 266.235 105.164C265.572 105.393 264.934 105.644 264.295 105.931C263.319 106.368 263.968 105.992 264.513 105.713C266.154 104.872 267.716 104.029 269.23 102.978C269.64 102.693 269.754 102.585 269.103 102.697C267.172 103.027 265.394 104.057 263.655 104.904C261.835 105.791 259.965 106.643 258.305 107.815C257.892 108.106 257.176 108.594 257.011 109.129C256.979 109.234 257.056 109.198 257.138 109.172C257.858 108.939 258.58 108.545 259.261 108.236C260.829 107.526 260.515 107.667 262.059 106.971C262.51 106.768 263.411 106.495 263.838 106.149C264.805 105.363 261.441 106.86 260.301 107.365C259.277 107.818 258.241 108.453 257.138 108.708C256.411 108.875 256.604 108.452 256.604 107.787C256.604 107.173 255.437 107.392 254.973 107.463C254.323 107.563 254.324 107.955 255.001 107.955C255.809 107.955 256.685 107.949 255.908 108.89C255.358 109.556 255.883 109.562 256.583 109.727C257.152 109.861 257.513 110.098 257.862 110.556C258.215 111.02 258.612 111.554 258.755 112.124C258.883 112.636 259.109 112.475 259.324 112.061C259.75 111.242 260.393 110.479 261.426 110.76C261.91 110.892 262.069 111.383 262.164 111.815C262.276 112.316 262.68 112.344 263.057 112.637C263.499 112.981 263.829 113.228 264.203 113.65C264.651 114.154 265.216 114.823 265.841 115.084C267.105 115.61 268.53 115.548 269.87 115.548C270.916 115.548 272.338 115.781 273.118 114.943C273.933 114.067 274.114 112.812 274.06 111.667C274.013 110.69 273.813 112.653 273.813 112.94C273.813 113.804 274.179 114.656 274.517 115.428C274.937 116.39 274.45 116.354 273.617 116.687C272.999 116.934 272.202 116.813 271.55 116.813C270.801 116.813 270.387 116.377 269.884 115.857C268.147 114.063 267.135 111.79 265.673 109.783C265.132 109.042 265.171 107.65 266.066 107.224C266.663 106.941 267.234 106.765 267.739 106.31C268.092 105.993 268.213 105.889 267.486 105.832C266.083 105.723 264.709 106.477 263.437 106.971C262.368 107.386 261.071 108.249 260.428 109.221C260.248 109.493 259.279 110.557 259.43 110.5C259.917 110.318 263.477 108.864 263.381 108.236C263.297 107.692 258.731 109.054 258.164 109.516C257.647 109.937 258.644 109.709 258.762 109.685C260.52 109.325 262.216 108.731 263.901 108.124C264.293 107.983 265.4 107.326 265.012 108.236C264.591 109.225 263.898 110.202 263.085 110.908C262.037 111.819 261.068 111.172 259.922 111.625C259.463 111.806 259.3 112.036 258.755 112.005C258.46 111.988 258.465 111.707 258.544 111.47C258.764 110.81 259.441 110.411 260.02 110.107C261.266 109.451 262.608 108.733 264.013 108.49C264.644 108.381 264.59 108.907 264.576 109.404C264.515 111.522 261.126 111.306 259.641 111.948C259.443 112.034 258.838 112.269 258.628 112.258C257.928 112.219 259.241 111.002 259.345 110.936C259.668 110.731 261.753 109.798 260.597 110.669C260.155 111.002 259.704 111.336 259.219 111.604C259.002 111.723 258.711 111.765 258.558 111.977C258.262 112.388 259.574 112.312 259.767 112.23C260.645 111.853 261.478 111.417 262.382 111.091C263.228 110.786 264.11 110.585 264.998 110.444C265.5 110.364 265.329 110.852 265.391 111.231C265.483 111.789 265.79 112.683 266.474 112.764C266.704 112.791 266.93 113.201 266.896 113.186C266.422 112.975 265.98 112.384 265.581 112.061C265.047 111.628 264.559 111.139 263.999 110.739C263.954 110.707 263.363 110.247 263.346 110.346C263.279 110.712 263.816 111.372 264.013 111.639C264.75 112.635 265.835 113.69 267.114 113.903C267.381 113.947 267.623 114.006 267.866 114.128C267.952 114.171 266.881 114.156 266.875 114.156C266.376 114.156 265.139 114.382 264.759 113.917C264.629 113.758 264.419 113.201 264.815 113.333C267.199 114.128 269.451 115.573 272.077 115.091C273.53 114.824 273.643 112.94 273.49 111.759C273.448 111.433 272.984 110.451 273.209 110.114C273.432 109.779 274.679 109.977 275.009 110.043C276.195 110.281 277.271 110.904 278.489 110.985C278.76 111.003 279.496 111.109 279.684 110.859C279.948 110.506 279.933 109.825 279.874 109.425C279.744 108.552 278.435 108.7 277.821 108.581C276.331 108.293 274.827 108.229 273.328 108.019C272.248 107.867 271.33 107.486 270.291 107.252C269.294 107.028 266.259 106.584 267.275 106.697C269.695 106.966 272.016 107.479 274.327 108.201C275.276 108.498 276.144 108.857 276.977 109.404C277.399 109.68 277.928 110.068 278.418 110.219C278.586 110.271 279.09 110.315 279.121 110.092C279.295 108.878 276.161 109 275.515 108.982C273.456 108.922 271.416 109.082 269.37 109.291C268.272 109.404 267.016 109.397 265.989 109.868C265.81 109.95 264.846 110.579 265.462 110.781C266.358 111.077 267.562 110.566 268.33 110.156C269.142 109.722 269.923 109.178 268.625 108.785C268.013 108.599 267.108 108.443 266.488 108.377C266.049 108.33 264.694 108.11 264.238 108.405C264.037 108.535 264.697 108.552 264.934 108.581C265.759 108.682 266.587 108.707 267.416 108.715C267.702 108.717 269.72 108.443 269.167 109.052C268.928 109.314 266.369 112.022 267.957 111.59C268.573 111.423 269.487 111.078 270.045 110.873C270.43 110.732 270.813 110.584 271.198 110.444C271.459 110.35 272.117 109.968 272 110.219C271.874 110.488 271.543 110.598 271.311 110.781C270.673 111.285 270.042 111.793 269.413 112.307C268.173 113.32 269.593 111.635 269.848 111.386C271.163 110.107 270.845 111.315 270.39 112.307C270.375 112.339 269.299 114.168 269.778 113.664C269.887 113.549 270.772 112.638 270.861 113.172C270.948 113.692 270.627 113.544 270.762 112.806C270.794 112.632 271.404 110.434 271.374 111.231C271.344 112.039 270.958 112.888 271.03 113.692C271.035 113.755 272.137 112.416 272.253 112.258C273.477 110.581 271.915 114.474 271.915 114.275C271.915 113.553 271.857 113.289 271.789 113.017" stroke="#59AD44" stroke-width="2"/>
<path d="M214.33 113.214C214.488 112.345 215.694 111.76 216.342 111.303C218.23 109.973 220.271 108.918 222.387 107.996C224.033 107.278 225.748 106.89 227.472 106.42C228.798 106.058 230.308 105.933 231.584 105.481C231.721 105.433 232.361 104.918 232.422 105.314C232.577 106.319 232.397 107.471 231.796 108.297C230.196 110.497 226.919 111.235 224.622 112.499C224.513 112.559 223.92 113.013 224.387 113.013C225.916 113.013 227.674 112.049 229.036 111.471C232.315 110.078 235.843 108.987 239.004 107.359C241.6 106.021 244.061 104.268 246.334 102.442C247.683 101.358 249.018 100.799 250.637 100.24C251.276 100.02 252.719 99.2958 253.441 99.5587C254.142 99.8136 253.955 101.412 253.955 101.928C253.955 103.601 252.882 104.389 251.631 105.37C250.675 106.119 249.739 107.083 248.726 107.739C248.526 107.868 249.17 107.565 249.396 107.493C250.405 107.17 251.428 106.968 252.458 106.733C257.516 105.578 262.285 103.664 267.209 102.084C268.689 101.609 270.259 101.528 271.779 101.235C273.387 100.925 274.993 100.488 276.629 100.352C277.517 100.278 276.867 101.522 276.551 101.838C275.861 102.528 274.751 103.198 273.813 103.47C272.322 103.901 270.964 104.535 269.533 105.124C268.875 105.394 268.21 105.595 267.522 105.772C267.509 105.775 266.741 105.985 266.806 106.018C268.622 106.926 271.675 106.375 273.623 106.375C274.863 106.375 275.965 106.246 277.087 106.778C278.487 107.441 280.383 107.301 280.808 109.001C281.336 111.112 280.059 112.611 277.88 112.611C276.903 112.611 276.388 112.537 275.523 112.052C275.212 111.878 273.214 110.492 273.913 111.694C274.497 112.698 277.27 115.901 275.377 116.946C271.576 119.047 268.403 117.683 265.331 115.136C262.231 112.566 258.716 110.967 255.14 109.191C255.088 109.166 252.633 107.823 253.039 108.476C254.257 110.436 257.877 110.507 258.682 112.745C260.497 117.785 249.648 114.692 247.921 114.332C246.441 114.023 244.871 113.716 243.429 113.259C243.097 113.154 241.024 112.132 242.021 112.7C243.835 113.733 247.449 115.128 247.519 117.639C247.528 117.972 247.58 118.397 247.508 118.723C247.384 119.28 242.95 118.683 242.501 118.6C238.629 117.889 234.816 116.228 231.204 114.712C230.846 114.561 227.96 113.153 228.254 114.108C228.789 115.846 230.972 116.694 230.824 118.69C230.709 120.236 226.834 119.651 225.907 119.651C224.567 119.651 223.696 119.112 222.476 118.645C221.434 118.246 220.04 117.864 219.258 117.036C218.414 116.142 217.181 115.663 216.342 114.823C215.848 114.33 215.133 114.217 214.732 113.616" stroke="#59AD44" stroke-width="2"/>
<path d="M207 110.269C208.702 111.49 211.531 111.995 213.692 112.508C216.099 113.078 218.341 112.996 220.849 112.996C223.7 112.996 226.479 112.948 229.202 112.238C232.215 111.454 235.328 110.809 238.42 110.235C242.968 109.391 247.442 108.076 252.125 107.702C255.411 107.439 258.783 107.12 262.085 107.088C264.998 107.059 268.335 106.737 271.103 107.542C272.575 107.97 274.896 108.521 276 109.36" stroke="white"/>
<ellipse cx="211" cy="81.4998" rx="1" ry="2.5" transform="rotate(-23.2806 211 81.4998)" fill="#59AD44"/>
<ellipse cx="1" cy="2.5" rx="1" ry="2.5" transform="matrix(-0.91858 -0.395235 -0.395235 0.91858 214.813 79.7905)" fill="#59AD44"/>
<path d="M655.794 230.914C656.059 231.84 655.582 232.948 654.454 234.009C653.337 235.059 651.631 236.007 649.6 236.588C647.568 237.17 645.619 237.268 644.115 236.968C642.597 236.666 641.606 235.977 641.341 235.052C641.076 234.126 641.553 233.018 642.681 231.957C643.798 230.907 645.504 229.959 647.535 229.378C649.567 228.796 651.516 228.698 653.02 228.998C654.538 229.3 655.529 229.989 655.794 230.914Z" fill="#2D5C21" stroke="#23461B" stroke-width="0.5"/>
<path d="M555.325 258.689C555.746 259.555 555.47 260.729 554.544 261.969C553.626 263.198 552.111 264.428 550.211 265.354C548.311 266.28 546.409 266.716 544.876 266.682C543.329 266.648 542.233 266.142 541.811 265.276C541.39 264.411 541.666 263.236 542.592 261.996C543.51 260.768 545.025 259.538 546.925 258.612C548.824 257.686 550.727 257.25 552.26 257.284C553.807 257.318 554.903 257.824 555.325 258.689Z" fill="#2D5C21" stroke="#23461B" stroke-width="0.5"/>
<path d="M625.781 260.372C625.494 261.291 624.487 261.956 622.962 262.222C621.452 262.486 619.506 262.342 617.489 261.712C615.471 261.082 613.788 260.094 612.696 259.018C611.594 257.931 611.144 256.812 611.431 255.893C611.717 254.974 612.724 254.309 614.249 254.042C615.76 253.778 617.706 253.923 619.723 254.553C621.74 255.182 623.423 256.17 624.515 257.247C625.618 258.333 626.068 259.453 625.781 260.372Z" fill="#2D5C21" stroke="#23461B" stroke-width="0.5"/>
<path d="M499.551 242.736C499.955 243.609 499.654 244.778 498.703 245.999C497.76 247.208 496.22 248.407 494.302 249.294C492.384 250.181 490.474 250.578 488.942 250.513C487.395 250.448 486.31 249.92 485.906 249.046C485.502 248.172 485.802 247.003 486.754 245.782C487.696 244.573 489.236 243.374 491.154 242.487C493.072 241.6 494.983 241.203 496.515 241.268C498.062 241.334 499.146 241.862 499.551 242.736Z" fill="#2D5C21" stroke="#23461B" stroke-width="0.5"/>
<path d="M529.386 226.909L524.989 240H519.534L515.136 226.909H520.08L522.193 235.568H522.33L524.443 226.909H529.386ZM530.724 240V226.909H535.429V240H530.724ZM533.077 225.545C532.44 225.545 531.895 225.335 531.44 224.915C530.986 224.494 530.759 223.989 530.759 223.398C530.759 222.807 530.986 222.301 531.44 221.881C531.895 221.46 532.44 221.25 533.077 221.25C533.719 221.25 534.264 221.46 534.713 221.881C535.168 222.301 535.395 222.807 535.395 223.398C535.395 223.989 535.168 224.494 534.713 224.915C534.264 225.335 533.719 225.545 533.077 225.545ZM542.531 222.545V240H537.826V222.545H542.531ZM549.666 240.17C548.734 240.17 547.876 239.926 547.092 239.438C546.314 238.949 545.689 238.207 545.217 237.213C544.751 236.219 544.518 234.966 544.518 233.455C544.518 231.875 544.763 230.591 545.251 229.602C545.746 228.614 546.382 227.889 547.161 227.429C547.945 226.969 548.768 226.739 549.632 226.739C550.28 226.739 550.848 226.852 551.337 227.08C551.825 227.301 552.234 227.599 552.564 227.974C552.893 228.344 553.143 228.75 553.314 229.193H553.382V222.545H558.087V240H553.416V237.852H553.314C553.132 238.295 552.871 238.693 552.53 239.045C552.195 239.392 551.786 239.668 551.303 239.872C550.825 240.071 550.28 240.17 549.666 240.17ZM551.405 236.557C551.837 236.557 552.206 236.432 552.513 236.182C552.825 235.926 553.064 235.568 553.229 235.108C553.399 234.642 553.484 234.091 553.484 233.455C553.484 232.807 553.399 232.253 553.229 231.793C553.064 231.327 552.825 230.972 552.513 230.727C552.206 230.477 551.837 230.352 551.405 230.352C550.973 230.352 550.604 230.477 550.297 230.727C549.996 230.972 549.763 231.327 549.598 231.793C549.439 232.253 549.359 232.807 549.359 233.455C549.359 234.102 549.439 234.659 549.598 235.125C549.763 235.585 549.996 235.94 550.297 236.19C550.604 236.435 550.973 236.557 551.405 236.557ZM565.178 240V226.909H569.643V229.398H569.78C570.053 228.58 570.518 227.932 571.178 227.455C571.837 226.977 572.621 226.739 573.53 226.739C574.45 226.739 575.243 226.983 575.908 227.472C576.572 227.955 576.973 228.597 577.109 229.398H577.246C577.467 228.597 577.939 227.955 578.661 227.472C579.382 226.983 580.229 226.739 581.2 226.739C582.456 226.739 583.473 227.142 584.251 227.949C585.036 228.756 585.428 229.83 585.428 231.17V240H580.723V232.364C580.723 231.79 580.578 231.341 580.288 231.017C579.999 230.687 579.609 230.523 579.121 230.523C578.638 230.523 578.254 230.687 577.97 231.017C577.692 231.341 577.553 231.79 577.553 232.364V240H573.053V232.364C573.053 231.79 572.908 231.341 572.618 231.017C572.328 230.687 571.939 230.523 571.45 230.523C571.126 230.523 570.848 230.597 570.615 230.744C570.382 230.892 570.2 231.105 570.07 231.384C569.945 231.656 569.882 231.983 569.882 232.364V240H565.178ZM591.396 240.205C590.56 240.205 589.822 240.068 589.18 239.795C588.543 239.517 588.043 239.097 587.68 238.534C587.316 237.972 587.134 237.256 587.134 236.386C587.134 235.67 587.256 235.06 587.501 234.554C587.745 234.043 588.086 233.625 588.523 233.301C588.961 232.977 589.469 232.73 590.049 232.56C590.634 232.389 591.265 232.278 591.941 232.227C592.674 232.17 593.262 232.102 593.705 232.023C594.154 231.937 594.478 231.821 594.677 231.673C594.876 231.52 594.975 231.318 594.975 231.068V231.034C594.975 230.693 594.844 230.432 594.583 230.25C594.322 230.068 593.987 229.977 593.577 229.977C593.129 229.977 592.762 230.077 592.478 230.276C592.2 230.469 592.032 230.767 591.975 231.17H587.646C587.702 230.375 587.955 229.642 588.404 228.972C588.859 228.295 589.521 227.756 590.39 227.352C591.259 226.943 592.344 226.739 593.646 226.739C594.583 226.739 595.424 226.849 596.168 227.071C596.913 227.287 597.546 227.591 598.069 227.983C598.592 228.369 598.989 228.824 599.262 229.347C599.54 229.864 599.68 230.426 599.68 231.034V240H595.282V238.159H595.18C594.918 238.648 594.6 239.043 594.225 239.344C593.856 239.645 593.433 239.864 592.955 240C592.484 240.136 591.964 240.205 591.396 240.205ZM592.93 237.239C593.288 237.239 593.623 237.165 593.935 237.017C594.254 236.869 594.512 236.656 594.711 236.378C594.91 236.099 595.009 235.761 595.009 235.364V234.273C594.884 234.324 594.751 234.372 594.609 234.418C594.472 234.463 594.325 234.506 594.165 234.545C594.012 234.585 593.847 234.622 593.671 234.656C593.501 234.69 593.322 234.722 593.134 234.75C592.771 234.807 592.472 234.901 592.239 235.031C592.012 235.156 591.842 235.312 591.728 235.5C591.62 235.682 591.566 235.886 591.566 236.114C591.566 236.477 591.694 236.756 591.95 236.949C592.205 237.142 592.532 237.239 592.93 237.239ZM606.666 240.17C605.734 240.17 604.876 239.926 604.092 239.438C603.314 238.949 602.689 238.207 602.217 237.213C601.751 236.219 601.518 234.966 601.518 233.455C601.518 231.875 601.763 230.591 602.251 229.602C602.746 228.614 603.382 227.889 604.161 227.429C604.945 226.969 605.768 226.739 606.632 226.739C607.28 226.739 607.848 226.852 608.337 227.08C608.825 227.301 609.234 227.599 609.564 227.974C609.893 228.344 610.143 228.75 610.314 229.193H610.382V222.545H615.087V240H610.416V237.852H610.314C610.132 238.295 609.871 238.693 609.53 239.045C609.195 239.392 608.786 239.668 608.303 239.872C607.825 240.071 607.28 240.17 606.666 240.17ZM608.405 236.557C608.837 236.557 609.206 236.432 609.513 236.182C609.825 235.926 610.064 235.568 610.229 235.108C610.399 234.642 610.484 234.091 610.484 233.455C610.484 232.807 610.399 232.253 610.229 231.793C610.064 231.327 609.825 230.972 609.513 230.727C609.206 230.477 608.837 230.352 608.405 230.352C607.973 230.352 607.604 230.477 607.297 230.727C606.996 230.972 606.763 231.327 606.598 231.793C606.439 232.253 606.359 232.807 606.359 233.455C606.359 234.102 606.439 234.659 606.598 235.125C606.763 235.585 606.996 235.94 607.297 236.19C607.604 236.435 607.973 236.557 608.405 236.557Z" fill="black"/>
<path d="M487 235.518C487.177 229.808 495.097 226.731 498.617 231.865C500.323 234.353 500.096 237.235 501.569 239.652C505.209 245.624 509.548 252.491 516.804 254.362C522.649 255.869 526.519 251.713 531.564 249.747C535.824 248.087 540.678 245.901 545.276 245.901C551.964 245.901 557.988 253.607 561.368 258.88C564.41 263.628 573.951 251.886 575.746 249.555C577.354 247.468 582.487 246.767 585.078 246.767C590.474 246.767 596.667 251.938 601.456 254.17C605.027 255.834 609.771 254.523 611.74 251.285C612.901 249.377 613.074 244.587 614.216 243.306C618.063 238.99 625.211 239.844 630.308 239.844C631.551 239.844 635.345 240.588 636.307 239.268C638.749 235.915 637.831 229.917 637.831 226" stroke="#723F38" stroke-width="3" stroke-linecap="round"/>
<line x1="641.708" y1="235.683" x2="655.708" y2="230.683" stroke="#23461B" stroke-width="0.5"/>
<line x1="541.516" y1="266.052" x2="554.433" y2="258.695" stroke="#23461B" stroke-width="0.5"/>
<line x1="611.076" y1="255.762" x2="625.243" y2="260.266" stroke="#23461B" stroke-width="0.5"/>
<line x1="486.365" y1="249.614" x2="499.43" y2="242.521" stroke="#23461B" stroke-width="0.5"/>
<path d="M120.633 22.8385C123.461 22.0844 125.34 22.0551 128.043 22.054C126.54 27.6456 125.545 30.3414 123.765 32.4529C122.857 33.5293 121.738 34.462 120.222 35.5485C119.275 36.2277 118.18 36.9613 116.891 37.8253C116.113 38.3469 115.264 38.9159 114.334 39.5492C109.422 42.8931 104.542 45.2669 100.629 46.4058C98.6713 46.9756 96.9695 47.2321 95.6332 47.1548C94.2924 47.0771 93.3676 46.6678 92.8851 45.9592C92.4027 45.2505 92.3611 44.24 92.7805 42.9641C93.1985 41.6925 94.0612 40.2033 95.3092 38.5908C97.8006 35.3719 101.792 31.7075 106.696 28.3668C113.697 25.2006 117.683 23.6249 120.633 22.8385Z" fill="#3F7F30" stroke="#23461B" stroke-width="0.5"/>
<path d="M112.538 99.5228C112.538 127.2 96.524 149.636 76.7692 149.636C57.0144 149.636 41 127.2 41 99.5228C41 71.8458 57.0144 49.4092 76.7692 49.4092C96.524 49.4092 112.538 71.8458 112.538 99.5228Z" fill="#D73D3D"/>
<path d="M146 99.5228C146 127.2 129.986 149.636 110.231 149.636C90.476 149.636 74.4615 127.2 74.4615 99.5228C74.4615 71.8458 90.476 49.4092 110.231 49.4092C129.986 49.4092 146 71.8458 146 99.5228Z" fill="#D73D3D"/>
<rect x="71.8779" y="97.8098" width="8.24663" height="2.36643" transform="rotate(-4.68414 71.8779 97.8098)" fill="white"/>
<rect x="67.2686" y="95.5454" width="9.86611" height="1.7203" transform="rotate(28.26 67.2686 95.5454)" fill="white"/>
<rect x="66.9814" y="95.5205" width="16.2186" height="2.58049" transform="rotate(0.535849 66.9814 95.5205)" fill="white"/>
<rect width="11.4995" height="2.24434" transform="matrix(-0.880808 0.473473 0.473473 0.880808 82.9482 95.5454)" fill="white"/>
<rect x="66.6133" y="97.1675" width="15.44" height="3.18182" transform="rotate(-90 66.6133 97.1675)" fill="white"/>
<rect x="73.4844" y="97.1755" width="15.3116" height="2.96542" transform="rotate(-90 73.4844 97.1755)" fill="white"/>
<rect x="80.9277" y="97.167" width="15.0389" height="3.15745" transform="rotate(-90 80.9277 97.167)" fill="white"/>
<rect x="76" y="99.9399" width="49.6543" height="3.18182" transform="rotate(89.9856 76 99.9399)" fill="white"/>
<rect x="111.522" y="101.909" width="47.685" height="2.88396" transform="rotate(89.9856 111.522 101.909)" fill="white"/>
<ellipse cx="110.205" cy="93.1591" rx="7.15909" ry="11.9318" fill="white"/>
<path d="M796.181 18.2986C799.217 17.4892 801.232 17.4598 804.136 17.4587C802.524 23.4549 801.459 26.3467 799.549 28.6116C798.577 29.7646 797.379 30.7633 795.757 31.926C794.743 32.6526 793.572 33.4377 792.193 34.3621C791.361 34.92 790.453 35.5287 789.458 36.2058C784.202 39.7837 778.98 42.324 774.792 43.5429C772.697 44.1528 770.874 44.4278 769.442 44.3448C768.005 44.2616 767.009 43.8228 766.489 43.0582C765.968 42.2937 765.925 41.2062 766.375 39.8391C766.823 38.4762 767.747 36.8814 769.083 35.1556C771.749 31.7101 776.021 27.7886 781.268 24.214C788.759 20.8266 793.024 19.1402 796.181 18.2986Z" fill="#2D5C21" stroke="#23461B" stroke-width="0.5"/>
<path d="M787.527 100.347C787.527 129.954 770.396 153.956 749.264 153.956C728.131 153.956 711 129.954 711 100.347C711 70.7403 728.131 46.739 749.264 46.739C770.396 46.739 787.527 70.7403 787.527 100.347Z" fill="#2D5C21"/>
<path d="M823.322 100.347C823.322 129.954 806.191 153.956 785.059 153.956C763.926 153.956 746.795 129.954 746.795 100.347C746.795 70.7403 763.926 46.739 785.059 46.739C806.191 46.739 823.322 70.7403 823.322 100.347Z" fill="#2D5C21"/>
<rect x="744.031" y="98.5149" width="8.82172" height="2.53145" transform="rotate(-4.68414 744.031 98.5149)" fill="white"/>
<rect x="739.101" y="96.0928" width="10.5541" height="1.84026" transform="rotate(28.26 739.101 96.0928)" fill="white"/>
<rect x="738.793" y="96.0662" width="17.3496" height="2.76045" transform="rotate(0.535849 738.793 96.0662)" fill="white"/>
<rect width="12.3015" height="2.40086" transform="matrix(-0.880808 0.473473 0.473473 0.880808 755.873 96.0928)" fill="white"/>
<rect x="738.399" y="97.8279" width="16.5167" height="3.40371" transform="rotate(-90 738.399 97.8279)" fill="white"/>
<rect x="745.75" y="97.8364" width="16.3794" height="3.17222" transform="rotate(-90 745.75 97.8364)" fill="white"/>
<rect x="753.713" y="97.8274" width="16.0877" height="3.37764" transform="rotate(-90 753.713 97.8274)" fill="white"/>
<rect x="748.44" y="100.793" width="53.117" height="3.40371" transform="rotate(89.9856 748.44 100.793)" fill="white"/>
<rect x="786.44" y="102.9" width="51.0104" height="3.08508" transform="rotate(89.9856 786.44 102.9)" fill="white"/>
<ellipse cx="785.03" cy="93.5398" rx="7.65834" ry="12.7639" fill="white"/>
<rect x="527" y="62" width="137" height="71" rx="9" fill="white" stroke="#812199" stroke-width="4"/>
<path d="M568.898 73.5455L572.477 85.8523H572.614L576.193 73.5455H581.545L575.784 91H569.307L563.545 73.5455H568.898ZM592.746 73.5455V91H588.008V73.5455H592.746ZM599.773 91V73.5455H604.512V87.1818H611.569V91H599.773ZM624.982 91H618.266V73.5455H624.913C626.709 73.5455 628.26 73.8949 629.567 74.5938C630.879 75.2869 631.891 76.2869 632.601 77.5938C633.317 78.8949 633.675 80.4545 633.675 82.2727C633.675 84.0909 633.32 85.6534 632.609 86.9602C631.899 88.2614 630.893 89.2614 629.592 89.9602C628.291 90.6534 626.754 91 624.982 91ZM623.004 86.9773H624.811C625.675 86.9773 626.411 86.8381 627.018 86.5597C627.632 86.2812 628.098 85.8011 628.416 85.1193C628.74 84.4375 628.902 83.4886 628.902 82.2727C628.902 81.0568 628.737 80.108 628.408 79.4261C628.084 78.7443 627.607 78.2642 626.976 77.9858C626.351 77.7074 625.584 77.5682 624.675 77.5682H623.004V86.9773Z" fill="#2D5C21"/>
<path d="M562.125 103.545H568.023L572.08 113.432H572.284L576.341 103.545H582.239V121H577.602V110.909H577.466L573.58 120.864H570.784L566.898 110.841H566.761V121H562.125V103.545ZM593.8 121H588.686L594.447 103.545H600.925L606.686 121H601.572L597.754 108.352H597.618L593.8 121ZM592.845 114.114H602.459V117.659H592.845V114.114ZM619.864 121H613.148V103.545H619.796C621.592 103.545 623.143 103.895 624.45 104.594C625.762 105.287 626.773 106.287 627.484 107.594C628.2 108.895 628.558 110.455 628.558 112.273C628.558 114.091 628.202 115.653 627.492 116.96C626.782 118.261 625.776 119.261 624.475 119.96C623.174 120.653 621.637 121 619.864 121ZM617.887 116.977H619.694C620.558 116.977 621.293 116.838 621.901 116.56C622.515 116.281 622.981 115.801 623.299 115.119C623.623 114.437 623.785 113.489 623.785 112.273C623.785 111.057 623.62 110.108 623.29 109.426C622.967 108.744 622.489 108.264 621.859 107.986C621.234 107.707 620.467 107.568 619.558 107.568H617.887V116.977Z" fill="#649A57"/>
<rect x="582" y="50" width="28" height="20" fill="white"/>
<path d="M615.635 40.9904C615.39 48.5339 614.764 48.4488 609.686 53.9604C604.608 59.4719 599.038 62.6011 597.246 60.9496C595.453 59.2981 598.116 53.4912 603.194 47.9797C610.878 42.0973 612.103 41.8122 615.635 40.9904Z" fill="#649A57"/>
<path d="M574.257 40.9904C574.502 48.5339 575.128 48.4488 580.206 53.9604C585.284 59.4719 590.853 62.6011 592.646 60.9496C594.438 59.2981 591.775 53.4912 586.697 47.9797C579.013 42.0973 577.788 41.8122 574.257 40.9904Z" fill="#649A57"/>
<line x1="545" y1="97.5" x2="645" y2="97.5" stroke="#FF9C42"/>
<path d="M273.28 235.72L266.08 256H261.88L254.68 235.72H259.32L262.8 245.84L264.12 250.04L265.4 245.84L268.72 235.72H273.28ZM281.841 231.88H277.001V227.12H281.841V231.88ZM281.721 256H277.121V235.72H281.721V256ZM287.938 250.28V226.4H292.538V250.28C292.538 250.68 292.632 251.067 292.818 251.44C293.032 251.787 293.432 251.96 294.018 251.96H294.658V256.2H293.538C292.018 256.2 290.858 255.907 290.058 255.32C289.258 254.733 288.698 253.987 288.378 253.08C288.085 252.173 287.938 251.24 287.938 250.28ZM310.993 256V253.24C309.766 254.467 308.7 255.307 307.793 255.76C306.913 256.187 305.993 256.4 305.033 256.4C302.846 256.4 301.14 255.573 299.913 253.92C298.713 252.267 298.113 249.947 298.113 246.96V244.8C298.113 241.893 298.846 239.587 300.313 237.88C301.78 236.173 303.9 235.32 306.673 235.32C307.366 235.32 308.046 235.387 308.713 235.52C309.406 235.653 310.086 235.84 310.753 236.08V226.4H315.353V256H310.993ZM302.833 246.96C302.833 248.747 303.126 250.053 303.713 250.88C304.326 251.707 305.18 252.12 306.273 252.12C306.886 252.12 307.54 251.947 308.233 251.6C308.926 251.227 309.766 250.533 310.753 249.52V240.24C309.446 239.707 308.246 239.44 307.153 239.44C305.606 239.44 304.5 239.92 303.833 240.88C303.166 241.84 302.833 243.147 302.833 244.8V246.96Z" fill="#2D5C21"/>
<path d="M334.299 241.96V256H329.699V235.72H334.059V238.4C335.312 237.307 336.472 236.52 337.539 236.04C338.606 235.56 339.699 235.32 340.819 235.32C343.299 235.32 344.992 236.413 345.899 238.6C347.232 237.427 348.472 236.587 349.619 236.08C350.766 235.573 351.926 235.32 353.099 235.32C354.966 235.32 356.392 235.947 357.379 237.2C358.366 238.427 358.859 240.16 358.859 242.4V256H354.259V242.96C354.259 240.72 353.406 239.6 351.699 239.6C351.032 239.6 350.299 239.76 349.499 240.08C348.699 240.4 347.726 241.027 346.579 241.96V256H341.979V242.96C341.979 240.72 341.126 239.6 339.419 239.6C338.752 239.6 338.019 239.76 337.219 240.08C336.419 240.4 335.446 241.027 334.299 241.96ZM380.293 256.2C378.933 256.2 377.84 255.92 377.013 255.36C376.213 254.8 375.627 254.107 375.253 253.28C374.107 254.347 373 255.133 371.933 255.64C370.867 256.147 369.72 256.4 368.493 256.4C366.707 256.4 365.387 255.827 364.533 254.68C363.707 253.533 363.293 252.08 363.293 250.32C363.293 249.147 363.507 248.12 363.933 247.24C364.387 246.333 365.12 245.627 366.133 245.12C367.147 244.613 368.533 244.36 370.293 244.36C370.987 244.36 371.707 244.413 372.453 244.52C373.2 244.6 373.947 244.707 374.693 244.84V242.48C374.693 241.36 374.387 240.6 373.773 240.2C373.16 239.773 372.333 239.56 371.293 239.56C370.493 239.56 369.613 239.667 368.653 239.88C367.72 240.093 366.707 240.427 365.613 240.88L364.293 236.96C366.987 235.867 369.427 235.32 371.613 235.32C373.587 235.32 375.107 235.653 376.173 236.32C377.267 236.987 378.027 237.867 378.453 238.96C378.88 240.053 379.093 241.227 379.093 242.48V250.28C379.093 250.68 379.2 251.067 379.413 251.44C379.653 251.787 380.107 251.96 380.773 251.96H381.213V256.2H380.293ZM367.733 250.24C367.733 250.96 367.893 251.533 368.213 251.96C368.533 252.36 369 252.56 369.613 252.56C370.227 252.56 370.92 252.4 371.693 252.08C372.467 251.76 373.467 251.013 374.693 249.84V248.12C373.307 247.88 371.947 247.76 370.613 247.76C369.573 247.76 368.827 247.973 368.373 248.4C367.947 248.827 367.733 249.44 367.733 250.24ZM397.087 256V253.24C395.86 254.467 394.794 255.307 393.887 255.76C393.007 256.187 392.087 256.4 391.127 256.4C388.94 256.4 387.234 255.573 386.007 253.92C384.807 252.267 384.207 249.947 384.207 246.96V244.8C384.207 241.893 384.94 239.587 386.407 237.88C387.874 236.173 389.994 235.32 392.767 235.32C393.46 235.32 394.14 235.387 394.807 235.52C395.5 235.653 396.18 235.84 396.847 236.08V226.4H401.447V256H397.087ZM388.927 246.96C388.927 248.747 389.22 250.053 389.807 250.88C390.42 251.707 391.274 252.12 392.367 252.12C392.98 252.12 393.634 251.947 394.327 251.6C395.02 251.227 395.86 250.533 396.847 249.52V240.24C395.54 239.707 394.34 239.44 393.247 239.44C391.7 239.44 390.594 239.92 389.927 240.88C389.26 241.84 388.927 243.147 388.927 244.8V246.96Z" fill="black"/>
</svg>
