<svg width="89" height="19" viewBox="0 0 89 19" fill="none" xmlns="http://www.w3.org/2000/svg">
<path d="M11.568 5.832L7.248 18H4.728L0.408 5.832H3.192L5.28 11.904L6.072 14.424L6.84 11.904L8.832 5.832H11.568ZM16.7046 3.528H13.8006V0.671999H16.7046V3.528ZM16.6326 18H13.8726V5.832H16.6326V18ZM20.3631 14.568V0.24H23.1231V14.568C23.1231 14.808 23.1791 15.04 23.2911 15.264C23.4191 15.472 23.6591 15.576 24.0111 15.576H24.3951V18.12H23.7231C22.8111 18.12 22.1151 17.944 21.6351 17.592C21.1551 17.24 20.8191 16.792 20.6271 16.248C20.4511 15.704 20.3631 15.144 20.3631 14.568ZM34.1959 18V16.344C33.4599 17.08 32.8199 17.584 32.2759 17.856C31.7479 18.112 31.1959 18.24 30.6199 18.24C29.3079 18.24 28.2839 17.744 27.5479 16.752C26.8279 15.76 26.4679 14.368 26.4679 12.576V11.28C26.4679 9.536 26.9079 8.152 27.7879 7.128C28.6679 6.104 29.9399 5.592 31.6039 5.592C32.0199 5.592 32.4279 5.632 32.8279 5.712C33.2439 5.792 33.6519 5.904 34.0519 6.048V0.24H36.8119V18H34.1959ZM29.2999 12.576C29.2999 13.648 29.4759 14.432 29.8279 14.928C30.1959 15.424 30.7079 15.672 31.3639 15.672C31.7319 15.672 32.1239 15.568 32.5399 15.36C32.9559 15.136 33.4599 14.72 34.0519 14.112V8.544C33.2679 8.224 32.5479 8.064 31.8919 8.064C30.9639 8.064 30.2999 8.352 29.8999 8.928C29.4999 9.504 29.2999 10.288 29.2999 11.28V12.576Z" fill="#2D5C21"/>
<path d="M48.1794 9.576V18H45.4194V5.832H48.0354V7.44C48.7874 6.784 49.4834 6.312 50.1234 6.024C50.7634 5.736 51.4194 5.592 52.0914 5.592C53.5794 5.592 54.5954 6.248 55.1394 7.56C55.9394 6.856 56.6834 6.352 57.3714 6.048C58.0594 5.744 58.7554 5.592 59.4594 5.592C60.5794 5.592 61.4354 5.968 62.0274 6.72C62.6194 7.456 62.9154 8.496 62.9154 9.84V18H60.1554V10.176C60.1554 8.832 59.6434 8.16 58.6194 8.16C58.2194 8.16 57.7794 8.256 57.2994 8.448C56.8194 8.64 56.2354 9.016 55.5474 9.576V18H52.7874V10.176C52.7874 8.832 52.2754 8.16 51.2514 8.16C50.8514 8.16 50.4114 8.256 49.9314 8.448C49.4514 8.64 48.8674 9.016 48.1794 9.576ZM75.7761 18.12C74.9601 18.12 74.3041 17.952 73.8081 17.616C73.3281 17.28 72.9761 16.864 72.7521 16.368C72.0641 17.008 71.4001 17.48 70.7601 17.784C70.1201 18.088 69.4321 18.24 68.6961 18.24C67.6241 18.24 66.8321 17.896 66.3201 17.208C65.8241 16.52 65.5761 15.648 65.5761 14.592C65.5761 13.888 65.7041 13.272 65.9601 12.744C66.2321 12.2 66.6721 11.776 67.2801 11.472C67.8881 11.168 68.7201 11.016 69.7761 11.016C70.1921 11.016 70.6241 11.048 71.0721 11.112C71.5201 11.16 71.9681 11.224 72.4161 11.304V9.888C72.4161 9.216 72.2321 8.76 71.8641 8.52C71.4961 8.264 71.0001 8.136 70.3761 8.136C69.8961 8.136 69.3681 8.2 68.7921 8.328C68.2321 8.456 67.6241 8.656 66.9681 8.928L66.1761 6.576C67.7921 5.92 69.2561 5.592 70.5681 5.592C71.7521 5.592 72.6641 5.792 73.3041 6.192C73.9601 6.592 74.4161 7.12 74.6721 7.776C74.9281 8.432 75.0561 9.136 75.0561 9.888V14.568C75.0561 14.808 75.1201 15.04 75.2481 15.264C75.3921 15.472 75.6641 15.576 76.0641 15.576H76.3281V18.12H75.7761ZM68.2401 14.544C68.2401 14.976 68.3361 15.32 68.5281 15.576C68.7201 15.816 69.0001 15.936 69.3681 15.936C69.7361 15.936 70.1521 15.84 70.6161 15.648C71.0801 15.456 71.6801 15.008 72.4161 14.304V13.272C71.5841 13.128 70.7681 13.056 69.9681 13.056C69.3441 13.056 68.8961 13.184 68.6241 13.44C68.3681 13.696 68.2401 14.064 68.2401 14.544ZM85.8521 18V16.344C85.1161 17.08 84.4761 17.584 83.9321 17.856C83.4041 18.112 82.8521 18.24 82.2761 18.24C80.9641 18.24 79.9401 17.744 79.2041 16.752C78.4841 15.76 78.1241 14.368 78.1241 12.576V11.28C78.1241 9.536 78.5641 8.152 79.4441 7.128C80.3241 6.104 81.5961 5.592 83.2601 5.592C83.6761 5.592 84.0841 5.632 84.4841 5.712C84.9001 5.792 85.3081 5.904 85.7081 6.048V0.24H88.4681V18H85.8521ZM80.9561 12.576C80.9561 13.648 81.1321 14.432 81.4841 14.928C81.8521 15.424 82.3641 15.672 83.0201 15.672C83.3881 15.672 83.7801 15.568 84.1961 15.36C84.6121 15.136 85.1161 14.72 85.7081 14.112V8.544C84.9241 8.224 84.2041 8.064 83.5481 8.064C82.6201 8.064 81.9561 8.352 81.5561 8.928C81.1561 9.504 80.9561 10.288 80.9561 11.28V12.576Z" fill="black"/>
</svg>
