<svg width="171" height="62" viewBox="0 0 171 62" fill="none" xmlns="http://www.w3.org/2000/svg">
<path d="M44.3864 9.90909L39.9886 23H34.5341L30.1364 9.90909H35.0795L37.1932 18.5682H37.3295L39.4432 9.90909H44.3864ZM45.7244 23V9.90909H50.429V23H45.7244ZM48.0767 8.54545C47.4403 8.54545 46.8949 8.33523 46.4403 7.91477C45.9858 7.49432 45.7585 6.98864 45.7585 6.39773C45.7585 5.80682 45.9858 5.30114 46.4403 4.88068C46.8949 4.46023 47.4403 4.25 48.0767 4.25C48.7188 4.25 49.2642 4.46023 49.7131 4.88068C50.1676 5.30114 50.3949 5.80682 50.3949 6.39773C50.3949 6.98864 50.1676 7.49432 49.7131 7.91477C49.2642 8.33523 48.7188 8.54545 48.0767 8.54545ZM57.5305 5.54545V23H52.826V5.54545H57.5305ZM64.6662 23.1705C63.7344 23.1705 62.8764 22.9261 62.0923 22.4375C61.3139 21.9489 60.6889 21.2074 60.2173 20.2131C59.7514 19.2187 59.5185 17.9659 59.5185 16.4545C59.5185 14.875 59.7628 13.5909 60.2514 12.6023C60.7457 11.6136 61.3821 10.8892 62.1605 10.429C62.9446 9.96875 63.7685 9.73864 64.6321 9.73864C65.2798 9.73864 65.848 9.85227 66.3366 10.0795C66.8253 10.3011 67.2344 10.5994 67.5639 10.9744C67.8935 11.3437 68.1435 11.75 68.3139 12.1932H68.3821V5.54545H73.0866V23H68.4162V20.8523H68.3139C68.1321 21.2955 67.8707 21.6932 67.5298 22.0455C67.1946 22.392 66.7855 22.6676 66.3026 22.8722C65.8253 23.071 65.2798 23.1705 64.6662 23.1705ZM66.4048 19.5568C66.8366 19.5568 67.206 19.4318 67.5128 19.1818C67.8253 18.9261 68.0639 18.5682 68.2287 18.108C68.3991 17.642 68.4844 17.0909 68.4844 16.4545C68.4844 15.8068 68.3991 15.2528 68.2287 14.7926C68.0639 14.3267 67.8253 13.9716 67.5128 13.7273C67.206 13.4773 66.8366 13.3523 66.4048 13.3523C65.973 13.3523 65.6037 13.4773 65.2969 13.7273C64.9957 13.9716 64.7628 14.3267 64.598 14.7926C64.4389 15.2528 64.3594 15.8068 64.3594 16.4545C64.3594 17.1023 64.4389 17.6591 64.598 18.125C64.7628 18.5852 64.9957 18.9403 65.2969 19.1903C65.6037 19.4347 65.973 19.5568 66.4048 19.5568ZM80.1776 23V9.90909H84.6435V12.3977H84.7798C85.0526 11.5795 85.5185 10.9318 86.1776 10.4545C86.8366 9.97727 87.6207 9.73864 88.5298 9.73864C89.4503 9.73864 90.2429 9.98295 90.9077 10.4716C91.5724 10.9545 91.973 11.5966 92.1094 12.3977H92.2457C92.4673 11.5966 92.9389 10.9545 93.6605 10.4716C94.3821 9.98295 95.2287 9.73864 96.2003 9.73864C97.456 9.73864 98.473 10.142 99.2514 10.9489C100.036 11.7557 100.428 12.8295 100.428 14.1705V23H95.723V15.3636C95.723 14.7898 95.5781 14.3409 95.2884 14.017C94.9986 13.6875 94.6094 13.5227 94.1207 13.5227C93.6378 13.5227 93.2543 13.6875 92.9702 14.017C92.6918 14.3409 92.5526 14.7898 92.5526 15.3636V23H88.0526V15.3636C88.0526 14.7898 87.9077 14.3409 87.6179 14.017C87.3281 13.6875 86.9389 13.5227 86.4503 13.5227C86.1264 13.5227 85.848 13.5966 85.6151 13.7443C85.3821 13.892 85.2003 14.1051 85.0696 14.3835C84.9446 14.6562 84.8821 14.983 84.8821 15.3636V23H80.1776ZM106.396 23.2045C105.56 23.2045 104.822 23.0682 104.18 22.7955C103.543 22.517 103.043 22.0966 102.68 21.5341C102.316 20.9716 102.134 20.2557 102.134 19.3864C102.134 18.6705 102.256 18.0597 102.501 17.554C102.745 17.0426 103.086 16.625 103.523 16.3011C103.961 15.9773 104.469 15.7301 105.049 15.5597C105.634 15.3892 106.265 15.2784 106.941 15.2273C107.674 15.1705 108.262 15.1023 108.705 15.0227C109.154 14.9375 109.478 14.821 109.677 14.6733C109.876 14.5199 109.975 14.3182 109.975 14.0682V14.0341C109.975 13.6932 109.844 13.4318 109.583 13.25C109.322 13.0682 108.987 12.9773 108.577 12.9773C108.129 12.9773 107.762 13.0767 107.478 13.2756C107.2 13.4687 107.032 13.767 106.975 14.1705H102.646C102.702 13.375 102.955 12.642 103.404 11.9716C103.859 11.2955 104.521 10.7557 105.39 10.3523C106.259 9.94318 107.344 9.73864 108.646 9.73864C109.583 9.73864 110.424 9.84943 111.168 10.071C111.913 10.2869 112.546 10.5909 113.069 10.983C113.592 11.3693 113.989 11.8239 114.262 12.3466C114.54 12.8636 114.68 13.4261 114.68 14.0341V23H110.282V21.1591H110.18C109.918 21.6477 109.6 22.0426 109.225 22.3438C108.856 22.6449 108.433 22.8636 107.955 23C107.484 23.1364 106.964 23.2045 106.396 23.2045ZM107.93 20.2386C108.288 20.2386 108.623 20.1648 108.935 20.017C109.254 19.8693 109.512 19.6562 109.711 19.3778C109.91 19.0994 110.009 18.7614 110.009 18.3636V17.2727C109.884 17.3239 109.751 17.3722 109.609 17.4176C109.472 17.4631 109.325 17.5057 109.165 17.5455C109.012 17.5852 108.847 17.6222 108.671 17.6562C108.501 17.6903 108.322 17.7216 108.134 17.75C107.771 17.8068 107.472 17.9006 107.239 18.0312C107.012 18.1562 106.842 18.3125 106.728 18.5C106.62 18.6818 106.566 18.8864 106.566 19.1136C106.566 19.4773 106.694 19.7557 106.95 19.9489C107.205 20.142 107.532 20.2386 107.93 20.2386ZM121.666 23.1705C120.734 23.1705 119.876 22.9261 119.092 22.4375C118.314 21.9489 117.689 21.2074 117.217 20.2131C116.751 19.2187 116.518 17.9659 116.518 16.4545C116.518 14.875 116.763 13.5909 117.251 12.6023C117.746 11.6136 118.382 10.8892 119.161 10.429C119.945 9.96875 120.768 9.73864 121.632 9.73864C122.28 9.73864 122.848 9.85227 123.337 10.0795C123.825 10.3011 124.234 10.5994 124.564 10.9744C124.893 11.3437 125.143 11.75 125.314 12.1932H125.382V5.54545H130.087V23H125.416V20.8523H125.314C125.132 21.2955 124.871 21.6932 124.53 22.0455C124.195 22.392 123.786 22.6676 123.303 22.8722C122.825 23.071 122.28 23.1705 121.666 23.1705ZM123.405 19.5568C123.837 19.5568 124.206 19.4318 124.513 19.1818C124.825 18.9261 125.064 18.5682 125.229 18.108C125.399 17.642 125.484 17.0909 125.484 16.4545C125.484 15.8068 125.399 15.2528 125.229 14.7926C125.064 14.3267 124.825 13.9716 124.513 13.7273C124.206 13.4773 123.837 13.3523 123.405 13.3523C122.973 13.3523 122.604 13.4773 122.297 13.7273C121.996 13.9716 121.763 14.3267 121.598 14.7926C121.439 15.2528 121.359 15.8068 121.359 16.4545C121.359 17.1023 121.439 17.6591 121.598 18.125C121.763 18.5852 121.996 18.9403 122.297 19.1903C122.604 19.4347 122.973 19.5568 123.405 19.5568Z" fill="black"/>
<path d="M2 18.518C2.17672 12.8082 10.0973 9.73146 13.617 14.8646C15.323 17.3527 15.0956 20.2349 16.5689 22.6521C20.2086 28.6238 24.5476 35.4911 31.8043 37.3618C37.6493 38.8685 41.5189 34.7129 46.5636 32.747C50.8242 31.0867 55.678 28.9013 60.2755 28.9013C66.9645 28.9013 72.9885 36.6072 76.368 41.8805C79.4104 46.6279 88.9508 34.8856 90.7464 32.5547C92.3541 30.4678 97.4875 29.7666 100.078 29.7666C105.474 29.7666 111.667 34.9375 116.456 37.1695C120.027 38.8337 124.771 37.523 126.74 34.2853C127.901 32.3767 128.074 27.587 129.216 26.3055C133.063 21.9901 140.211 22.8444 145.308 22.8444C146.551 22.8444 150.345 23.5883 151.307 22.2676C153.749 18.9147 152.831 12.9172 152.831 9" stroke="#723F38" stroke-width="3" stroke-linecap="round"/>
<line x1="156.708" y1="18.6833" x2="170.708" y2="13.6833" stroke="#23461B" stroke-width="0.5"/>
<line x1="56.516" y1="49.0524" x2="69.4336" y2="41.6947" stroke="#23461B" stroke-width="0.5"/>
<line x1="126.076" y1="38.7618" x2="140.243" y2="43.2665" stroke="#23461B" stroke-width="0.5"/>
<line x1="1.36533" y1="32.6137" x2="14.43" y2="25.5205" stroke="#23461B" stroke-width="0.5"/>
</svg>
