<svg width="174" height="62" viewBox="0 0 174 62" fill="none" xmlns="http://www.w3.org/2000/svg">
<path d="M171.794 13.9143C172.059 14.8399 171.582 15.9484 170.454 17.0086C169.337 18.0588 167.631 19.0066 165.6 19.5882C163.568 20.1698 161.619 20.2682 160.115 19.9684C158.597 19.6657 157.606 18.9772 157.341 18.0516C157.076 17.1261 157.553 16.0175 158.681 14.9574C159.798 13.9071 161.504 12.9594 163.535 12.3778C165.567 11.7962 167.516 11.6977 169.02 11.9975C170.538 12.3002 171.529 12.9888 171.794 13.9143Z" fill="#2D5C21" stroke="#23461B" stroke-width="0.5"/>
<path d="M71.3241 41.6895C71.746 42.5549 71.4696 43.7294 70.5431 44.9695C69.6253 46.198 68.1102 47.4279 66.2106 48.3538C64.311 49.2798 62.4088 49.7156 60.8757 49.6818C59.3281 49.6476 58.2327 49.1418 57.8108 48.2764C57.389 47.411 57.6654 46.2365 58.5919 44.9964C59.5097 43.7679 61.0248 42.538 62.9244 41.6121C64.824 40.6862 66.7261 40.2504 68.2593 40.2842C69.8069 40.3183 70.9023 40.8241 71.3241 41.6895Z" fill="#2D5C21" stroke="#23461B" stroke-width="0.5"/>
<path d="M141.781 43.3719C141.494 44.291 140.487 44.9558 138.962 45.2224C137.452 45.4864 135.506 45.3417 133.488 44.7121C131.471 44.0824 129.788 43.0945 128.696 42.018C127.593 40.9314 127.144 39.8118 127.43 38.8928C127.717 37.9738 128.724 37.309 130.249 37.0424C131.76 36.7783 133.706 36.9231 135.723 37.5527C137.74 38.1823 139.423 39.1703 140.515 40.2467C141.618 41.3334 142.068 42.4529 141.781 43.3719Z" fill="#2D5C21" stroke="#23461B" stroke-width="0.5"/>
<path d="M15.5506 25.7355C15.9547 26.6093 15.6545 27.7779 14.7029 28.9989C13.7602 30.2085 12.2204 31.4073 10.3024 32.2943C8.38432 33.1814 6.4737 33.5784 4.94158 33.5133C3.39494 33.4477 2.31008 32.9197 1.90596 32.0459C1.50183 31.172 1.80205 30.0035 2.75364 28.7824C3.69629 27.5729 5.23611 26.3741 7.15416 25.4871C9.07221 24.6 10.9828 24.203 12.515 24.268C14.0616 24.3337 15.1465 24.8617 15.5506 25.7355Z" fill="#2D5C21" stroke="#23461B" stroke-width="0.5"/>
<path d="M45.3864 9.90909L40.9886 23H35.5341L31.1364 9.90909H36.0795L38.1932 18.5682H38.3295L40.4432 9.90909H45.3864ZM46.7244 23V9.90909H51.429V23H46.7244ZM49.0767 8.54545C48.4403 8.54545 47.8949 8.33523 47.4403 7.91477C46.9858 7.49432 46.7585 6.98864 46.7585 6.39773C46.7585 5.80682 46.9858 5.30114 47.4403 4.88068C47.8949 4.46023 48.4403 4.25 49.0767 4.25C49.7188 4.25 50.2642 4.46023 50.7131 4.88068C51.1676 5.30114 51.3949 5.80682 51.3949 6.39773C51.3949 6.98864 51.1676 7.49432 50.7131 7.91477C50.2642 8.33523 49.7188 8.54545 49.0767 8.54545ZM58.5305 5.54545V23H53.826V5.54545H58.5305ZM65.6662 23.1705C64.7344 23.1705 63.8764 22.9261 63.0923 22.4375C62.3139 21.9489 61.6889 21.2074 61.2173 20.2131C60.7514 19.2187 60.5185 17.9659 60.5185 16.4545C60.5185 14.875 60.7628 13.5909 61.2514 12.6023C61.7457 11.6136 62.3821 10.8892 63.1605 10.429C63.9446 9.96875 64.7685 9.73864 65.6321 9.73864C66.2798 9.73864 66.848 9.85227 67.3366 10.0795C67.8253 10.3011 68.2344 10.5994 68.5639 10.9744C68.8935 11.3437 69.1435 11.75 69.3139 12.1932H69.3821V5.54545H74.0866V23H69.4162V20.8523H69.3139C69.1321 21.2955 68.8707 21.6932 68.5298 22.0455C68.1946 22.392 67.7855 22.6676 67.3026 22.8722C66.8253 23.071 66.2798 23.1705 65.6662 23.1705ZM67.4048 19.5568C67.8366 19.5568 68.206 19.4318 68.5128 19.1818C68.8253 18.9261 69.0639 18.5682 69.2287 18.108C69.3991 17.642 69.4844 17.0909 69.4844 16.4545C69.4844 15.8068 69.3991 15.2528 69.2287 14.7926C69.0639 14.3267 68.8253 13.9716 68.5128 13.7273C68.206 13.4773 67.8366 13.3523 67.4048 13.3523C66.973 13.3523 66.6037 13.4773 66.2969 13.7273C65.9957 13.9716 65.7628 14.3267 65.598 14.7926C65.4389 15.2528 65.3594 15.8068 65.3594 16.4545C65.3594 17.1023 65.4389 17.6591 65.598 18.125C65.7628 18.5852 65.9957 18.9403 66.2969 19.1903C66.6037 19.4347 66.973 19.5568 67.4048 19.5568ZM81.1776 23V9.90909H85.6435V12.3977H85.7798C86.0526 11.5795 86.5185 10.9318 87.1776 10.4545C87.8366 9.97727 88.6207 9.73864 89.5298 9.73864C90.4503 9.73864 91.2429 9.98295 91.9077 10.4716C92.5724 10.9545 92.973 11.5966 93.1094 12.3977H93.2457C93.4673 11.5966 93.9389 10.9545 94.6605 10.4716C95.3821 9.98295 96.2287 9.73864 97.2003 9.73864C98.456 9.73864 99.473 10.142 100.251 10.9489C101.036 11.7557 101.428 12.8295 101.428 14.1705V23H96.723V15.3636C96.723 14.7898 96.5781 14.3409 96.2884 14.017C95.9986 13.6875 95.6094 13.5227 95.1207 13.5227C94.6378 13.5227 94.2543 13.6875 93.9702 14.017C93.6918 14.3409 93.5526 14.7898 93.5526 15.3636V23H89.0526V15.3636C89.0526 14.7898 88.9077 14.3409 88.6179 14.017C88.3281 13.6875 87.9389 13.5227 87.4503 13.5227C87.1264 13.5227 86.848 13.5966 86.6151 13.7443C86.3821 13.892 86.2003 14.1051 86.0696 14.3835C85.9446 14.6562 85.8821 14.983 85.8821 15.3636V23H81.1776ZM107.396 23.2045C106.56 23.2045 105.822 23.0682 105.18 22.7955C104.543 22.517 104.043 22.0966 103.68 21.5341C103.316 20.9716 103.134 20.2557 103.134 19.3864C103.134 18.6705 103.256 18.0597 103.501 17.554C103.745 17.0426 104.086 16.625 104.523 16.3011C104.961 15.9773 105.469 15.7301 106.049 15.5597C106.634 15.3892 107.265 15.2784 107.941 15.2273C108.674 15.1705 109.262 15.1023 109.705 15.0227C110.154 14.9375 110.478 14.821 110.677 14.6733C110.876 14.5199 110.975 14.3182 110.975 14.0682V14.0341C110.975 13.6932 110.844 13.4318 110.583 13.25C110.322 13.0682 109.987 12.9773 109.577 12.9773C109.129 12.9773 108.762 13.0767 108.478 13.2756C108.2 13.4687 108.032 13.767 107.975 14.1705H103.646C103.702 13.375 103.955 12.642 104.404 11.9716C104.859 11.2955 105.521 10.7557 106.39 10.3523C107.259 9.94318 108.344 9.73864 109.646 9.73864C110.583 9.73864 111.424 9.84943 112.168 10.071C112.913 10.2869 113.546 10.5909 114.069 10.983C114.592 11.3693 114.989 11.8239 115.262 12.3466C115.54 12.8636 115.68 13.4261 115.68 14.0341V23H111.282V21.1591H111.18C110.918 21.6477 110.6 22.0426 110.225 22.3438C109.856 22.6449 109.433 22.8636 108.955 23C108.484 23.1364 107.964 23.2045 107.396 23.2045ZM108.93 20.2386C109.288 20.2386 109.623 20.1648 109.935 20.017C110.254 19.8693 110.512 19.6562 110.711 19.3778C110.91 19.0994 111.009 18.7614 111.009 18.3636V17.2727C110.884 17.3239 110.751 17.3722 110.609 17.4176C110.472 17.4631 110.325 17.5057 110.165 17.5455C110.012 17.5852 109.847 17.6222 109.671 17.6562C109.501 17.6903 109.322 17.7216 109.134 17.75C108.771 17.8068 108.472 17.9006 108.239 18.0312C108.012 18.1562 107.842 18.3125 107.728 18.5C107.62 18.6818 107.566 18.8864 107.566 19.1136C107.566 19.4773 107.694 19.7557 107.95 19.9489C108.205 20.142 108.532 20.2386 108.93 20.2386ZM122.666 23.1705C121.734 23.1705 120.876 22.9261 120.092 22.4375C119.314 21.9489 118.689 21.2074 118.217 20.2131C117.751 19.2187 117.518 17.9659 117.518 16.4545C117.518 14.875 117.763 13.5909 118.251 12.6023C118.746 11.6136 119.382 10.8892 120.161 10.429C120.945 9.96875 121.768 9.73864 122.632 9.73864C123.28 9.73864 123.848 9.85227 124.337 10.0795C124.825 10.3011 125.234 10.5994 125.564 10.9744C125.893 11.3437 126.143 11.75 126.314 12.1932H126.382V5.54545H131.087V23H126.416V20.8523H126.314C126.132 21.2955 125.871 21.6932 125.53 22.0455C125.195 22.392 124.786 22.6676 124.303 22.8722C123.825 23.071 123.28 23.1705 122.666 23.1705ZM124.405 19.5568C124.837 19.5568 125.206 19.4318 125.513 19.1818C125.825 18.9261 126.064 18.5682 126.229 18.108C126.399 17.642 126.484 17.0909 126.484 16.4545C126.484 15.8068 126.399 15.2528 126.229 14.7926C126.064 14.3267 125.825 13.9716 125.513 13.7273C125.206 13.4773 124.837 13.3523 124.405 13.3523C123.973 13.3523 123.604 13.4773 123.297 13.7273C122.996 13.9716 122.763 14.3267 122.598 14.7926C122.439 15.2528 122.359 15.8068 122.359 16.4545C122.359 17.1023 122.439 17.6591 122.598 18.125C122.763 18.5852 122.996 18.9403 123.297 19.1903C123.604 19.4347 123.973 19.5568 124.405 19.5568Z" fill="black"/>
<path d="M3 18.518C3.17672 12.8082 11.0973 9.73146 14.617 14.8646C16.323 17.3527 16.0956 20.2349 17.5689 22.6521C21.2086 28.6238 25.5476 35.4911 32.8043 37.3618C38.6493 38.8685 42.5189 34.7129 47.5636 32.747C51.8242 31.0867 56.678 28.9013 61.2755 28.9013C67.9645 28.9013 73.9885 36.6072 77.368 41.8805C80.4104 46.6279 89.9508 34.8856 91.7464 32.5547C93.3541 30.4678 98.4875 29.7666 101.078 29.7666C106.474 29.7666 112.667 34.9375 117.456 37.1695C121.027 38.8337 125.771 37.523 127.74 34.2853C128.901 32.3767 129.074 27.587 130.216 26.3055C134.063 21.9901 141.211 22.8444 146.308 22.8444C147.551 22.8444 151.345 23.5883 152.307 22.2676C154.749 18.9147 153.831 12.9172 153.831 9" stroke="#723F38" stroke-width="3" stroke-linecap="round"/>
<line x1="157.708" y1="18.6833" x2="171.708" y2="13.6833" stroke="#23461B" stroke-width="0.5"/>
<line x1="57.516" y1="49.0524" x2="70.4336" y2="41.6947" stroke="#23461B" stroke-width="0.5"/>
<line x1="127.076" y1="38.7618" x2="141.243" y2="43.2665" stroke="#23461B" stroke-width="0.5"/>
<line x1="2.36533" y1="32.6137" x2="15.43" y2="25.5205" stroke="#23461B" stroke-width="0.5"/>
</svg>
