<svg width="163" height="97" viewBox="0 0 163 97" fill="none" xmlns="http://www.w3.org/2000/svg">
<rect x="2" y="24" width="137" height="71" rx="9" fill="white" stroke="#812199" stroke-width="4"/>
<path d="M38.8977 37.5455L42.4773 49.8523H42.6136L46.1932 37.5455H51.5455L45.7841 55H39.3068L33.5455 37.5455H38.8977ZM62.7464 37.5455V55H58.0078V37.5455H62.7464ZM69.7734 55V37.5455H74.5121V51.1818H81.5689V55H69.7734ZM94.9815 55H88.2656V37.5455H94.9134C96.7088 37.5455 98.2599 37.8949 99.5668 38.5938C100.879 39.2869 101.891 40.2869 102.601 41.5938C103.317 42.8949 103.675 44.4545 103.675 46.2727C103.675 48.0909 103.32 49.6534 102.609 50.9602C101.899 52.2614 100.893 53.2614 99.5923 53.9602C98.2912 54.6534 96.7543 55 94.9815 55ZM93.0043 50.9773H94.8111C95.6747 50.9773 96.4105 50.8381 97.0185 50.5597C97.6321 50.2812 98.098 49.8011 98.4162 49.1193C98.7401 48.4375 98.902 47.4886 98.902 46.2727C98.902 45.0568 98.7372 44.108 98.4077 43.4261C98.0838 42.7443 97.6065 42.2642 96.9759 41.9858C96.3509 41.7074 95.5838 41.5682 94.6747 41.5682H93.0043V50.9773Z" fill="#2D5C21"/>
<path d="M37.125 65.5455H43.0227L47.0795 75.4318H47.2841L51.3409 65.5455H57.2386V83H52.6023V72.9091H52.4659L48.5795 82.8636H45.7841L41.8977 72.8409H41.7614V83H37.125V65.5455ZM68.7997 83H63.6861L69.4474 65.5455H75.9247L81.6861 83H76.5724L72.7543 70.3523H72.6179L68.7997 83ZM67.8452 76.1136H77.4588V79.6591H67.8452V76.1136ZM94.8643 83H88.1484V65.5455H94.7962C96.5916 65.5455 98.1428 65.8949 99.4496 66.5938C100.762 67.2869 101.773 68.2869 102.484 69.5938C103.2 70.8949 103.558 72.4545 103.558 74.2727C103.558 76.0909 103.202 77.6534 102.492 78.9602C101.782 80.2614 100.776 81.2614 99.4751 81.9602C98.174 82.6534 96.6371 83 94.8643 83ZM92.8871 78.9773H94.6939C95.5575 78.9773 96.2933 78.8381 96.9013 78.5597C97.5149 78.2812 97.9808 77.8011 98.299 77.1193C98.6229 76.4375 98.7848 75.4886 98.7848 74.2727C98.7848 73.0568 98.62 72.108 98.2905 71.4261C97.9666 70.7443 97.4893 70.2642 96.8587 69.9858C96.2337 69.7074 95.4666 69.5682 94.5575 69.5682H92.8871V78.9773Z" fill="#649A57"/>
<rect x="57" y="12" width="28" height="20" fill="white"/>
<path d="M90.6346 2.99038C90.3899 10.5338 89.7638 10.4487 84.6859 15.9603C79.6079 21.4719 74.0383 24.6011 72.2457 22.9495C70.4532 21.298 73.1165 15.4912 78.1945 9.97959C85.8783 4.09724 87.1035 3.81211 90.6346 2.99038Z" fill="#649A57"/>
<path d="M49.2572 2.99038C49.502 10.5338 50.128 10.4487 55.206 15.9603C60.2839 21.4719 65.8536 24.6011 67.6461 22.9495C69.4387 21.298 66.7753 15.4912 61.6974 9.97959C54.0136 4.09724 52.7883 3.81211 49.2572 2.99038Z" fill="#649A57"/>
<line x1="20" y1="59.5" x2="120" y2="59.5" stroke="#FF9C42"/>
</svg>
