<svg width="127" height="120" viewBox="0 0 127 120" fill="none" xmlns="http://www.w3.org/2000/svg">
<ellipse cx="63.5" cy="60" rx="63.5" ry="60" fill="#2F2F2F"/>
<path d="M26.816 48.144L26.96 48C27.024 48.032 27.104 48.128 27.2 48.288C27.312 48.448 27.376 48.592 27.392 48.72C27.424 48.848 27.44 48.968 27.44 49.08C27.44 49.512 27.344 49.952 27.152 50.4L22.544 60H22.304L17.84 48H19.52L23.192 57.936L26.912 50.4C27.104 50.064 27.2 49.664 27.2 49.2C27.2 48.736 27.072 48.384 26.816 48.144ZM31.2127 60C30.5567 60 30.0527 59.856 29.7007 59.568C29.3647 59.28 29.1887 58.992 29.1727 58.704L29.1487 58.296V48H30.8287V58.296C30.8287 58.76 30.9167 59.12 31.0927 59.376C31.2847 59.616 31.4687 59.744 31.6447 59.76L31.9327 59.808H32.6767V60H31.2127ZM29.2927 45.312C29.1007 45.12 29.0047 44.88 29.0047 44.592C29.0047 44.304 29.1007 44.064 29.2927 43.872C29.4847 43.664 29.7247 43.56 30.0127 43.56C30.3007 43.56 30.5407 43.664 30.7327 43.872C30.9407 44.064 31.0447 44.304 31.0447 44.592C31.0447 44.88 30.9407 45.12 30.7327 45.312C30.5407 45.504 30.3007 45.6 30.0127 45.6C29.7247 45.6 29.4847 45.504 29.2927 45.312ZM37.6486 60C36.2406 60 35.3526 59.632 34.9846 58.896C34.9046 58.736 34.8646 58.592 34.8646 58.464V42.024H36.5446V58.296C36.5446 58.76 36.6326 59.12 36.8086 59.376C37.0006 59.616 37.1926 59.744 37.3846 59.76L37.6486 59.808H38.3926V60H37.6486ZM39.7334 54.432C39.7334 52.352 40.2374 50.744 41.2454 49.608C42.2534 48.472 43.7654 47.904 45.7814 47.904C46.7254 47.904 47.6774 48.144 48.6374 48.624V42.024H50.3174V58.296C50.3174 58.76 50.4054 59.12 50.5814 59.376C50.7734 59.616 50.9654 59.744 51.1574 59.76L51.4214 59.808H52.1654V60H50.7014C50.0454 60 49.5414 59.856 49.1894 59.568C48.8534 59.28 48.6774 58.992 48.6614 58.704L48.6374 58.296V57.912C48.3334 58.472 47.8294 58.968 47.1254 59.4C46.4214 59.832 45.5894 60.048 44.6294 60.048C41.3654 59.968 39.7334 58.096 39.7334 54.432ZM44.6534 59.856C45.7254 59.856 46.6454 59.568 47.4134 58.992C48.1814 58.416 48.5894 57.848 48.6374 57.288V48.84C47.5014 48.344 46.5254 48.096 45.7094 48.096C44.2854 48.096 43.2134 48.656 42.4934 49.776C41.7734 50.88 41.4134 52.432 41.4134 54.432C41.4134 58.048 42.4934 59.856 44.6534 59.856ZM75.7211 50.76C75.7211 49.784 75.5931 49.096 75.3371 48.696C75.0811 48.296 74.5931 48.096 73.8731 48.096C72.9131 48.096 72.0571 48.496 71.3051 49.296C70.5691 50.096 70.2011 50.816 70.2011 51.456V60H68.5211V50.76C68.5211 49.784 68.3931 49.096 68.1371 48.696C67.8811 48.296 67.3371 48.096 66.5051 48.096C65.6731 48.096 64.8811 48.48 64.1291 49.248C63.3931 50.016 62.9931 50.728 62.9291 51.384V60H61.2491V48H62.9291V50.712C63.1851 50.024 63.6571 49.384 64.3451 48.792C65.0331 48.2 65.8011 47.904 66.6491 47.904C67.4971 47.904 68.1691 47.984 68.6651 48.144C69.1771 48.288 69.5371 48.52 69.7451 48.84C69.9531 49.16 70.0811 49.44 70.1291 49.68C70.1771 49.92 70.2011 50.256 70.2011 50.688C70.4571 50 70.9211 49.368 71.5931 48.792C72.2651 48.2 72.9851 47.904 73.7531 47.904C74.5211 47.904 75.1371 47.968 75.6011 48.096C76.0651 48.224 76.4091 48.368 76.6331 48.528C76.8731 48.688 77.0491 48.92 77.1611 49.224C77.2891 49.528 77.3611 49.776 77.3771 49.968C77.3931 50.16 77.4011 50.432 77.4011 50.784V58.296C77.4011 58.76 77.4891 59.12 77.6651 59.376C77.8571 59.616 78.0491 59.744 78.2411 59.76L78.5051 59.808H79.2491V60H77.7851C77.1291 60 76.6251 59.856 76.2731 59.568C75.9371 59.28 75.7611 58.992 75.7451 58.704L75.7211 58.296V50.76ZM89.8876 60C88.7996 60 88.0556 59.792 87.6556 59.376C87.2876 59.024 87.1036 58.72 87.1036 58.464V57.96C86.3196 59.384 85.0636 60.096 83.3356 60.096C81.3196 60.096 80.1756 59.184 79.9036 57.36C79.8716 57.168 79.8556 56.976 79.8556 56.784C79.8556 56.576 79.8876 56.352 79.9516 56.112C80.0156 55.872 80.1996 55.608 80.5036 55.32C81.1116 54.744 82.4476 54.392 84.5116 54.264C85.0236 54.216 85.4956 54.192 85.9276 54.192C86.3596 54.192 86.7516 54.208 87.1036 54.24V50.256C87.0716 50.24 87.0716 50.168 87.1036 50.04C87.1356 49.896 87.1036 49.72 87.0076 49.512C86.9276 49.288 86.8156 49.072 86.6716 48.864C86.5276 48.656 86.2716 48.48 85.9036 48.336C85.5356 48.176 85.0556 48.096 84.4636 48.096C83.8716 48.096 83.1756 48.208 82.3756 48.432C81.5916 48.64 81.0156 48.848 80.6476 49.056L80.5516 48.888C81.9756 48.232 83.4236 47.904 84.8956 47.904C86.5436 47.904 87.6316 48.2 88.1596 48.792C88.5756 49.256 88.7836 49.744 88.7836 50.256V58.296C88.7836 58.76 88.8716 59.12 89.0476 59.376C89.2396 59.616 89.4316 59.744 89.6236 59.76L89.8876 59.808H90.6316V60H89.8876ZM83.7196 59.904C84.5676 59.904 85.3276 59.616 85.9996 59.04C86.6876 58.448 87.0556 57.88 87.1036 57.336V54.432C86.6716 54.4 86.2316 54.384 85.7836 54.384C85.3516 54.384 84.9196 54.408 84.4876 54.456C83.2716 54.6 82.4796 54.872 82.1116 55.272C81.7436 55.672 81.5596 56.224 81.5596 56.928C81.5596 57.056 81.5676 57.2 81.5836 57.36C81.7276 59.056 82.4396 59.904 83.7196 59.904ZM91.9522 54.432C91.9522 52.352 92.4562 50.744 93.4642 49.608C94.4722 48.472 95.9842 47.904 98.0002 47.904C98.9442 47.904 99.8962 48.144 100.856 48.624V42.024H102.536V58.296C102.536 58.76 102.624 59.12 102.8 59.376C102.992 59.616 103.184 59.744 103.376 59.76L103.64 59.808H104.384V60H102.92C102.264 60 101.76 59.856 101.408 59.568C101.072 59.28 100.896 58.992 100.88 58.704L100.856 58.296V57.912C100.552 58.472 100.048 58.968 99.3442 59.4C98.6402 59.832 97.8082 60.048 96.8482 60.048C93.5842 59.968 91.9522 58.096 91.9522 54.432ZM96.8722 59.856C97.9442 59.856 98.8642 59.568 99.6322 58.992C100.4 58.416 100.808 57.848 100.856 57.288V48.84C99.7202 48.344 98.7442 48.096 97.9282 48.096C96.5042 48.096 95.4322 48.656 94.7122 49.776C93.9922 50.88 93.6322 52.432 93.6322 54.432C93.6322 58.048 94.7122 59.856 96.8722 59.856Z" fill="white"/>
<ellipse cx="30.5" cy="44" rx="2.5" ry="2" fill="#C21C3A"/>
<path d="M39.5509 71.7269C39.3551 72.4449 37.449 72.9157 36.8373 73.2735C36.273 73.6036 34.6407 74.7099 36.303 73.9766C36.4872 73.8953 39.5365 72.3288 38.5105 72.2612C37.3166 72.1825 34.9602 72.5535 34.9954 74.1734C35.0072 74.7174 41.0184 73.2774 41.6741 73.0486C42.4264 72.786 42.211 72.7123 41.5967 73.0345C41.0735 73.309 39.5648 74.2241 40.1134 74.0047C41.365 73.504 42.5373 72.6293 43.7269 72.0011C44.9301 71.3657 46.1696 70.8208 47.3966 70.2365C49.4161 69.2748 43.476 72.3979 41.4491 73.3438C40.1328 73.9581 43.2216 70.9789 44.4158 70.1521C44.6855 69.9654 44.0824 70.8725 44.0221 70.9887C43.8306 71.3582 44.4267 71.1981 44.5986 71.1645C45.359 71.0157 46.1945 70.8716 46.9116 70.5739C47.431 70.3583 47.7658 69.9285 48.184 69.5757C48.5001 69.309 48.9786 69.142 49.2456 68.8305C49.412 68.6363 48.4851 68.6881 48.409 68.6899C47.3071 68.7149 46.0325 69.2239 45.0486 69.7022C44.0023 70.2108 42.9287 70.5818 41.8147 70.9395C40.6 71.3295 39.0231 71.552 37.934 72.2612C37.1076 72.7993 37.511 74.9032 37.5825 75.6497C37.7018 76.8959 38.2927 78.8777 39.326 79.7132C40.0755 80.3192 41.799 79.4742 42.124 78.743C42.6761 77.5008 41.4219 77.2336 40.493 77.2948C39.5502 77.357 38.7917 78.4013 38.7917 79.2914C38.7917 79.9219 40.7933 78.7509 40.9851 78.3353C41.7404 76.6987 38.4546 76.6387 37.7231 76.7183C37.571 76.7349 36.036 77.2705 36.8514 77.4495C37.5246 77.5973 38.2602 77.6744 38.9464 77.6744C41.0306 77.6744 43.35 76.267 45.1892 77.6463C46.0991 78.3288 47.5961 79.4724 47.5232 80.7115C47.4928 81.2277 43.8283 80.3346 43.7409 80.3319C43.0128 80.3093 43.0666 80.2689 42.9957 79.5163C42.9582 79.118 42.7268 77.7015 43.1223 77.4214C43.5772 77.0991 43.2676 80.022 44.2893 80.0788C44.6904 80.101 46.0082 79.1386 46.1031 79.2492C46.4443 79.6473 45.3472 79.5075 45.2595 79.4601C43.5987 78.5642 42.0239 76.8446 40.8445 75.3967C40.3725 74.8172 39.9161 74.297 39.326 73.836C39.101 73.6602 38.7849 73.5038 39.2416 73.4985C40.9348 73.4788 42.6907 73.3762 44.3737 73.5969C45.0173 73.6813 45.6467 73.625 46.2718 73.4704C49.0932 72.7723 52.0111 72.6142 54.7362 71.5301C56.32 70.8999 57.5644 69.7871 59.0386 68.9711C60.4858 68.1699 61.7908 67.1393 63.1724 66.2574C63.9074 65.7883 64.5433 65.2996 65.169 64.6967C65.5672 64.3129 66.0876 63.81 66.6031 63.6C67.2793 63.3245 67.8619 63.0124 68.6278 62.9954C69.0051 62.987 70.6642 62.2932 70.6806 62.8689C70.6971 63.4444 70.8924 64.5307 70.5541 65.0482C70.2176 65.5628 69.9539 66.2367 69.5136 66.6933C68.9033 67.3262 68.4244 67.8651 67.6155 68.2118C65.8118 68.9848 63.6452 69.5325 61.696 69.7795C60.8209 69.8905 59.9562 70.0738 59.0808 70.1803C58.6175 70.2366 59.0346 69.9909 59.2074 69.8709C60.9712 68.646 63.1414 67.9545 65.0284 66.9253C66.2533 66.2571 67.2441 65.5009 68.3255 64.6545C68.472 64.5399 69.0224 63.8944 68.8809 64.0359C68.3003 64.6164 68.0809 65.3829 67.8967 66.166C67.7065 66.9744 67.2944 67.7041 66.7718 68.3454C66.5935 68.5643 65.613 69.0764 65.654 68.8305C65.7224 68.4202 65.0066 69.3664 64.7612 69.7022C64.423 70.1649 64.1679 70.6737 64.1074 71.2488C63.9925 72.3403 67.0803 71.7031 67.6225 71.6707C68.0325 71.6461 69.2089 71.5363 68.8528 71.741C67.5517 72.4887 66.2203 73.1891 64.8948 73.8922C64.8418 73.9203 62.8134 75.0306 64.016 74.539C65.577 73.9008 67.1858 73.4828 68.8598 73.2735C69.8511 73.1496 67.9141 74.7637 68.67 74.539C69.7414 74.2204 70.7672 73.9811 71.8898 73.9063C72.0369 73.8965 73.0785 73.6769 72.7897 74.1101C72.7016 74.2422 71.895 75.137 72.0585 75.2842C72.232 75.4403 73.473 74.8368 73.7247 74.7921C74.4268 74.6673 74.4687 75.4019 74.3434 75.9661C74.2149 76.5442 72.4904 76.2825 72.0726 76.2825C70.4167 76.2825 68.5376 76.2006 66.9195 75.8466C65.891 75.6216 65.0155 75.0554 64.023 74.7147C62.4483 74.1742 60.3041 73.8653 60.3041 75.9731C60.3041 77.0294 61.4178 77.2316 62.2374 77.6041C62.9409 77.9239 63.3533 78.371 63.9106 78.8696C64.5223 79.4169 64.3666 80.4639 63.5309 80.6412C62.0571 80.9538 60.3407 80.4315 59.0457 79.7624C57.8908 79.1657 56.5949 78.7436 55.4814 78.1033C54.8141 77.7196 54.128 77.4923 53.4145 77.2104C52.351 76.7903 51.3471 76.2457 50.2228 75.9942C50.0717 75.9604 48.5499 75.9266 48.6761 75.5794C48.8159 75.195 49.5805 75.1198 49.8994 75.0733C51.2653 74.8739 52.6335 74.7498 53.998 74.5179C55.0219 74.3439 56.0931 74.249 57.0983 73.9766C57.9852 73.7362 58.8331 73.374 59.7206 73.1329C60.8964 72.8136 62.1691 72.5748 62.9544 71.5441C63.072 71.3899 63.4923 71.2594 63.3552 71.1223C63.0852 70.8524 61.2854 72.1315 61.0914 72.2612C59.2568 73.4879 57.4589 74.7593 55.4954 75.7763C54.9395 76.0642 54.4211 76.3639 53.9417 76.7675C53.6657 77 54.6476 76.6098 54.9892 76.4934C57.9226 75.4936 60.9275 74.7221 63.9246 73.9414C65.1374 73.6255 66.4535 73.3911 67.5733 72.7955C68.2377 72.4421 67.6469 72.5623 67.3132 72.683C66.8393 72.8544 66.4202 72.9861 65.9142 72.9923C63.7227 73.0194 61.5284 73.0085 59.348 72.7674C59.3017 72.7622 58.0051 72.7239 57.9911 72.5143C57.9522 71.9299 59.0596 71.4373 59.4464 71.2488C59.9149 71.0205 61.4368 70.7146 60.9157 70.7146C60.0223 70.7146 59.1222 70.7893 58.2513 70.9958C58.1949 71.0091 56.8363 71.459 56.9577 71.5371C57.405 71.8247 58.2199 71.835 58.7293 71.9519C60.1945 72.2881 60.2721 72.9821 59.5729 74.2578C59.5122 74.3686 58.8347 75.3711 59.3761 75.0733C60.4148 74.502 61.3128 73.624 62.16 72.8095C62.6545 72.3342 64.9257 70.1923 63.3411 69.6038C62.5968 69.3273 61.1603 69.2349 60.8384 70.1662C60.6168 70.8071 60.4089 72.4352 60.9368 72.9923C61.0339 73.0948 61.1366 73.0623 61.232 73.1259C61.454 73.2738 60.799 73.4374 60.5853 73.5969C59.2526 74.5915 57.9715 76.1485 57.0702 77.5479C56.5463 78.3613 56.6972 79.0689 57.7451 78.504C58.5738 78.0572 59.6768 76.7776 59.6503 75.7833C59.6092 74.2443 55.995 74.8816 55.2283 75.0311C55.1761 75.0413 51.5926 76.3869 51.7835 76.5637C52.2134 76.9617 53.2346 76.7886 53.7379 76.7886C54.6605 76.7886 55.6012 76.7386 56.5218 76.8168C57.5221 76.9017 58.5001 77.3095 59.4323 77.6463C59.8961 77.8139 60.7216 77.9462 61.0914 78.279C61.2927 78.4601 61.5352 78.7339 61.7523 78.8696C62.1043 79.0896 62.0368 79.2975 62.4553 79.3195C62.7515 79.3351 62.9451 79.7082 63.0599 79.9522C63.1821 80.212 61.94 79.8665 61.7945 79.7694C61.1169 79.3177 60.3906 78.6645 59.7698 78.1244C58.8236 77.3011 58.4177 76.6549 58.5606 75.3264C58.7607 73.4649 61.116 73.1066 62.61 72.8517C64.4993 72.5294 66.1354 72.782 67.8685 73.4423C69.7926 74.1752 64.9363 74.1344 64.8667 74.4476C64.7097 75.1537 69.195 75.017 69.7105 75.017C70.601 75.017 71.3782 74.8877 72.1359 75.3264C72.3925 75.4749 72.8709 75.7358 73.1553 75.7693C73.4625 75.8054 73.7233 75.754 73.9778 75.9661C74.1509 76.1104 74.4652 75.9985 74.6738 76.0364C74.9988 76.0955 75.1184 76.2825 75.4893 76.2825C76.0239 76.2825 75.8689 75.8809 75.8689 75.4177C75.8689 74.6727 75.4277 74.2964 74.8214 73.8922C74.3298 73.5644 74.0689 72.9923 73.4083 72.9923C72.6235 72.9923 71.7478 72.7256 70.9689 72.6127C69.5958 72.4137 68.1739 72.2331 66.7859 72.2331C65.6091 72.2331 66.5438 71.4504 67.1304 71.1153C67.7708 70.7493 68.4867 70.7366 69.2043 70.6864C69.2433 70.6837 70.4089 70.5534 70.3783 70.5177C69.9551 70.024 67.7195 70.3455 67.1936 70.363C65.764 70.4109 64.3858 70.6515 63.0037 71.0098C61.5461 71.3877 63.4668 70.6943 63.8824 70.581C65.4669 70.1489 67.2509 70.042 68.8739 69.8287C71.1116 69.5347 73.2209 69.2581 75.2854 68.3173C76.5473 67.7422 77.788 67.1177 79.0466 66.5456C80.0943 66.0694 81.2197 65.5912 82.3086 65.2169C82.8581 65.028 83.3413 64.6819 83.9044 64.521C85.6082 64.0341 87.3284 64.1865 89.0716 64.0078C90.1908 63.893 91.5506 64.0092 92.5656 63.4383C92.7294 63.3461 92.8459 63.2522 93.0366 63.2204C93.5046 63.1424 92.609 63.6652 92.5586 63.6984C91.5913 64.336 90.8561 64.9255 89.7746 65.3365C89.0109 65.6267 88.2508 65.8798 87.4968 66.173C86.4235 66.5905 85.3254 66.7882 84.2348 67.1643C83.5721 67.3928 82.9342 67.6436 82.2945 67.9306C81.3188 68.3683 81.968 67.9917 82.5124 67.7127C84.1536 66.8715 85.7162 66.0289 87.2297 64.9779C87.6395 64.6933 87.754 64.5853 87.1031 64.6967C85.1715 65.0275 83.3935 66.0569 81.6548 66.9042C79.8351 67.7909 77.965 68.6428 76.3048 69.8147C75.8918 70.1062 75.1759 70.5942 75.0112 71.1293C74.9789 71.2345 75.056 71.1979 75.1378 71.1715C75.8578 70.9392 76.5797 70.5451 77.2609 70.2365C78.8291 69.526 78.5148 69.6671 80.0589 68.9711C80.5098 68.7678 81.411 68.4951 81.8375 68.1485C82.805 67.3625 79.4412 68.8603 78.3013 69.3648C77.277 69.8181 76.2404 70.4531 75.1378 70.7075C74.4112 70.8752 74.6035 70.4524 74.6035 69.7866C74.6035 69.1731 73.4373 69.3917 72.9725 69.4632C72.3228 69.5631 72.3241 69.9553 73.0006 69.9553C73.8086 69.9553 74.6848 69.9493 73.9075 70.8903C73.3577 71.5558 73.8831 71.5624 74.5824 71.7269C75.1522 71.861 75.5128 72.0983 75.8619 72.5565C76.2149 73.0198 76.6121 73.5539 76.7547 74.1242C76.8828 74.6364 77.1086 74.4754 77.3242 74.0609C77.7501 73.2417 78.393 72.4786 79.4262 72.7603C79.9096 72.8922 80.0685 73.3834 80.1643 73.8149C80.2756 74.3156 80.6801 74.3441 81.0572 74.6374C81.4986 74.9807 81.8284 75.2282 82.2031 75.6497C82.651 76.1536 83.2161 76.8235 83.8411 77.0839C85.1049 77.6105 86.5303 77.5479 87.8694 77.5479C88.9161 77.5479 90.3377 77.7807 91.1174 76.9433C91.9332 76.067 92.1139 74.8115 92.0594 73.6672C92.0129 72.6901 91.8134 74.6526 91.8134 74.9397C91.8134 75.804 92.1784 76.6559 92.5164 77.4284C92.9372 78.3901 92.4495 78.3536 91.6165 78.6868C90.9985 78.934 90.2024 78.8133 89.5497 78.8133C88.8004 78.8133 88.3864 78.3769 87.8835 77.8572C86.1472 76.0631 85.1348 73.7897 83.6724 71.7831C83.1319 71.0415 83.171 69.6497 84.0661 69.2242C84.6627 68.9405 85.2339 68.7651 85.7393 68.3102C86.092 67.9928 86.2125 67.8887 85.4862 67.8322C84.0833 67.7231 82.7093 68.4768 81.4368 68.9711C80.3679 69.3863 79.0707 70.2493 78.4279 71.2207C78.2478 71.4929 77.2786 72.5565 77.4296 72.5002C77.9173 72.3184 81.4771 70.8636 81.3806 70.2365C81.2968 69.6922 76.7312 71.0539 76.1642 71.516C75.6472 71.9372 76.6443 71.7087 76.7617 71.6847C78.5196 71.3252 80.2163 70.7307 81.9008 70.124C82.2929 69.9828 83.3997 69.3258 83.0116 70.2365C82.5904 71.2247 81.8979 72.2021 81.0853 72.908C80.0367 73.8189 79.0677 73.172 77.9217 73.6251C77.4629 73.8064 77.3001 74.0358 76.7547 74.0047C76.4598 73.9878 76.4648 73.7073 76.5438 73.4704C76.7638 72.8104 77.441 72.4114 78.0201 72.1065C79.2662 71.4507 80.6081 70.7328 82.0133 70.4896C82.6434 70.3805 82.5899 70.907 82.5757 71.4035C82.5152 73.5218 79.1263 73.3059 77.6405 73.9484C77.4428 74.0339 76.8377 74.2694 76.6282 74.2578C75.9279 74.2189 77.2411 73.0021 77.3452 72.9361C77.6679 72.7315 79.7525 71.7979 78.5966 72.6689C78.1551 73.0017 77.7038 73.3363 77.2187 73.604C77.0023 73.7233 76.7104 73.7646 76.5579 73.9766C76.262 74.3875 77.574 74.3124 77.7671 74.2296C78.6449 73.8534 79.4782 73.4168 80.3823 73.0908C81.228 72.7857 82.1102 72.5851 82.9975 72.444C83.5003 72.364 83.3286 72.8523 83.3912 73.2314C83.4833 73.7886 83.7896 74.6834 84.4739 74.7639C84.7043 74.791 84.9299 75.201 84.8957 75.1858C84.4222 74.9753 83.9803 74.3845 83.581 74.0609C83.0467 73.6279 82.5591 73.1391 81.9992 72.7392C81.9538 72.7068 81.3633 72.247 81.3454 72.3456C81.2788 72.7117 81.816 73.3724 82.0133 73.6391C82.7498 74.6348 83.8348 75.6897 85.1136 75.9028C85.3807 75.9474 85.6229 76.0063 85.8658 76.1278C85.9521 76.171 84.8807 76.1559 84.8746 76.1559C84.3761 76.1559 83.1384 76.3823 82.7585 75.9169C82.6287 75.7579 82.4189 75.2014 82.8147 75.3334C85.1985 76.128 87.4504 77.5733 90.0769 77.0909C91.5299 76.8241 91.6431 74.9398 91.49 73.7586C91.4477 73.4325 90.9837 72.4512 91.2088 72.1136C91.4321 71.7786 92.6785 71.9773 93.0085 72.0433C94.1949 72.2805 95.2711 72.9041 96.4884 72.9853C96.7603 73.0034 97.4958 73.1092 97.6836 72.8588C97.9482 72.506 97.9327 71.8251 97.8734 71.4246C97.7441 70.5522 96.4352 70.6999 95.8206 70.581C94.3311 70.2927 92.8266 70.2293 91.3283 70.0186C90.2479 69.8666 89.3303 69.4855 88.2912 69.2523C87.2939 69.0284 84.2593 68.584 85.2753 68.6969C87.6952 68.9658 90.0162 69.4794 92.3266 70.2013C93.2758 70.498 94.1439 70.8568 94.977 71.4035C95.3984 71.6801 95.928 72.0682 96.4181 72.219C96.5856 72.2705 97.0894 72.3146 97.1212 72.0925C97.2947 70.8776 94.1612 71.0004 93.5147 70.9817C91.4562 70.922 89.4161 71.0815 87.3703 71.291C86.2717 71.4035 85.0157 71.3968 83.9888 71.8675C83.8094 71.9497 82.8454 72.5787 83.4615 72.7814C84.3583 73.0766 85.5622 72.5657 86.3298 72.1557C87.1417 71.7221 87.9227 71.1782 86.6251 70.7849C86.0133 70.5994 85.1076 70.4432 84.4879 70.3771C84.0488 70.3303 82.694 70.1103 82.2383 70.4052C82.0374 70.5352 82.6967 70.5519 82.9342 70.581C83.7584 70.6819 84.5865 70.7073 85.4159 70.7146C85.7021 70.7171 87.7198 70.4432 87.1664 71.052C86.928 71.3143 84.3689 74.0215 85.9572 73.5899C86.5732 73.4225 87.4872 73.0775 88.0452 72.8728C88.4301 72.7316 88.8126 72.5835 89.1981 72.444C89.4591 72.3496 90.1169 71.9676 89.9996 72.219C89.8742 72.4877 89.5433 72.5977 89.3106 72.7814C88.6732 73.2846 88.0414 73.7932 87.4125 74.307C86.1728 75.3197 87.5926 73.6349 87.8483 73.386C89.1625 72.1069 88.8446 73.3153 88.3897 74.307C88.3751 74.3387 87.2992 76.1678 87.778 75.6638C87.8873 75.5488 88.7718 74.6384 88.8607 75.1717C88.9475 75.6925 88.6273 75.5441 88.7623 74.8061C88.794 74.6324 89.4034 72.4338 89.3739 73.2314C89.344 74.0386 88.958 74.8884 89.0294 75.6919C89.035 75.7547 90.1371 74.4161 90.2527 74.2578C91.477 72.5809 89.9152 76.4741 89.9152 76.2754C89.9152 75.5535 89.8566 75.2886 89.7887 75.017" stroke="#59AD44" stroke-width="2"/>
<path d="M32.3296 75.2143C32.4876 74.3452 33.6934 73.7597 34.341 73.3034C36.2292 71.9731 38.2709 70.9179 40.3865 69.9957C42.0328 69.2781 43.7472 68.8902 45.471 68.42C46.7971 68.0584 48.3079 67.9331 49.5833 67.4814C49.7203 67.4329 50.3606 66.9183 50.4214 67.3138C50.5761 68.319 50.3969 69.4707 49.7956 70.2974C48.1956 72.4974 44.9188 73.2355 42.6215 74.4991C42.5126 74.5589 41.9195 75.0131 42.3868 75.0131C43.9156 75.0131 45.674 74.0493 47.0355 73.471C50.3141 72.0785 53.8426 70.9875 57.0033 69.3587C59.5999 68.0206 62.0606 66.2686 64.3339 64.4419C65.6821 63.3585 67.0175 62.7996 68.6361 62.2404C69.2751 62.0197 70.7181 61.2959 71.441 61.5588C72.1419 61.8137 71.955 63.4118 71.955 63.9278C71.955 65.6014 70.8814 66.3887 69.6307 67.3696C68.6749 68.1193 67.738 69.0833 66.7253 69.7387C66.5254 69.868 67.169 69.5654 67.3957 69.4928C68.4041 69.1698 69.4276 68.9681 70.4576 68.7329C75.5151 67.5781 80.2844 65.6643 85.2082 64.0843C86.6888 63.6091 88.2581 63.5284 89.7786 63.235C91.386 62.9248 92.9922 62.4885 94.6284 62.3522C95.5164 62.2782 94.8665 63.5221 94.5502 63.8384C93.8609 64.5277 92.7507 65.1983 91.8124 65.4699C90.3217 65.9015 88.9635 66.5354 87.5325 67.1238C86.8743 67.3944 86.2091 67.595 85.5211 67.7719C85.5083 67.7752 84.7405 67.985 84.8059 68.0178C86.6216 68.9256 89.6745 68.3753 91.6224 68.3753C92.8622 68.3753 93.9642 68.246 95.0866 68.7776C96.4866 69.4408 98.3826 69.3008 98.8078 71.0014C99.3354 73.1119 98.0582 74.6108 95.88 74.6108C94.9022 74.6108 94.3875 74.5367 93.5221 74.0521C93.2116 73.8782 91.2133 72.4924 91.913 73.6945C92.497 74.6978 95.2695 77.9006 93.3769 78.9466C89.5754 81.0474 86.4028 79.6828 83.3308 77.1363C80.2308 74.5666 76.716 72.9676 73.1395 71.1914C73.088 71.1658 70.6329 69.8234 71.0387 70.4762C72.257 72.436 75.8764 72.5073 76.6819 74.7449C78.4963 79.7848 67.6479 76.6924 65.9207 76.3317C64.441 76.0228 62.8702 75.7161 61.4285 75.259C61.0968 75.1538 59.0231 74.1325 60.0204 74.7002C61.8342 75.7327 65.4486 77.1282 65.5184 79.6394C65.5276 79.9725 65.5797 80.3973 65.5072 80.7234C65.3835 81.2802 60.949 80.6827 60.501 80.6004C56.629 79.8893 52.8152 78.2286 49.2034 76.7117C48.8451 76.5612 45.9593 75.153 46.2532 76.1082C46.788 77.8463 48.9713 78.694 48.8234 80.6898C48.7089 82.2356 44.8335 81.6509 43.9066 81.6509C42.5662 81.6509 41.6953 81.1121 40.4759 80.6451C39.4332 80.2458 38.0397 79.8641 37.2576 79.036C36.4131 78.1418 35.1807 77.6631 34.341 76.8234C33.8474 76.3298 33.1322 76.217 32.7319 75.6165" stroke="#59AD44" stroke-width="2"/>
<path d="M25 72.2689C26.7023 73.4903 29.5305 73.9954 31.6917 74.5077C34.0994 75.0785 36.3413 74.9958 38.8487 74.9958C41.6995 74.9958 44.4787 74.9478 47.2023 74.2384C50.2149 73.4537 53.3279 72.8095 56.42 72.2353C60.9676 71.3908 65.442 70.0764 70.1248 69.702C73.411 69.4392 76.7825 69.1201 80.0848 69.0876C82.9977 69.0588 86.3355 68.7368 89.1031 69.542C90.5754 69.9704 92.8957 70.5211 94 71.36" stroke="white"/>
</svg>
