<svg width="66" height="84" viewBox="0 0 66 84" fill="none" xmlns="http://www.w3.org/2000/svg">
<path d="M50.0787 4.38822C51.8021 3.92879 52.9586 3.9001 54.5916 3.89831C53.6637 7.3348 53.044 8.9871 51.9523 10.282C51.3892 10.9499 50.693 11.531 49.7426 12.2122C49.148 12.6383 48.4621 13.0981 47.6531 13.6404C47.1639 13.9683 46.6296 14.3265 46.0433 14.7256C42.9614 16.8235 39.9029 18.3106 37.4551 19.0231C36.2297 19.3797 35.1714 19.5381 34.3461 19.4903C33.5163 19.4423 32.9699 19.1903 32.6901 18.7792C32.4103 18.3682 32.3762 17.7675 32.6358 16.9779C32.8939 16.1925 33.4294 15.266 34.2105 14.2568C35.7679 12.2446 38.2662 9.94939 41.3399 7.85471C45.7365 5.86669 48.2337 4.88005 50.0787 4.38822Z" fill="#3F7F30" stroke="#23461B" stroke-width="0.5"/>
<path d="M44.967 52.5C44.967 69.897 34.9008 84 22.4835 84C10.0662 84 0 69.897 0 52.5C0 35.103 10.0662 21 22.4835 21C34.9008 21 44.967 35.103 44.967 52.5Z" fill="#D73D3D"/>
<path d="M66 52.5C66 69.897 55.9338 84 43.5165 84C31.0992 84 21.033 69.897 21.033 52.5C21.033 35.103 31.0992 21 43.5165 21C55.9338 21 66 35.103 66 52.5Z" fill="#D73D3D"/>
<rect x="19.4088" y="51.4233" width="5.18359" height="1.48747" transform="rotate(-4.68414 19.4088 51.4233)" fill="white"/>
<rect x="16.512" y="50" width="6.20155" height="1.08133" transform="rotate(28.26 16.512 50)" fill="white"/>
<rect x="16.3311" y="49.9843" width="10.1945" height="1.62202" transform="rotate(0.535849 16.3311 49.9843)" fill="white"/>
<rect width="7.22828" height="1.41073" transform="matrix(-0.880808 0.473473 0.473473 0.880808 26.3667 50)" fill="white"/>
<rect x="16.0996" y="51.0195" width="9.70511" height="2" transform="rotate(-90 16.0996 51.0195)" fill="white"/>
<rect x="20.4193" y="51.0247" width="9.62443" height="1.86398" transform="rotate(-90 20.4193 51.0247)" fill="white"/>
<rect x="25.0972" y="51.0193" width="9.45305" height="1.98468" transform="rotate(-90 25.0972 51.0193)" fill="white"/>
<rect x="21.9998" y="52.7621" width="31.2113" height="2" transform="rotate(89.9856 21.9998 52.7621)" fill="white"/>
<rect x="44.328" y="54" width="29.9734" height="1.81278" transform="rotate(89.9856 44.328 54)" fill="white"/>
<ellipse cx="43.5" cy="48.5" rx="4.5" ry="7.5" fill="white"/>
</svg>
